<?xml version="1.0" encoding="UTF-8" standalone="no"?>
<!-- Created with Inkscape (http://www.inkscape.org/) -->
<svg
   xmlns:dc="http://purl.org/dc/elements/1.1/"
   xmlns:cc="http://web.resource.org/cc/"
   xmlns:rdf="http://www.w3.org/1999/02/22-rdf-syntax-ns#"
   xmlns:svg="http://www.w3.org/2000/svg"
   xmlns="http://www.w3.org/2000/svg"
   xmlns:sodipodi="http://sodipodi.sourceforge.net/DTD/sodipodi-0.dtd"
   xmlns:inkscape="http://www.inkscape.org/namespaces/inkscape"
   width="744.09448819"
   height="1052.3622047"
   id="svg6550"
   sodipodi:version="0.32"
   inkscape:version="0.45.1"
   sodipodi:docbase="C:\ESS\berlin\presentation\i"
   sodipodi:docname="LRV-skew.svg"
   inkscape:output_extension="org.inkscape.output.svg.inkscape">
  <defs
     id="defs6552">
    <marker
       inkscape:stockid="Arrow2Lend"
       orient="auto"
       refY="0.0"
       refX="0.0"
       id="Arrow2Lend"
       style="overflow:visible;">
      <path
         id="path5547"
         style="font-size:12.0;fill-rule:evenodd;stroke-width:0.62500000;stroke-linejoin:round;"
         d="M 8.7185878,4.0337352 L -2.2072895,0.016013256 L 8.7185884,-4.0017078 C 6.9730900,-1.6296469 6.9831476,1.6157441 8.7185878,4.0337352 z "
         transform="scale(1.1) rotate(180) translate(1,0)" />
    </marker>
  </defs>
  <sodipodi:namedview
     id="base"
     pagecolor="#ffffff"
     bordercolor="#666666"
     borderopacity="1.0"
     gridtolerance="10000"
     guidetolerance="10"
     objecttolerance="10"
     inkscape:pageopacity="0.0"
     inkscape:pageshadow="2"
     inkscape:zoom="1.4"
     inkscape:cx="511.68721"
     inkscape:cy="399.42655"
     inkscape:document-units="px"
     inkscape:current-layer="layer1"
     showguides="true"
     inkscape:guide-bbox="true"
     inkscape:window-width="1264"
     inkscape:window-height="876"
     inkscape:window-x="11"
     inkscape:window-y="61">
    <sodipodi:guide
       orientation="horizontal"
       position="700.89286"
       id="guide7735" />
    <sodipodi:guide
       orientation="horizontal"
       position="201.96429"
       id="guide8817" />
    <sodipodi:guide
       orientation="horizontal"
       position="642.45702"
       id="guide8843" />
    <sodipodi:guide
       orientation="horizontal"
       position="638.41641"
       id="guide8845" />
  </sodipodi:namedview>
  <metadata
     id="metadata6555">
    <rdf:RDF>
      <cc:Work
         rdf:about="">
        <dc:format>image/svg+xml</dc:format>
        <dc:type
           rdf:resource="http://purl.org/dc/dcmitype/StillImage" />
      </cc:Work>
    </rdf:RDF>
  </metadata>
  <g
     inkscape:label="Layer 1"
     inkscape:groupmode="layer"
     id="layer1">
    <g
       transform="translate(3.0848659,49.250247)"
       id="g5745">
      <g
         transform="translate(-1.0101525,-72.730983)"
         id="XMLID_1_">
			<g
   id="g3335">
				<g
   id="g3337">
					<path
   id="path3339"
   d="M 720,394.5 C 692.02,394.5 668.39,387.54 648.03,375.78 C 618.389,358.679 595.67,331.41 576.55,300.66 C 548.55,255.65 528.24,203.18 505.16,164.14 C 485.13,130.26 463.02,106.5 432,106.5 C 400.9,106.5 378.76,130.38 358.69,164.39 C 335.65,203.44 315.35,255.84 287.38,300.78 C 268.1,331.759 245.17,359.19 215.18,376.23 C 195,387.72 171.62,394.5 144,394.5"
   style="fill:none;stroke:#000000" />

					<polygon
   id="polygon3341"
   points="145.932,392.804 144.235,394.5 145.932,396.195 144.493,396.195 142.797,394.5 144.493,392.804 145.932,392.804 " />

					<polygon
   id="polygon3343"
   points="718.068,396.196 719.765,394.5 718.068,392.805 719.508,392.805 721.203,394.5 719.508,396.196 718.068,396.196 " />

				</g>

			</g>

			
			<g
   id="g3347">
				<g
   id="g3349">
					<polyline
   id="polyline3351"
   points="720,403.5 648,403.5 576,403.5 504,403.5 432,403.5        360.17,403.5 288,403.5 216.16,403.5 144,403.5      "
   style="fill:none;stroke:#000000;stroke-width:1.5" />

					<path
   id="path3353"
   d="M 141.343,404.653 C 143.203,405.215 144.412,405.732 145.904,406.331 L 145.904,400.656 C 145.37,400.91 143.203,401.772 141.343,402.334 C 139.352,402.936 137.548,403.348 136.377,403.494 C 137.547,403.641 139.352,404.052 141.343,404.653 z " />

					<path
   id="path3355"
   d="M 722.657,402.347 C 720.797,401.785 719.588,401.268 718.095,400.669 L 718.095,406.344 C 718.629,406.09 720.796,405.227 722.657,404.666 C 724.647,404.064 726.453,403.652 727.623,403.506 C 726.453,403.359 724.647,402.948 722.657,402.347 z " />

				</g>

			</g>

			
			<line
   id="line3359"
   y2="165.17"
   x2="360"
   y1="403.5"
   x1="360.17001"
   style="fill:none;stroke:#606060;stroke-dasharray:5" />

			<line
   id="line3361"
   y2="301"
   x2="576"
   y1="403.5"
   x1="576"
   style="fill:none;stroke:#606060;stroke-dasharray:5" />

			<line
   id="line3363"
   y2="301.17001"
   x2="288"
   y1="403.5"
   x1="288"
   style="fill:none;stroke:#606060;stroke-dasharray:5" />

			
			<polyline
   id="polyline3367"
   points="216.17,404.33 216.16,403.5 216,377.67    "
   style="fill:none;stroke:#606060;stroke-dasharray:5" />

		<flowRoot
   xml:space="preserve"
   id="flowRoot6758"
   transform="translate(20.778746,298.42203)"
   style="font-size:10px;font-style:normal;font-variant:normal;font-weight:normal;font-stretch:normal;text-align:start;line-height:125%;writing-mode:lr-tb;text-anchor:start;fill:#606060;fill-opacity:1;font-family:Myriad Web Pro"><flowRegion
     id="flowRegion6760"><rect
       id="rect6762"
       width="234.28572"
       height="120"
       x="580"
       y="75.219322"
       style="font-size:10px;font-style:normal;font-variant:normal;font-weight:normal;font-stretch:normal;text-align:start;line-height:125%;writing-mode:lr-tb;text-anchor:start;fill:#606060;fill-opacity:1;font-family:Myriad Web Pro" /></flowRegion><flowPara
     id="flowPara6764">0.0227</flowPara></flowRoot><flowRoot
   xml:space="preserve"
   id="flowRoot7744"
   transform="translate(-137.79268,298.42203)"
   style="font-size:10px;font-style:normal;font-variant:normal;font-weight:normal;font-stretch:normal;text-align:start;line-height:125%;writing-mode:lr;text-anchor:start;fill:#606060;fill-opacity:1;font-family:Myriad Web Pro"><flowRegion
     id="flowRegion7746"><rect
       id="rect7748"
       width="234.28572"
       height="120"
       x="580"
       y="75.219322"
       style="font-size:10px;font-style:normal;font-variant:normal;font-weight:normal;font-stretch:normal;text-align:start;line-height:125%;writing-mode:lr;text-anchor:start;fill:#606060;fill-opacity:1;font-family:Myriad Web Pro" /></flowRegion><flowPara
     id="flowPara7752">0.8185</flowPara></flowRoot></g>
      <path
         d="M 428.87585,7.0540167 L 430.11785,8.9270167 C 430.44185,9.4130167 430.71285,9.8630167 430.99985,10.349017 L 431.05485,10.349017 C 431.34285,9.8270167 431.63085,9.3760167 431.91885,8.9090167 L 433.14285,7.0540167 L 434.85385,7.0540167 L 431.88285,11.267017 L 434.94385,15.768017 L 433.14285,15.768017 L 431.86585,13.806017 C 431.52285,13.302017 431.23485,12.815017 430.92885,12.293017 L 430.89285,12.293017 C 430.60485,12.833017 430.29885,13.283017 429.97485,13.806017 L 428.71385,15.768017 L 426.96685,15.768017 L 430.06485,11.321017 L 427.11185,7.0530167 L 428.87585,7.0530167 L 428.87585,7.0540167 z "
         id="path3510" />
      <path
         d="M 434.95285,3.3050167 L 434.95285,4.3850167 L 427.02985,4.3850167 L 427.02985,3.3050167 L 434.95285,3.3050167 z "
         id="path3514" />
      <path
         style="fill:#606060"
         d="M 310.78685,305.02102 C 310.46685,305.42002 309.88785,305.80002 309.26785,305.80002 C 308.68785,305.80002 308.30885,305.57102 307.98885,305.43102 C 307.68885,305.31102 307.34885,305.09102 306.84885,305.09102 C 306.38985,305.09102 305.93985,305.40102 305.66985,305.68102 L 305.31985,305.26102 C 305.63985,304.88102 306.21885,304.49102 306.84885,304.49102 C 307.43885,304.49102 307.79885,304.72002 308.12785,304.85002 C 308.42785,304.98002 308.75785,305.19002 309.25685,305.19002 C 309.71685,305.19002 310.16685,304.87102 310.41685,304.61002 L 310.78685,305.02102 z M 310.82685,306.99002 C 310.50685,307.40002 309.91685,307.78002 309.29785,307.78002 C 308.72885,307.78002 308.35885,307.55002 308.02885,307.42002 C 307.72885,307.30102 307.38885,307.08002 306.87985,307.08002 C 306.43985,307.08002 305.98085,307.38002 305.71085,307.67002 L 305.37085,307.24002 C 305.68085,306.86002 306.26985,306.48002 306.88985,306.48002 C 307.47985,306.48002 307.83985,306.70002 308.16885,306.84002 C 308.46885,306.96002 308.80885,307.18002 309.29785,307.18002 C 309.76785,307.18002 310.21685,306.88002 310.46685,306.59002 L 310.82685,306.99002 z "
         id="path3534" />
      <path
         style="fill:#606060"
         d="M 317.93785,305.45102 C 317.93785,307.66002 317.11785,308.88002 315.67885,308.88002 C 314.40885,308.88002 313.54985,307.69102 313.52985,305.54102 C 313.52985,303.36202 314.46885,302.16302 315.78885,302.16302 C 317.15785,302.16302 317.93785,303.38202 317.93785,305.45102 z M 314.40985,305.55102 C 314.40985,307.23902 314.92985,308.19902 315.72885,308.19902 C 316.62785,308.19902 317.05785,307.14902 317.05785,305.49002 C 317.05785,303.89102 316.64785,302.84202 315.73885,302.84202 C 314.96885,302.84202 314.40985,303.78202 314.40985,305.55102 z "
         id="path3536" />
      <path
         style="fill:#606060"
         d="M 319.39985,308.87902 C 319.05985,308.87902 318.81985,308.60802 318.81985,308.24902 C 318.81985,307.87902 319.06985,307.61902 319.41985,307.61902 C 319.76985,307.61902 320.00885,307.87902 320.00885,308.24902 C 320.00885,308.60802 319.77885,308.87902 319.40885,308.87902 L 319.39985,308.87902 z "
         id="path3538" />
      <path
         style="fill:#606060"
         d="M 322.72885,303.09202 L 322.70885,303.09202 L 321.57985,303.70102 L 321.40985,303.03102 L 322.82885,302.27202 L 323.57885,302.27202 L 323.57885,308.76802 L 322.72985,308.76802 L 322.72985,303.09202 L 322.72885,303.09202 z "
         id="path3540" />
      <path
         style="fill:#606060"
         d="M 326.15885,307.75902 C 326.40885,307.91902 326.98885,308.16902 327.59785,308.16902 C 328.72785,308.16902 329.07685,307.44902 329.06785,306.90902 C 329.05685,306.00002 328.23785,305.61002 327.38885,305.61002 L 326.89885,305.61002 L 326.89885,304.95002 L 327.38885,304.95002 C 328.02785,304.95002 328.83785,304.62102 328.83785,303.85102 C 328.83785,303.33002 328.50885,302.87202 327.69885,302.87202 C 327.17885,302.87202 326.67885,303.10102 326.39885,303.30202 L 326.16885,302.66202 C 326.50885,302.41202 327.16885,302.16202 327.86885,302.16202 C 329.14785,302.16202 329.72685,302.92202 329.72685,303.71102 C 329.72685,304.38102 329.32785,304.95002 328.52785,305.24002 L 328.52785,305.26102 C 329.32785,305.42002 329.97685,306.02102 329.97685,306.93002 C 329.97685,307.96902 329.16685,308.87902 327.60785,308.87902 C 326.87885,308.87902 326.23885,308.64902 325.91985,308.43902 L 326.15885,307.75902 z "
         id="path3542" />
      <path
         style="fill:#606060"
         d="M 334.95685,303.01202 L 332.47785,303.01202 L 332.22785,304.68102 C 332.37785,304.66102 332.51785,304.64102 332.75785,304.64102 C 333.25785,304.64102 333.75685,304.75102 334.15685,304.99102 C 334.66685,305.28102 335.08685,305.84102 335.08685,306.66102 C 335.08685,307.93002 334.07685,308.88002 332.66785,308.88002 C 331.95785,308.88002 331.35785,308.68002 331.04885,308.48002 L 331.26885,307.81102 C 331.53885,307.97002 332.06885,308.17002 332.65885,308.17002 C 333.48785,308.17002 334.19785,307.63002 334.19785,306.76102 C 334.18685,305.92102 333.62785,305.32202 332.32885,305.32202 C 331.95885,305.32202 331.66885,305.36202 331.42985,305.39202 L 331.84985,302.27402 L 334.95685,302.27402 L 334.95685,303.01202 z "
         id="path3544" />
      <path
         style="fill:#606060"
         d="M 336.71885,308.14902 C 336.90885,308.17002 337.12885,308.14902 337.42885,308.12002 C 337.93885,308.05002 338.41785,307.84002 338.78785,307.49002 C 339.21785,307.10002 339.52685,306.53102 339.64685,305.76102 L 339.61685,305.76102 C 339.25785,306.20102 338.73785,306.46102 338.08885,306.46102 C 336.91885,306.46102 336.16985,305.58102 336.16985,304.47202 C 336.16985,303.24302 337.05885,302.16302 338.38885,302.16302 C 339.71785,302.16302 340.53685,303.24202 340.53685,304.90102 C 340.53685,306.33102 340.05785,307.33002 339.41785,307.95002 C 338.91785,308.43902 338.22885,308.73902 337.52785,308.81902 C 337.20885,308.86902 336.92785,308.88002 336.71785,308.86902 L 336.71785,308.14902 L 336.71885,308.14902 z M 338.30785,302.83202 C 337.56785,302.83202 337.03785,303.49102 337.03785,304.41102 C 337.03785,305.22102 337.52685,305.79002 338.28685,305.79002 C 338.87685,305.79002 339.33685,305.50002 339.56585,305.11002 C 339.61585,305.03002 339.64585,304.93002 339.64585,304.79102 C 339.64585,303.68202 339.23685,302.83202 338.31685,302.83202 L 338.30785,302.83202 z "
         id="path3546" />
      <path
         style="fill:#606060"
         d="M 238.78685,305.02102 C 238.46685,305.42002 237.88785,305.80002 237.26785,305.80002 C 236.68785,305.80002 236.30885,305.57102 235.98885,305.43102 C 235.68885,305.31102 235.34885,305.09102 234.84885,305.09102 C 234.38985,305.09102 233.93985,305.40102 233.66985,305.68102 L 233.31985,305.26102 C 233.63985,304.88102 234.21885,304.49102 234.84885,304.49102 C 235.43885,304.49102 235.79885,304.72002 236.12785,304.85002 C 236.42785,304.98002 236.75785,305.19002 237.25685,305.19002 C 237.71685,305.19002 238.16685,304.87102 238.41685,304.61002 L 238.78685,305.02102 z M 238.82685,306.99002 C 238.50685,307.40002 237.91685,307.78002 237.29785,307.78002 C 236.72885,307.78002 236.35885,307.55002 236.02885,307.42002 C 235.72885,307.30102 235.38885,307.08002 234.87985,307.08002 C 234.43985,307.08002 233.98085,307.38002 233.71085,307.67002 L 233.37085,307.24002 C 233.68085,306.86002 234.26985,306.48002 234.88985,306.48002 C 235.47985,306.48002 235.83985,306.70002 236.16885,306.84002 C 236.46885,306.96002 236.80885,307.18002 237.29785,307.18002 C 237.76785,307.18002 238.21685,306.88002 238.46685,306.59002 L 238.82685,306.99002 z "
         id="path3566" />
      <path
         style="fill:#606060"
         d="M 245.93785,305.45102 C 245.93785,307.66002 245.11785,308.88002 243.67885,308.88002 C 242.40885,308.88002 241.54985,307.69102 241.52985,305.54102 C 241.52985,303.36202 242.46885,302.16302 243.78885,302.16302 C 245.15785,302.16302 245.93785,303.38202 245.93785,305.45102 z M 242.40985,305.55102 C 242.40985,307.23902 242.92985,308.19902 243.72885,308.19902 C 244.62785,308.19902 245.05785,307.14902 245.05785,305.49002 C 245.05785,303.89102 244.64785,302.84202 243.73885,302.84202 C 242.96885,302.84202 242.40985,303.78202 242.40985,305.55102 z "
         id="path3568" />
      <path
         style="fill:#606060"
         d="M 247.39985,308.87902 C 247.05985,308.87902 246.81985,308.60802 246.81985,308.24902 C 246.81985,307.87902 247.06985,307.61902 247.41985,307.61902 C 247.76985,307.61902 248.00885,307.87902 248.00885,308.24902 C 248.00885,308.60802 247.77885,308.87902 247.40885,308.87902 L 247.39985,308.87902 z "
         id="path3570" />
      <path
         style="fill:#606060"
         d="M 253.13685,305.45102 C 253.13685,307.66002 252.31685,308.88002 250.87785,308.88002 C 249.60785,308.88002 248.74885,307.69102 248.72885,305.54102 C 248.72885,303.36202 249.66785,302.16302 250.98785,302.16302 C 252.35785,302.16302 253.13685,303.38202 253.13685,305.45102 z M 249.60885,305.55102 C 249.60885,307.23902 250.12885,308.19902 250.92785,308.19902 C 251.82685,308.19902 252.25685,307.14902 252.25685,305.49002 C 252.25685,303.89102 251.84685,302.84202 250.93785,302.84202 C 250.16885,302.84202 249.60885,303.78202 249.60885,305.55102 z "
         id="path3572" />
      <path
         style="fill:#606060"
         d="M 253.94885,308.76902 L 253.94885,308.22902 L 254.63785,307.56002 C 256.29785,305.98102 257.04685,305.14102 257.05585,304.16202 C 257.05585,303.50202 256.73685,302.89202 255.76685,302.89202 C 255.17785,302.89202 254.68785,303.19202 254.38785,303.44202 L 254.10785,302.82302 C 254.55785,302.44302 255.19685,302.16302 255.94585,302.16302 C 257.34485,302.16302 257.93485,303.12302 257.93485,304.05202 C 257.93485,305.25202 257.06585,306.22102 255.69685,307.54002 L 255.17685,308.01902 L 255.17685,308.04002 L 258.09485,308.04002 L 258.09485,308.76902 L 253.94885,308.76902 L 253.94885,308.76902 z "
         id="path3574" />
      <path
         style="fill:#606060"
         d="M 260.98785,303.09202 L 260.96785,303.09202 L 259.83785,303.70102 L 259.66785,303.03102 L 261.08785,302.27202 L 261.83685,302.27202 L 261.83685,308.76802 L 260.98685,308.76802 L 260.98685,303.09202 L 260.98785,303.09202 z "
         id="path3576" />
      <path
         style="fill:#606060"
         d="M 266.92785,308.76902 L 266.92785,307.00002 L 263.90985,307.00002 L 263.90985,306.42002 L 266.80685,302.27302 L 267.75685,302.27302 L 267.75685,306.31002 L 268.66585,306.31002 L 268.66585,307.00002 L 267.75685,307.00002 L 267.75685,308.76902 L 266.92785,308.76902 z M 266.92785,306.31002 L 266.92785,304.14102 C 266.92785,303.80202 266.93885,303.46202 266.95785,303.12202 L 266.92785,303.12202 C 266.72885,303.50102 266.56885,303.78102 266.38885,304.08102 L 264.79885,306.29002 L 264.79885,306.31002 L 266.92785,306.31002 z "
         id="path3578" />
      <g
         transform="translate(-1.0101525,-72.730983)"
         id="g3598">
			<path
   style="fill:#606060"
   d="M 167.797,377.752 C 167.477,378.151 166.898,378.531 166.278,378.531 C 165.698,378.531 165.319,378.302 164.999,378.162 C 164.699,378.042 164.359,377.822 163.859,377.822 C 163.4,377.822 162.95,378.132 162.68,378.412 L 162.33,377.992 C 162.65,377.612 163.229,377.222 163.859,377.222 C 164.449,377.222 164.809,377.451 165.138,377.581 C 165.438,377.711 165.768,377.921 166.267,377.921 C 166.727,377.921 167.177,377.602 167.427,377.341 L 167.797,377.752 z M 167.837,379.721 C 167.517,380.131 166.927,380.511 166.308,380.511 C 165.739,380.511 165.369,380.281 165.039,380.151 C 164.739,380.032 164.399,379.811 163.89,379.811 C 163.45,379.811 162.991,380.111 162.721,380.401 L 162.381,379.971 C 162.691,379.591 163.28,379.211 163.9,379.211 C 164.49,379.211 164.85,379.431 165.179,379.571 C 165.479,379.691 165.819,379.911 166.308,379.911 C 166.778,379.911 167.227,379.611 167.477,379.321 L 167.837,379.721 z "
   id="path3600" />

			<path
   style="fill:#606060"
   d="M 174.948,378.182 C 174.948,380.391 174.128,381.611 172.689,381.611 C 171.419,381.611 170.56,380.422 170.54,378.272 C 170.54,376.093 171.479,374.894 172.799,374.894 C 174.168,374.894 174.948,376.113 174.948,378.182 z M 171.42,378.282 C 171.42,379.97 171.94,380.93 172.739,380.93 C 173.638,380.93 174.068,379.88 174.068,378.221 C 174.068,376.622 173.658,375.573 172.749,375.573 C 171.979,375.573 171.42,376.513 171.42,378.282 z "
   id="path3602" />

			<path
   style="fill:#606060"
   d="M 176.41,381.61 C 176.07,381.61 175.83,381.339 175.83,380.98 C 175.83,380.61 176.08,380.35 176.43,380.35 C 176.78,380.35 177.019,380.61 177.019,380.98 C 177.019,381.339 176.789,381.61 176.419,381.61 L 176.41,381.61 z "
   id="path3604" />

			<path
   style="fill:#606060"
   d="M 182.147,378.182 C 182.147,380.391 181.327,381.611 179.888,381.611 C 178.618,381.611 177.759,380.422 177.739,378.272 C 177.739,376.093 178.678,374.894 179.998,374.894 C 181.368,374.894 182.147,376.113 182.147,378.182 z M 178.619,378.282 C 178.619,379.97 179.139,380.93 179.938,380.93 C 180.837,380.93 181.267,379.88 181.267,378.221 C 181.267,376.622 180.857,375.573 179.948,375.573 C 179.179,375.573 178.619,376.513 178.619,378.282 z "
   id="path3606" />

			<path
   style="fill:#606060"
   d="M 187.277,378.182 C 187.277,380.391 186.458,381.611 185.018,381.611 C 183.748,381.611 182.889,380.422 182.869,378.272 C 182.869,376.093 183.808,374.894 185.127,374.894 C 186.498,374.894 187.277,376.113 187.277,378.182 z M 183.749,378.282 C 183.749,379.97 184.269,380.93 185.068,380.93 C 185.967,380.93 186.397,379.88 186.397,378.221 C 186.397,376.622 185.988,375.573 185.078,375.573 C 184.309,375.573 183.749,376.513 183.749,378.282 z "
   id="path3608" />

			<path
   style="fill:#606060"
   d="M 189.998,375.823 L 189.978,375.823 L 188.848,376.432 L 188.678,375.762 L 190.098,375.003 L 190.847,375.003 L 190.847,381.499 L 189.997,381.499 L 189.997,375.823 L 189.998,375.823 z "
   id="path3610" />

			<path
   style="fill:#606060"
   d="M 193.429,380.49 C 193.679,380.65 194.259,380.9 194.868,380.9 C 195.998,380.9 196.347,380.18 196.338,379.64 C 196.327,378.731 195.508,378.341 194.658,378.341 L 194.169,378.341 L 194.169,377.681 L 194.658,377.681 C 195.298,377.681 196.107,377.352 196.107,376.582 C 196.107,376.061 195.778,375.603 194.968,375.603 C 194.447,375.603 193.948,375.832 193.668,376.033 L 193.439,375.393 C 193.779,375.143 194.438,374.893 195.138,374.893 C 196.417,374.893 196.996,375.653 196.996,376.442 C 196.996,377.112 196.597,377.681 195.797,377.971 L 195.797,377.992 C 196.597,378.151 197.246,378.752 197.246,379.661 C 197.246,380.7 196.436,381.61 194.877,381.61 C 194.148,381.61 193.508,381.38 193.189,381.17 L 193.429,380.49 z "
   id="path3612" />

		</g>
      <path
         d="M 208.40585,347.13502 L 208.40585,347.91402 L 205.44385,347.91402 L 205.44385,347.13502 L 208.40585,347.13502 z "
         id="path3786" />
      <path
         d="M 209.55885,349.55802 C 209.85885,349.74902 210.55485,350.04902 211.28585,350.04902 C 212.64085,350.04902 213.06085,349.18602 213.04885,348.53802 C 213.03685,347.44602 212.05285,346.97802 211.03385,346.97802 L 210.44685,346.97802 L 210.44685,346.18702 L 211.03385,346.18702 C 211.80185,346.18702 212.77285,345.79102 212.77285,344.86802 C 212.77285,344.24402 212.37685,343.69202 211.40585,343.69202 C 210.78185,343.69202 210.18185,343.96802 209.84685,344.20802 L 209.57085,343.44002 C 209.97885,343.14002 210.76985,342.84002 211.60985,342.84002 C 213.14485,342.84002 213.84085,343.75102 213.84085,344.69902 C 213.84085,345.50302 213.36085,346.18602 212.40185,346.53402 L 212.40185,346.55702 C 213.36085,346.74902 214.14085,347.46902 214.14085,348.56002 C 214.14085,349.80802 213.16885,350.89902 211.29885,350.89902 C 210.42385,350.89902 209.65585,350.62402 209.27185,350.37202 L 209.55885,349.55802 z "
         id="path3788" />
      <path
         d="M 216.24285,350.90102 C 215.83485,350.90102 215.54685,350.57802 215.54685,350.14502 C 215.54685,349.70202 215.84685,349.39002 216.26685,349.39002 C 216.68685,349.39002 216.97485,349.70202 216.97485,350.14502 C 216.97485,350.57802 216.69885,350.90102 216.25485,350.90102 L 216.24285,350.90102 z "
         id="path3790" />
      <path
         d="M 223.12785,346.78802 C 223.12785,349.43802 222.14485,350.90102 220.41785,350.90102 C 218.89485,350.90102 217.86285,349.47402 217.83885,346.89502 C 217.83885,344.28102 218.96585,342.84102 220.54885,342.84102 C 222.19285,342.84102 223.12785,344.30402 223.12785,346.78802 z M 218.89485,346.90702 C 218.89485,348.93402 219.51885,350.08602 220.47785,350.08602 C 221.55785,350.08602 222.07285,348.82602 222.07285,346.83602 C 222.07285,344.91702 221.58085,343.65702 220.48985,343.65702 C 219.56585,343.65702 218.89485,344.78502 218.89485,346.90702 z "
         id="path3792" />
      <path
         d="M 280.40585,347.13502 L 280.40585,347.91402 L 277.44385,347.91402 L 277.44385,347.13502 L 280.40585,347.13502 z "
         id="path3796" />
      <path
         d="M 281.30685,350.76902 L 281.30685,350.12202 L 282.13485,349.31802 C 284.12585,347.42302 285.02585,346.41602 285.03685,345.24002 C 285.03685,344.44902 284.65285,343.71802 283.48985,343.71802 C 282.78185,343.71802 282.19485,344.07702 281.83485,344.37702 L 281.49885,343.63402 C 282.03885,343.17802 282.80685,342.84202 283.70585,342.84202 C 285.38485,342.84202 286.09285,343.99302 286.09285,345.10902 C 286.09285,346.54802 285.04985,347.71202 283.40585,349.29502 L 282.78185,349.87102 L 282.78185,349.89402 L 286.28385,349.89402 L 286.28385,350.77002 L 281.30685,350.77002 L 281.30685,350.76902 z "
         id="path3798" />
      <path
         d="M 288.24285,350.90102 C 287.83485,350.90102 287.54685,350.57802 287.54685,350.14502 C 287.54685,349.70202 287.84685,349.39002 288.26685,349.39002 C 288.68685,349.39002 288.97485,349.70202 288.97485,350.14502 C 288.97485,350.57802 288.69885,350.90102 288.25485,350.90102 L 288.24285,350.90102 z "
         id="path3800" />
      <path
         d="M 295.12785,346.78802 C 295.12785,349.43802 294.14485,350.90102 292.41785,350.90102 C 290.89485,350.90102 289.86285,349.47402 289.83885,346.89502 C 289.83885,344.28102 290.96585,342.84102 292.54885,342.84102 C 294.19285,342.84102 295.12785,344.30402 295.12785,346.78802 z M 290.89485,346.90702 C 290.89485,348.93402 291.51885,350.08602 292.47785,350.08602 C 293.55785,350.08602 294.07285,348.82602 294.07285,346.83602 C 294.07285,344.91702 293.58085,343.65702 292.48985,343.65702 C 291.56585,343.65702 290.89485,344.78502 290.89485,346.90702 z "
         id="path3802" />
      <path
         d="M 352.40585,347.13502 L 352.40585,347.91402 L 349.44385,347.91402 L 349.44385,347.13502 L 352.40585,347.13502 z "
         id="path3806" />
      <path
         d="M 355.59785,343.95702 L 355.57385,343.95702 L 354.21885,344.68802 L 354.01485,343.88502 L 355.71785,342.97302 L 356.61785,342.97302 L 356.61785,350.76902 L 355.59785,350.76902 L 355.59785,343.95702 L 355.59785,343.95702 z "
         id="path3808" />
      <path
         d="M 360.24285,350.90102 C 359.83485,350.90102 359.54685,350.57802 359.54685,350.14502 C 359.54685,349.70202 359.84685,349.39002 360.26685,349.39002 C 360.68685,349.39002 360.97485,349.70202 360.97485,350.14502 C 360.97485,350.57802 360.69885,350.90102 360.25485,350.90102 L 360.24285,350.90102 z "
         id="path3810" />
      <path
         d="M 367.12785,346.78802 C 367.12785,349.43802 366.14485,350.90102 364.41785,350.90102 C 362.89485,350.90102 361.86285,349.47402 361.83885,346.89502 C 361.83885,344.28102 362.96585,342.84102 364.54885,342.84102 C 366.19285,342.84102 367.12785,344.30402 367.12785,346.78802 z M 362.89485,346.90702 C 362.89485,348.93402 363.51885,350.08602 364.47785,350.08602 C 365.55785,350.08602 366.07285,348.82602 366.07285,346.83602 C 366.07285,344.91702 365.58085,343.65702 364.48985,343.65702 C 363.56585,343.65702 362.89485,344.78502 362.89485,346.90702 z "
         id="path3812" />
      <path
         d="M 567.30785,344.38802 L 567.30785,347.20602 L 570.01685,347.20602 L 570.01685,347.92602 L 567.30785,347.92602 L 567.30785,350.76902 L 566.53985,350.76902 L 566.53985,347.92602 L 563.82885,347.92602 L 563.82885,347.20602 L 566.53985,347.20602 L 566.53985,344.38802 L 567.30785,344.38802 z "
         id="path3830" />
      <path
         d="M 571.04285,350.76902 L 571.04285,350.12202 L 571.86885,349.31802 C 573.86085,347.42302 574.75985,346.41602 574.77085,345.24002 C 574.77085,344.44902 574.38785,343.71802 573.22385,343.71802 C 572.51685,343.71802 571.92885,344.07702 571.56985,344.37702 L 571.23385,343.63402 C 571.77285,343.17802 572.54085,342.84202 573.44085,342.84202 C 575.11885,342.84202 575.82785,343.99302 575.82785,345.10902 C 575.82785,346.54802 574.78285,347.71202 573.13985,349.29502 L 572.51685,349.87102 L 572.51685,349.89402 L 576.01885,349.89402 L 576.01885,350.77002 L 571.04285,350.77002 L 571.04285,350.76902 z "
         id="path3832" />
      <path
         d="M 577.97585,350.90102 C 577.56785,350.90102 577.28085,350.57802 577.28085,350.14502 C 577.28085,349.70202 577.58185,349.39002 578.00185,349.39002 C 578.41985,349.39002 578.70885,349.70202 578.70885,350.14502 C 578.70885,350.57802 578.43385,350.90102 577.98785,350.90102 L 577.97585,350.90102 z "
         id="path3834" />
      <path
         d="M 584.86285,346.78802 C 584.86285,349.43802 583.87885,350.90102 582.15185,350.90102 C 580.62885,350.90102 579.59685,349.47402 579.57385,346.89502 C 579.57385,344.28102 580.70085,342.84102 582.28485,342.84102 C 583.92785,342.84102 584.86285,344.30402 584.86285,346.78802 z M 580.62885,346.90702 C 580.62885,348.93402 581.25385,350.08602 582.21285,350.08602 C 583.29085,350.08602 583.80685,348.82602 583.80685,346.83602 C 583.80685,344.91702 583.31685,343.65702 582.22485,343.65702 C 581.30085,343.65702 580.62885,344.78502 580.62885,346.90702 z "
         id="path3836" />
      <g
         transform="translate(-1.0101525,-72.730983)"
         id="g3916">
			
			
			
			
			
			
			
			
			
			
			
			
			
			
			
			
			
			
			
			
			
			
			
			
			
			
			
			
			
			
			
			
			
			
			
			
			
			
		<flowRoot
   transform="translate(-12.142136,206.07112)"
   style="font-size:12px;font-style:normal;font-variant:normal;font-weight:normal;font-stretch:normal;text-align:center;line-height:125%;writing-mode:lr-tb;text-anchor:middle;font-family:Myriad Web Pro"
   id="flowRoot5501"
   xml:space="preserve"><flowRegion
     id="flowRegion5503"><rect
       style="font-size:12px;font-style:normal;font-variant:normal;font-weight:normal;font-stretch:normal;text-align:center;line-height:125%;writing-mode:lr-tb;text-anchor:middle;font-family:Myriad Web Pro"
       y="156.35687"
       x="29.294424"
       height="30.304573"
       width="103.03556"
       id="rect5505" /></flowRegion><flowPara
     id="flowPara5507">Proportion of cases under the curve</flowPara></flowRoot></g>
      <line
         id="line4140"
         y2="364.26901"
         x2="574.98987"
         y1="355.26901"
         x1="574.98987"
         style="fill:none;stroke:#000000" />
      <line
         id="line4142"
         y2="364.26901"
         x2="286.98984"
         y1="355.26901"
         x1="286.98984"
         style="fill:none;stroke:#000000" />
      <line
         id="line4144"
         y2="364.26901"
         x2="358.98984"
         y1="355.26901"
         x1="358.98984"
         style="fill:none;stroke:#000000" />
      <line
         id="line4148"
         y2="364.26901"
         x2="214.98985"
         y1="355.26901"
         x1="214.98985"
         style="fill:none;stroke:#000000" />
      <line
         id="line4152"
         y2="359.76901"
         x2="142.98985"
         y1="359.76901"
         x1="718.98987"
         style="fill:none;stroke:#000000" />
      <flowRoot
         transform="translate(-59.828097,26.57685)"
         style="font-size:18px;font-style:normal;font-variant:normal;font-weight:bold;font-stretch:normal;text-align:start;line-height:125%;writing-mode:lr-tb;text-anchor:start;font-family:Myriad Web Pro"
         id="flowRoot5509"
         xml:space="preserve"><flowRegion
           id="flowRegion5511"><rect
             style="font-size:18px;font-style:normal;font-variant:normal;font-weight:bold;font-stretch:normal;text-align:start;line-height:125%;writing-mode:lr-tb;text-anchor:start;font-family:Myriad Web Pro"
             y="106.8594"
             x="72.73098"
             height="87.883278"
             width="223.24371"
             id="rect5513" /></flowRegion><flowPara
           id="flowPara5515">Continuous</flowPara><flowPara
           id="flowPara5519">Latent Response Variable </flowPara><flowPara
           id="flowPara5517">(LRV)</flowPara></flowRoot>      <flowRoot
         transform="translate(-59.773715,463.9729)"
         style="font-size:18px;font-style:normal;font-variant:normal;font-weight:bold;font-stretch:normal;text-align:start;line-height:125%;writing-mode:lr-tb;text-anchor:start;font-family:Myriad Web Pro"
         id="flowRoot6079"
         xml:space="preserve"><flowRegion
           id="flowRegion6081"><rect
             style="font-size:18px;font-style:normal;font-variant:normal;font-weight:bold;font-stretch:normal;text-align:start;line-height:125%;writing-mode:lr-tb;text-anchor:start;font-family:Myriad Web Pro"
             y="106.8594"
             x="72.73098"
             height="65.65992"
             width="168.69548"
             id="rect6083" /></flowRegion><flowPara
           id="flowPara6089">Categorical</flowPara><flowPara
           id="flowPara6096">observed variable</flowPara></flowRoot>      <path
         style="fill:#606060"
         d="M 597.48578,304.74908 C 597.16678,305.14808 596.58778,305.52808 595.96678,305.52808 C 595.38778,305.52808 595.00678,305.29908 594.68778,305.15908 C 594.38778,305.03908 594.04778,304.81908 593.54778,304.81908 C 593.08878,304.81908 592.63878,305.12908 592.36778,305.40908 L 592.01778,304.98908 C 592.33778,304.60908 592.91778,304.21908 593.54678,304.21908 C 594.13678,304.21908 594.49578,304.44808 594.82578,304.57808 C 595.12678,304.70808 595.45578,304.91808 595.95478,304.91808 C 596.41578,304.91808 596.86478,304.59908 597.11478,304.33808 L 597.48578,304.74908 z M 597.52678,306.71808 C 597.20678,307.12808 596.61678,307.50808 595.99778,307.50808 C 595.42778,307.50808 595.05878,307.27808 594.72778,307.14808 C 594.42778,307.02908 594.08778,306.80808 593.57878,306.80808 C 593.13878,306.80808 592.67978,307.10808 592.40978,307.39808 L 592.06978,306.96808 C 592.37978,306.58808 592.96778,306.20808 593.58878,306.20808 C 594.17878,306.20808 594.53878,306.42808 594.86778,306.56808 C 595.16778,306.68808 595.50778,306.90808 595.99778,306.90808 C 596.46678,306.90808 596.91678,306.60808 597.16678,306.31808 L 597.52678,306.71808 z "
         id="path7741" />
      <path
         style="fill:#606060"
         d="M 437.48578,304.74908 C 437.16678,305.14808 436.58778,305.52808 435.96678,305.52808 C 435.38778,305.52808 435.00678,305.29908 434.68778,305.15908 C 434.38778,305.03908 434.04778,304.81908 433.54778,304.81908 C 433.08878,304.81908 432.63878,305.12908 432.36778,305.40908 L 432.01778,304.98908 C 432.33778,304.60908 432.91778,304.21908 433.54678,304.21908 C 434.13678,304.21908 434.49578,304.44808 434.82578,304.57808 C 435.12678,304.70808 435.45578,304.91808 435.95478,304.91808 C 436.41578,304.91808 436.86478,304.59908 437.11478,304.33808 L 437.48578,304.74908 z M 437.52678,306.71808 C 437.20678,307.12808 436.61678,307.50808 435.99778,307.50808 C 435.42778,307.50808 435.05878,307.27808 434.72778,307.14808 C 434.42778,307.02908 434.08778,306.80808 433.57878,306.80808 C 433.13878,306.80808 432.67978,307.10808 432.40978,307.39808 L 432.06978,306.96808 C 432.37978,306.58808 432.96778,306.20808 433.58878,306.20808 C 434.17878,306.20808 434.53878,306.42808 434.86778,306.56808 C 435.16778,306.68808 435.50778,306.90808 435.99778,306.90808 C 436.46678,306.90808 436.91678,306.60808 437.16678,306.31808 L 437.52678,306.71808 z "
         id="path3550" />
    </g>
    <text
       xml:space="preserve"
       style="font-size:12px;font-style:normal;font-variant:normal;font-weight:normal;font-stretch:normal;text-align:center;line-height:125%;writing-mode:lr-tb;text-anchor:middle;fill:#000000;fill-opacity:1;stroke:none;stroke-width:1px;stroke-linecap:butt;stroke-linejoin:miter;stroke-opacity:1;font-family:Myriad Web Pro"
       x="72.182098"
       y="399.19388"
       id="text5497"
       sodipodi:linespacing="125%"><tspan
         sodipodi:role="line"
         id="tspan5499"
         x="72.182098"
         y="399.19388">Thresholds (z-scores)</tspan></text>
    <g
       id="g5961"
       transform="translate(52.582342,-321.47573)">
      <path
         id="path5924"
         d="M 1,0 L 1,0 L 1,0 L 1,0 L 1,0" />
      <path
         id="path5926"
         d="M 1,0 L 1,0 L 1,0 L 1,0 L 1,0" />
      <path
         id="path5928"
         d="M 1,0 L 1,0 L 1,0 L 1,0 L 1,0" />
      <path
         id="path5930"
         d="M 1,0 L 1,0 L 1,0 L 1,0 L 1,0" />
      <path
         id="path5932"
         d="M 1,0 L 1,0 L 1,0 L 1,0 L 1,0" />
      <path
         id="path5934"
         d="M 1,0 L 1,0 L 1,0 L 1,0 L 1,0" />
      <path
         id="path5936"
         d="M 1,0 L 1,0 L 1,0 L 1,0 L 1,0" />
      <path
         id="path5938"
         d="M 1,0 L 1,0 L 1,0 L 1,0 L 1,0" />
      <path
         id="path5940"
         d="M 1,0 L 1,0" />
      <path
         id="path5942"
         d="M 1,0 L 1,0" />
      <path
         id="path5944"
         d="M 1,0 L 1,0" />
      <path
         id="path5946"
         d="M 1,0 L 1,0" />
      <path
         id="path5948"
         d="M 1,0 L 1,0" />
      <path
         id="path5950"
         d="M 1,0 L 1,0" />
      <path
         id="path5952"
         d="M 1,0 L 1,0" />
      <path
         id="path5954"
         d="M 1,0 L 1,0" />
    </g>
    <g
       id="g6018"
       transform="translate(265.72453,-187.12545)">
      <path
         id="path5981"
         d="M 1,0 L 1,0 L 1,0 L 1,0 L 1,0" />
      <path
         id="path5983"
         d="M 1,0 L 1,0 L 1,0 L 1,0 L 1,0" />
      <path
         id="path5985"
         d="M 1,0 L 1,0 L 1,0 L 1,0 L 1,0" />
      <path
         id="path5987"
         d="M 1,0 L 1,0 L 1,0 L 1,0 L 1,0" />
      <path
         id="path5989"
         d="M 1,0 L 1,0 L 1,0 L 1,0 L 1,0" />
      <path
         id="path5991"
         d="M 1,0 L 1,0 L 1,0 L 1,0 L 1,0" />
      <path
         id="path5993"
         d="M 1,0 L 1,0 L 1,0 L 1,0 L 1,0" />
      <path
         id="path5995"
         d="M 1,0 L 1,0 L 1,0 L 1,0 L 1,0" />
      <path
         id="path5997"
         d="M 1,0 L 1,0" />
      <path
         id="path5999"
         d="M 1,0 L 1,0" />
      <path
         id="path6001"
         d="M 1,0 L 1,0" />
      <path
         id="path6003"
         d="M 1,0 L 1,0" />
      <path
         id="path6005"
         d="M 1,0 L 1,0" />
      <path
         id="path6007"
         d="M 1,0 L 1,0" />
      <path
         id="path6009"
         d="M 1,0 L 1,0" />
      <path
         id="path6011"
         d="M 1,0 L 1,0" />
    </g>
    <g
       id="Normal_Distro_Curve"
       transform="translate(1061.4503,18.148368)">
	<g
   id="g3417">
			
		</g>

	
	
	
<path
   style="fill:none;fill-rule:evenodd;stroke:#000000;stroke-width:1px;stroke-linecap:butt;stroke-linejoin:miter;marker-end:url(#Arrow2Lend);stroke-opacity:1"
   d="M 179.20387,371.15685 L 179.20388,766.1265"
   id="path5521"
   sodipodi:nodetypes="cc" />
</g>
    <g
       id="g5878"
       transform="translate(1139.1034,18.148368)">
	<g
   id="g5880">
			
		</g>

	
	
	
<path
   style="fill:none;fill-rule:evenodd;stroke:#000000;stroke-width:1px;stroke-linecap:butt;stroke-linejoin:miter;marker-end:url(#Arrow2Lend);stroke-opacity:1"
   d="M 179.20387,371.15685 L 179.20387,744.91329"
   id="path5882"
   sodipodi:nodetypes="cc" />
</g>
    <g
       id="g5886"
       transform="translate(1212.2648,18.148368)">
	<g
   id="g5888">
			
		</g>

	
	
	
<path
   style="fill:none;fill-rule:evenodd;stroke:#000000;stroke-width:1px;stroke-linecap:butt;stroke-linejoin:miter;marker-end:url(#Arrow2Lend);stroke-opacity:1"
   d="M 179.20387,371.15685 L 179.20387,628.74575"
   id="path5890"
   sodipodi:nodetypes="cc" />
</g>
    <g
       id="g5892"
       transform="translate(1285.4262,18.148368)">
	<g
   id="g5894">
			
		</g>

	
	
	
<path
   style="fill:none;fill-rule:evenodd;stroke:#000000;stroke-width:1px;stroke-linecap:butt;stroke-linejoin:miter;marker-end:url(#Arrow2Lend);stroke-opacity:1"
   d="M 179.20387,371.15685 L 179.20387,423.68478"
   id="path5896" />
</g>
    <g
       id="g5898"
       transform="translate(1358.5875,18.148368)">
	<g
   id="g5900">
			
		</g>

	
	
	
<path
   style="fill:none;fill-rule:evenodd;stroke:#000000;stroke-width:1px;stroke-linecap:butt;stroke-linejoin:miter;marker-end:url(#Arrow2Lend);stroke-opacity:1"
   d="M 179.20387,371.15685 L 179.20387,423.68478"
   id="path5902" />
</g>
    <g
       id="g5904"
       transform="translate(1431.7489,18.148368)">
	<g
   id="g5906">
			
		</g>

	
	
	
<path
   style="fill:none;fill-rule:evenodd;stroke:#000000;stroke-width:1px;stroke-linecap:butt;stroke-linejoin:miter;marker-end:url(#Arrow2Lend);stroke-opacity:1"
   d="M 179.20387,371.15685 L 180.21403,630.76605"
   id="path5908"
   sodipodi:nodetypes="cc" />
</g>
    <g
       id="g5910"
       transform="translate(1504.9103,18.148368)">
	<g
   id="g5912">
			
		</g>

	
	
	
<path
   style="fill:none;fill-rule:evenodd;stroke:#000000;stroke-width:1px;stroke-linecap:butt;stroke-linejoin:miter;marker-end:url(#Arrow2Lend);stroke-opacity:1"
   d="M 179.20387,371.15685 L 179.20387,742.89299"
   id="path5914"
   sodipodi:nodetypes="cc" />
</g>
    <g
       id="g5916"
       transform="translate(1578.0717,18.148368)">
	<g
   id="g5918">
			
		</g>

	
	
	
<path
   style="fill:none;fill-rule:evenodd;stroke:#000000;stroke-width:1px;stroke-linecap:butt;stroke-linejoin:miter;marker-end:url(#Arrow2Lend);stroke-opacity:1"
   d="M 179.20387,371.15685 L 179.20387,760.06558"
   id="path5920"
   sodipodi:nodetypes="cc" />
</g>
    <path
       style="fill:#000000"
       d="M 1240.1136,794.85009 L 1209.0801,795.02624 L 1208.4252,793.97576 L 1207.7702,792.92528 L 1208.7933,792.29558 L 1209.8164,791.66588 L 1240.4818,791.84236 L 1271.1472,792.01885 L 1271.1472,793.3464 L 1271.1472,794.67394 L 1240.1136,794.85009 z M 1313.9889,794.84994 L 1282.416,795.02593 L 1281.8766,794.16069 C 1281.5799,793.6848 1281.4709,788.37839 1281.6345,782.36867 L 1281.9319,771.4419 L 1313.7468,771.4419 L 1345.5617,771.4419 L 1345.5617,783.05792 L 1345.5617,794.67394 L 1313.9889,794.84994 z M 1387.3249,794.84994 L 1355.752,795.02593 L 1355.2321,794.18617 C 1354.9461,793.7243 1354.8372,762.58054 1354.99,724.97783 L 1355.2679,656.60926 L 1387.0829,656.60926 L 1418.8978,656.60926 L 1418.8978,725.6416 L 1418.8978,794.67394 L 1387.3249,794.84994 z M 1460.6609,794.84994 L 1429.0881,795.02593 L 1428.5698,794.18617 C 1428.2847,793.7243 1428.1758,715.98371 1428.3277,621.42932 L 1428.604,449.51224 L 1460.4189,449.51224 L 1492.2338,449.51224 L 1492.2338,622.09309 L 1492.2338,794.67394 L 1460.6609,794.84994 z M 1533.997,794.84994 L 1502.4242,795.02593 L 1501.9059,794.18617 C 1501.6208,793.7243 1501.5119,715.98371 1501.6638,621.42932 L 1501.9401,449.51224 L 1533.755,449.51224 L 1565.5698,449.51224 L 1565.5698,622.09309 L 1565.5698,794.67394 L 1533.997,794.84994 z M 1607.333,794.84994 L 1575.7601,795.02593 L 1575.2402,794.18617 C 1574.9543,793.7243 1574.8453,762.58054 1574.9982,724.97783 L 1575.2761,656.60926 L 1607.091,656.60926 L 1638.9059,656.60926 L 1638.9059,725.6416 L 1638.9059,794.67394 L 1607.333,794.84994 z M 1680.6691,794.84994 L 1649.0962,795.02593 L 1648.5568,794.16069 C 1648.2601,793.6848 1648.1511,788.37839 1648.3147,782.36867 L 1648.6122,771.4419 L 1680.427,771.4419 L 1712.2419,771.4419 L 1712.2419,783.05792 L 1712.2419,794.67394 L 1680.6691,794.84994 z M 1754.5445,794.85009 L 1723.5108,795.02624 L 1722.8559,793.97576 L 1722.201,792.92528 L 1723.2241,792.29558 L 1724.2472,791.66588 L 1754.9126,791.84236 L 1785.578,792.01885 L 1785.578,793.3464 L 1785.578,794.67394 L 1754.5445,794.85009 z "
       id="path6064"
       sodipodi:nodetypes="cccccccccccccccccccccccccccccccccccccccccccccccccccccccccccccccccccccccccccccccccc" />
    <path
       style="fill:#000000;fill-opacity:1"
       d="M 170.61158,812.50505 L 135.28572,812.50505 L 135.28572,811.83932 L 135.28572,811.17359 L 170.61158,811.17359 L 205.93746,811.17359 L 205.93746,811.83932 L 205.93746,812.50505 L 170.61158,812.50505 z M 254.17817,812.50505 L 218.85231,812.50505 L 218.85231,807.51207 L 218.85231,802.51911 L 254.17817,802.51911 L 289.50406,802.51911 L 289.50406,807.51207 L 289.50406,812.50505 L 254.17817,812.50505 z M 338.1246,812.50505 L 302.4189,812.50505 L 302.4189,783.54577 L 302.4189,754.58652 L 338.1246,754.58652 L 373.83034,754.58652 L 373.83034,783.54577 L 373.83034,812.50505 L 338.1246,812.50505 z M 422.07107,812.50505 L 386.74519,812.50505 L 386.74519,639.74804 L 386.74519,466.99105 L 422.07107,466.99105 L 564.53977,466.99105 L 564.53977,639.74804 L 564.53977,812.50505 L 422.07107,812.50505 z M 619.20905,812.50505 L 583.88319,812.50505 L 583.88319,807.1792 L 583.88319,801.85338 L 619.20905,801.85338 L 654.53491,801.85338 L 654.53491,807.1792 L 654.53491,812.50505 L 619.20905,812.50505 z "
       id="path7844"
       sodipodi:nodetypes="ccccccccccccccccccccccccccccccccccccccccccccc" />
    <g
       id="g8947"
       transform="matrix(1,0,0,1.1197184,0,-49.505537)">
      <g
         transform="matrix(1,0,0,0.8561019,-4.1108858,96.231222)"
         id="g8819">
	<g
   id="g8821">
			
		</g>

	
	
	
<path
   sodipodi:nodetypes="cc"
   id="path8823"
   d="M 179.20387,371.15685 L 179.20388,766.1265"
   style="fill:none;fill-rule:evenodd;stroke:#000000;stroke-width:1px;stroke-linecap:butt;stroke-linejoin:miter;marker-end:url(#Arrow2Lend);stroke-opacity:1" />
</g>
      <g
         transform="matrix(1,0,0,0.8561019,73.542214,96.231222)"
         id="g8825">
	<g
   id="g8827">
			
		</g>

	
	
	
<path
   sodipodi:nodetypes="cc"
   id="path8829"
   d="M 179.20387,371.15685 L 179.20387,744.91329"
   style="fill:none;fill-rule:evenodd;stroke:#000000;stroke-width:1px;stroke-linecap:butt;stroke-linejoin:miter;marker-end:url(#Arrow2Lend);stroke-opacity:1" />
</g>
      <g
         transform="matrix(1,0,0,0.8561019,146.70361,96.231222)"
         id="g8831">
	<g
   id="g8833">
			
		</g>

	
	
	
<path
   sodipodi:nodetypes="cc"
   id="path8835"
   d="M 179.20387,371.15685 L 179.20387,628.74575"
   style="fill:none;fill-rule:evenodd;stroke:#000000;stroke-width:1px;stroke-linecap:butt;stroke-linejoin:miter;marker-end:url(#Arrow2Lend);stroke-opacity:1" />
</g>
      <g
         transform="matrix(1,0,0,0.8561019,449.29644,96.581311)"
         id="g8837">
	<g
   id="g8839">
			
		</g>

	
	
	
<path
   sodipodi:nodetypes="cc"
   id="path8841"
   d="M 179.20387,371.15685 L 179.20388,766.1265"
   style="fill:none;fill-rule:evenodd;stroke:#000000;stroke-width:1px;stroke-linecap:butt;stroke-linejoin:miter;marker-end:url(#Arrow2Lend);stroke-opacity:1" />
</g>
    </g>
    <g
       id="g8941"
       transform="translate(286.74534,39.248313)">
	<g
   id="g8943">
			
		</g>

	
	
	
<path
   style="fill:none;fill-rule:evenodd;stroke:#000000;stroke-width:1px;stroke-linecap:butt;stroke-linejoin:miter;marker-end:url(#Arrow2Lend);stroke-opacity:1"
   d="M 179.20387,371.15685 L 179.20387,423.68478"
   id="path8945" />
</g>
  </g>
</svg>
