<?xml version="1.0" encoding="UTF-8" standalone="no"?>
<!-- Created with Inkscape (http://www.inkscape.org/) -->
<svg
   xmlns:dc="http://purl.org/dc/elements/1.1/"
   xmlns:cc="http://web.resource.org/cc/"
   xmlns:rdf="http://www.w3.org/1999/02/22-rdf-syntax-ns#"
   xmlns:svg="http://www.w3.org/2000/svg"
   xmlns="http://www.w3.org/2000/svg"
   xmlns:sodipodi="http://sodipodi.sourceforge.net/DTD/sodipodi-0.dtd"
   xmlns:inkscape="http://www.inkscape.org/namespaces/inkscape"
   width="744.09448819"
   height="1052.3622047"
   id="svg3320"
   sodipodi:version="0.32"
   inkscape:version="0.45.1"
   sodipodi:docbase="C:\ESS\berlin\presentation\i"
   sodipodi:docname="LRV.svg"
   inkscape:output_extension="org.inkscape.output.svg.inkscape">
  <defs
     id="defs3322"><marker
   inkscape:stockid="Arrow2Lend"
   orient="auto"
   refY="0.0"
   refX="0.0"
   id="Arrow2Lend"
   style="overflow:visible;">
  <path
     id="path5547"
     style="font-size:12.0;fill-rule:evenodd;stroke-width:0.62500000;stroke-linejoin:round;"
     d="M 8.7185878,4.0337352 L -2.2072895,0.016013256 L 8.7185884,-4.0017078 C 6.9730900,-1.6296469 6.9831476,1.6157441 8.7185878,4.0337352 z "
     transform="scale(1.1) rotate(180) translate(1,0)" />
</marker>

		
		
		
		
		
		
		
		
	
	
	
	
	
	
	
	
	
	
	
	
	
	
	
	
	
	
	
	
	
	
	
	
	
	
	
	
	
	
	
	
	
	
	
	
	
	
	
	
	
	
	
	
	
	
	
	
	
	
	
	
	
	
	
	
	
	
	
	
	
	
	
	
	
	
	
	
	
	

		
		
		
		
		
		
		
		
		
		
		
		
		
		
		
		
		
		
		
		
		
	
		
		
		
		
		
		
		
	
		
	
		
	
		
		
		
		
	
		
		
		
		
	
		
		
		
		
	
		
		
		
		
	
		
	
		
		
		
		
	
		
		
		
		
	
		
		
		
		
	
		
		
		
		
	
		
		
		
	
		
		
		
	
		
		
		
	
		
		
		
	
		
	
		
		
		
	
		
		
		
	
		
		
		
	
		
		
		
	
		
		
		
		
		
		
		
		
		
		
		
		
		
		
		
		
		
		
		
		
		
		
		
		
		
		
		
		
		
	
		
		
		
		
		
		
		
	
		
		
		
		
		
		
		
	
		
	
		
		
		
		
		
		
		
	
		
		
		
		
		
		
		
	
		
		
		
		
		
		
		
	
		
		
		
		
		
		
		
	
		
		
		
		
		
		
		
	
		
	
		
	</defs>
  <sodipodi:namedview
     id="base"
     pagecolor="#ffffff"
     bordercolor="#666666"
     borderopacity="1.0"
     gridtolerance="10000"
     guidetolerance="10"
     objecttolerance="10"
     inkscape:pageopacity="0.0"
     inkscape:pageshadow="2"
     inkscape:zoom="0.98994949"
     inkscape:cx="329.20874"
     inkscape:cy="478.44702"
     inkscape:document-units="px"
     inkscape:current-layer="g4301"
     inkscape:window-width="1192"
     inkscape:window-height="928"
     inkscape:window-x="7"
     inkscape:window-y="-6"
     showguides="true"
     inkscape:guide-bbox="true">
    <sodipodi:guide
       orientation="horizontal"
       position="656.59915"
       id="guide5884" />
    <sodipodi:guide
       orientation="vertical"
       position="13.131983"
       id="guide6067" />
    <sodipodi:guide
       orientation="vertical"
       position="719.22861"
       id="guide6069" />
    <sodipodi:guide
       orientation="horizontal"
       position="395.9798"
       id="guide6071" />
    <sodipodi:guide
       orientation="vertical"
       position="-44.446712"
       id="guide6326" />
  </sodipodi:namedview>
  <metadata
     id="metadata3325">
    <rdf:RDF>
      <cc:Work
         rdf:about="">
        <dc:format>image/svg+xml</dc:format>
        <dc:type
           rdf:resource="http://purl.org/dc/dcmitype/StillImage" />
      </cc:Work>
    </rdf:RDF>
  </metadata>
  <g
     inkscape:label="Layer 1"
     inkscape:groupmode="layer"
     id="layer1">
    <g
       id="g4301"
       transform="translate(-0.4068633,27.636633)">
      <g
         id="Normal_Distro_Curve"
         transform="translate(-4.4917391,-2.5304504)">
	<g
   id="g3417">
			
		</g>

	
	
	
<path
   style="fill:none;fill-rule:evenodd;stroke:#000000;stroke-width:1px;stroke-linecap:butt;stroke-linejoin:miter;marker-end:url(#Arrow2Lend);stroke-opacity:1"
   d="M 179.20387,371.15685 L 179.20388,766.1265"
   id="path5521"
   sodipodi:nodetypes="cc" />
</g>
      <g
         id="g5745">
        <g
           transform="translate(-1.0101525,-72.730983)"
           id="XMLID_1_">
			<g
   id="g3335">
				<g
   id="g3337">
					<path
   id="path3339"
   d="M 720,394.5 C 692.02,394.5 668.39,387.54 648.03,375.78 C 618.389,358.679 595.67,331.41 576.55,300.66 C 548.55,255.65 528.24,203.18 505.16,164.14 C 485.13,130.26 463.02,106.5 432,106.5 C 400.9,106.5 378.76,130.38 358.69,164.39 C 335.65,203.44 315.35,255.84 287.38,300.78 C 268.1,331.759 245.17,359.19 215.18,376.23 C 195,387.72 171.62,394.5 144,394.5"
   style="fill:none;stroke:#000000" />

					<polygon
   id="polygon3341"
   points="145.932,392.804 144.235,394.5 145.932,396.195 144.493,396.195 142.797,394.5 144.493,392.804 145.932,392.804 " />

					<polygon
   id="polygon3343"
   points="718.068,396.196 719.765,394.5 718.068,392.805 719.508,392.805 721.203,394.5 719.508,396.196 718.068,396.196 " />

				</g>

			</g>

			<polyline
   id="polyline3345"
   points="432,412.5 432,403.5 432,106.5 432,88.5    "
   style="fill:none;stroke:#000000;stroke-width:1.5" />

			<g
   id="g3347">
				<g
   id="g3349">
					<polyline
   id="polyline3351"
   points="720,403.5 648,403.5 576,403.5 504,403.5 432,403.5        360.17,403.5 288,403.5 216.16,403.5 144,403.5      "
   style="fill:none;stroke:#000000;stroke-width:1.5" />

					<path
   id="path3353"
   d="M 141.343,404.653 C 143.203,405.215 144.412,405.732 145.904,406.331 L 145.904,400.656 C 145.37,400.91 143.203,401.772 141.343,402.334 C 139.352,402.936 137.548,403.348 136.377,403.494 C 137.547,403.641 139.352,404.052 141.343,404.653 z " />

					<path
   id="path3355"
   d="M 722.657,402.347 C 720.797,401.785 719.588,401.268 718.095,400.669 L 718.095,406.344 C 718.629,406.09 720.796,405.227 722.657,404.666 C 724.647,404.064 726.453,403.652 727.623,403.506 C 726.453,403.359 724.647,402.948 722.657,402.347 z " />

				</g>

			</g>

			<line
   id="line3357"
   y2="164.83"
   x2="504"
   y1="403.5"
   x1="504"
   style="fill:none;stroke:#606060;stroke-dasharray:5" />

			<line
   id="line3359"
   y2="165.17"
   x2="360"
   y1="403.5"
   x1="360.17001"
   style="fill:none;stroke:#606060;stroke-dasharray:5" />

			<line
   id="line3361"
   y2="301"
   x2="576"
   y1="403.5"
   x1="576"
   style="fill:none;stroke:#606060;stroke-dasharray:5" />

			<line
   id="line3363"
   y2="301.17001"
   x2="288"
   y1="403.5"
   x1="288"
   style="fill:none;stroke:#606060;stroke-dasharray:5" />

			<line
   id="line3365"
   y2="375.82999"
   x2="648"
   y1="403.5"
   x1="648"
   style="fill:none;stroke:#606060;stroke-dasharray:5" />

			<polyline
   id="polyline3367"
   points="216.17,404.33 216.16,403.5 216,377.67    "
   style="fill:none;stroke:#606060;stroke-dasharray:5" />

		</g>
        <path
           d="M 428.87585,7.0540167 L 430.11785,8.9270167 C 430.44185,9.4130167 430.71285,9.8630167 430.99985,10.349017 L 431.05485,10.349017 C 431.34285,9.8270167 431.63085,9.3760167 431.91885,8.9090167 L 433.14285,7.0540167 L 434.85385,7.0540167 L 431.88285,11.267017 L 434.94385,15.768017 L 433.14285,15.768017 L 431.86585,13.806017 C 431.52285,13.302017 431.23485,12.815017 430.92885,12.293017 L 430.89285,12.293017 C 430.60485,12.833017 430.29885,13.283017 429.97485,13.806017 L 428.71385,15.768017 L 426.96685,15.768017 L 430.06485,11.321017 L 427.11185,7.0530167 L 428.87585,7.0530167 L 428.87585,7.0540167 z "
           id="path3510" />
        <path
           d="M 434.95285,3.3050167 L 434.95285,4.3850167 L 427.02985,4.3850167 L 427.02985,3.3050167 L 434.95285,3.3050167 z "
           id="path3514" />
        <path
           style="fill:#606060"
           d="M 382.78685,305.02102 C 382.46685,305.42002 381.88785,305.80002 381.26785,305.80002 C 380.68785,305.80002 380.30885,305.57102 379.98885,305.43102 C 379.68885,305.31102 379.34885,305.09102 378.84885,305.09102 C 378.38985,305.09102 377.93985,305.40102 377.66985,305.68102 L 377.31985,305.26102 C 377.63985,304.88102 378.21885,304.49102 378.84885,304.49102 C 379.43885,304.49102 379.79885,304.72002 380.12785,304.85002 C 380.42785,304.98002 380.75785,305.19002 381.25685,305.19002 C 381.71685,305.19002 382.16685,304.87102 382.41685,304.61002 L 382.78685,305.02102 z M 382.82685,306.99002 C 382.50685,307.40002 381.91685,307.78002 381.29785,307.78002 C 380.72885,307.78002 380.35885,307.55002 380.02885,307.42002 C 379.72885,307.30102 379.38885,307.08002 378.87985,307.08002 C 378.43985,307.08002 377.98085,307.38002 377.71085,307.67002 L 377.37085,307.24002 C 377.68085,306.86002 378.26985,306.48002 378.88985,306.48002 C 379.47985,306.48002 379.83985,306.70002 380.16885,306.84002 C 380.46885,306.96002 380.80885,307.18002 381.29785,307.18002 C 381.76785,307.18002 382.21685,306.88002 382.46685,306.59002 L 382.82685,306.99002 z "
           id="path3518" />
        <path
           style="fill:#606060"
           d="M 389.93785,305.45102 C 389.93785,307.66002 389.11785,308.88002 387.67885,308.88002 C 386.40885,308.88002 385.54985,307.69102 385.52985,305.54102 C 385.52985,303.36202 386.46885,302.16302 387.78885,302.16302 C 389.15785,302.16302 389.93785,303.38202 389.93785,305.45102 z M 386.40985,305.55102 C 386.40985,307.23902 386.92985,308.19902 387.72885,308.19902 C 388.62785,308.19902 389.05785,307.14902 389.05785,305.49002 C 389.05785,303.89102 388.64785,302.84202 387.73885,302.84202 C 386.96885,302.84202 386.40985,303.78202 386.40985,305.55102 z "
           id="path3520" />
        <path
           style="fill:#606060"
           d="M 391.39985,308.87902 C 391.05985,308.87902 390.81985,308.60802 390.81985,308.24902 C 390.81985,307.87902 391.06985,307.61902 391.41985,307.61902 C 391.76985,307.61902 392.00885,307.87902 392.00885,308.24902 C 392.00885,308.60802 391.77885,308.87902 391.40885,308.87902 L 391.39985,308.87902 z "
           id="path3522" />
        <path
           style="fill:#606060"
           d="M 393.02985,307.75902 C 393.27985,307.91902 393.85985,308.16902 394.46885,308.16902 C 395.59785,308.16902 395.94785,307.44902 395.93785,306.90902 C 395.92785,306.00002 395.10785,305.61002 394.25885,305.61002 L 393.76885,305.61002 L 393.76885,304.95002 L 394.25885,304.95002 C 394.89885,304.95002 395.70785,304.62102 395.70785,303.85102 C 395.70785,303.33002 395.37785,302.87202 394.56785,302.87202 C 394.04785,302.87202 393.54785,303.10102 393.26885,303.30202 L 393.03885,302.66202 C 393.37885,302.41202 394.03885,302.16202 394.73785,302.16202 C 396.01685,302.16202 396.59685,302.92202 396.59685,303.71102 C 396.59685,304.38102 396.19785,304.95002 395.39785,305.24002 L 395.39785,305.26102 C 396.19785,305.42002 396.84685,306.02102 396.84685,306.93002 C 396.84685,307.96902 396.03685,308.87902 394.47785,308.87902 C 393.74885,308.87902 393.10885,308.64902 392.78885,308.43902 L 393.02985,307.75902 z "
           id="path3524" />
        <path
           style="fill:#606060"
           d="M 400.66785,308.76902 L 400.66785,307.00002 L 397.64985,307.00002 L 397.64985,306.42002 L 400.54785,302.27302 L 401.49785,302.27302 L 401.49785,306.31002 L 402.40685,306.31002 L 402.40685,307.00002 L 401.49785,307.00002 L 401.49785,308.76902 L 400.66785,308.76902 z M 400.66785,306.31002 L 400.66785,304.14102 C 400.66785,303.80202 400.67885,303.46202 400.69785,303.12202 L 400.66785,303.12202 C 400.46885,303.50102 400.30885,303.78102 400.12885,304.08102 L 398.53985,306.29002 L 398.53985,306.31002 L 400.66785,306.31002 z "
           id="path3526" />
        <path
           style="fill:#606060"
           d="M 404.98785,303.09202 L 404.96785,303.09202 L 403.83785,303.70102 L 403.66785,303.03102 L 405.08785,302.27202 L 405.83685,302.27202 L 405.83685,308.76802 L 404.98685,308.76802 L 404.98685,303.09202 L 404.98785,303.09202 z "
           id="path3528" />
        <path
           style="fill:#606060"
           d="M 408.41885,307.75902 C 408.66885,307.91902 409.24885,308.16902 409.85785,308.16902 C 410.98785,308.16902 411.33685,307.44902 411.32785,306.90902 C 411.31685,306.00002 410.49785,305.61002 409.64785,305.61002 L 409.15885,305.61002 L 409.15885,304.95002 L 409.64785,304.95002 C 410.28785,304.95002 411.09685,304.62102 411.09685,303.85102 C 411.09685,303.33002 410.76785,302.87202 409.95785,302.87202 C 409.43685,302.87202 408.93785,303.10102 408.65785,303.30202 L 408.42885,302.66202 C 408.76885,302.41202 409.42785,302.16202 410.12785,302.16202 C 411.40685,302.16202 411.98585,302.92202 411.98585,303.71102 C 411.98585,304.38102 411.58685,304.95002 410.78685,305.24002 L 410.78685,305.26102 C 411.58685,305.42002 412.23585,306.02102 412.23585,306.93002 C 412.23585,307.96902 411.42585,308.87902 409.86685,308.87902 C 409.13785,308.87902 408.49785,308.64902 408.17885,308.43902 L 408.41885,307.75902 z "
           id="path3530" />
        <path
           style="fill:#606060"
           d="M 310.78685,305.02102 C 310.46685,305.42002 309.88785,305.80002 309.26785,305.80002 C 308.68785,305.80002 308.30885,305.57102 307.98885,305.43102 C 307.68885,305.31102 307.34885,305.09102 306.84885,305.09102 C 306.38985,305.09102 305.93985,305.40102 305.66985,305.68102 L 305.31985,305.26102 C 305.63985,304.88102 306.21885,304.49102 306.84885,304.49102 C 307.43885,304.49102 307.79885,304.72002 308.12785,304.85002 C 308.42785,304.98002 308.75785,305.19002 309.25685,305.19002 C 309.71685,305.19002 310.16685,304.87102 310.41685,304.61002 L 310.78685,305.02102 z M 310.82685,306.99002 C 310.50685,307.40002 309.91685,307.78002 309.29785,307.78002 C 308.72885,307.78002 308.35885,307.55002 308.02885,307.42002 C 307.72885,307.30102 307.38885,307.08002 306.87985,307.08002 C 306.43985,307.08002 305.98085,307.38002 305.71085,307.67002 L 305.37085,307.24002 C 305.68085,306.86002 306.26985,306.48002 306.88985,306.48002 C 307.47985,306.48002 307.83985,306.70002 308.16885,306.84002 C 308.46885,306.96002 308.80885,307.18002 309.29785,307.18002 C 309.76785,307.18002 310.21685,306.88002 310.46685,306.59002 L 310.82685,306.99002 z "
           id="path3534" />
        <path
           style="fill:#606060"
           d="M 317.93785,305.45102 C 317.93785,307.66002 317.11785,308.88002 315.67885,308.88002 C 314.40885,308.88002 313.54985,307.69102 313.52985,305.54102 C 313.52985,303.36202 314.46885,302.16302 315.78885,302.16302 C 317.15785,302.16302 317.93785,303.38202 317.93785,305.45102 z M 314.40985,305.55102 C 314.40985,307.23902 314.92985,308.19902 315.72885,308.19902 C 316.62785,308.19902 317.05785,307.14902 317.05785,305.49002 C 317.05785,303.89102 316.64785,302.84202 315.73885,302.84202 C 314.96885,302.84202 314.40985,303.78202 314.40985,305.55102 z "
           id="path3536" />
        <path
           style="fill:#606060"
           d="M 319.39985,308.87902 C 319.05985,308.87902 318.81985,308.60802 318.81985,308.24902 C 318.81985,307.87902 319.06985,307.61902 319.41985,307.61902 C 319.76985,307.61902 320.00885,307.87902 320.00885,308.24902 C 320.00885,308.60802 319.77885,308.87902 319.40885,308.87902 L 319.39985,308.87902 z "
           id="path3538" />
        <path
           style="fill:#606060"
           d="M 322.72885,303.09202 L 322.70885,303.09202 L 321.57985,303.70102 L 321.40985,303.03102 L 322.82885,302.27202 L 323.57885,302.27202 L 323.57885,308.76802 L 322.72985,308.76802 L 322.72985,303.09202 L 322.72885,303.09202 z "
           id="path3540" />
        <path
           style="fill:#606060"
           d="M 326.15885,307.75902 C 326.40885,307.91902 326.98885,308.16902 327.59785,308.16902 C 328.72785,308.16902 329.07685,307.44902 329.06785,306.90902 C 329.05685,306.00002 328.23785,305.61002 327.38885,305.61002 L 326.89885,305.61002 L 326.89885,304.95002 L 327.38885,304.95002 C 328.02785,304.95002 328.83785,304.62102 328.83785,303.85102 C 328.83785,303.33002 328.50885,302.87202 327.69885,302.87202 C 327.17885,302.87202 326.67885,303.10102 326.39885,303.30202 L 326.16885,302.66202 C 326.50885,302.41202 327.16885,302.16202 327.86885,302.16202 C 329.14785,302.16202 329.72685,302.92202 329.72685,303.71102 C 329.72685,304.38102 329.32785,304.95002 328.52785,305.24002 L 328.52785,305.26102 C 329.32785,305.42002 329.97685,306.02102 329.97685,306.93002 C 329.97685,307.96902 329.16685,308.87902 327.60785,308.87902 C 326.87885,308.87902 326.23885,308.64902 325.91985,308.43902 L 326.15885,307.75902 z "
           id="path3542" />
        <path
           style="fill:#606060"
           d="M 334.95685,303.01202 L 332.47785,303.01202 L 332.22785,304.68102 C 332.37785,304.66102 332.51785,304.64102 332.75785,304.64102 C 333.25785,304.64102 333.75685,304.75102 334.15685,304.99102 C 334.66685,305.28102 335.08685,305.84102 335.08685,306.66102 C 335.08685,307.93002 334.07685,308.88002 332.66785,308.88002 C 331.95785,308.88002 331.35785,308.68002 331.04885,308.48002 L 331.26885,307.81102 C 331.53885,307.97002 332.06885,308.17002 332.65885,308.17002 C 333.48785,308.17002 334.19785,307.63002 334.19785,306.76102 C 334.18685,305.92102 333.62785,305.32202 332.32885,305.32202 C 331.95885,305.32202 331.66885,305.36202 331.42985,305.39202 L 331.84985,302.27402 L 334.95685,302.27402 L 334.95685,303.01202 z "
           id="path3544" />
        <path
           style="fill:#606060"
           d="M 336.71885,308.14902 C 336.90885,308.17002 337.12885,308.14902 337.42885,308.12002 C 337.93885,308.05002 338.41785,307.84002 338.78785,307.49002 C 339.21785,307.10002 339.52685,306.53102 339.64685,305.76102 L 339.61685,305.76102 C 339.25785,306.20102 338.73785,306.46102 338.08885,306.46102 C 336.91885,306.46102 336.16985,305.58102 336.16985,304.47202 C 336.16985,303.24302 337.05885,302.16302 338.38885,302.16302 C 339.71785,302.16302 340.53685,303.24202 340.53685,304.90102 C 340.53685,306.33102 340.05785,307.33002 339.41785,307.95002 C 338.91785,308.43902 338.22885,308.73902 337.52785,308.81902 C 337.20885,308.86902 336.92785,308.88002 336.71785,308.86902 L 336.71785,308.14902 L 336.71885,308.14902 z M 338.30785,302.83202 C 337.56785,302.83202 337.03785,303.49102 337.03785,304.41102 C 337.03785,305.22102 337.52685,305.79002 338.28685,305.79002 C 338.87685,305.79002 339.33685,305.50002 339.56585,305.11002 C 339.61585,305.03002 339.64585,304.93002 339.64585,304.79102 C 339.64585,303.68202 339.23685,302.83202 338.31685,302.83202 L 338.30785,302.83202 z "
           id="path3546" />
        <path
           style="fill:#606060"
           d="M 526.78685,305.02102 C 526.46785,305.42002 525.88885,305.80002 525.26785,305.80002 C 524.68885,305.80002 524.30785,305.57102 523.98885,305.43102 C 523.68885,305.31102 523.34885,305.09102 522.84885,305.09102 C 522.38985,305.09102 521.93985,305.40102 521.66885,305.68102 L 521.31885,305.26102 C 521.63885,304.88102 522.21885,304.49102 522.84785,304.49102 C 523.43785,304.49102 523.79685,304.72002 524.12685,304.85002 C 524.42785,304.98002 524.75685,305.19002 525.25585,305.19002 C 525.71685,305.19002 526.16585,304.87102 526.41585,304.61002 L 526.78685,305.02102 z M 526.82785,306.99002 C 526.50785,307.40002 525.91785,307.78002 525.29885,307.78002 C 524.72885,307.78002 524.35985,307.55002 524.02885,307.42002 C 523.72885,307.30102 523.38885,307.08002 522.87985,307.08002 C 522.43985,307.08002 521.98085,307.38002 521.71085,307.67002 L 521.37085,307.24002 C 521.68085,306.86002 522.26885,306.48002 522.88985,306.48002 C 523.47985,306.48002 523.83985,306.70002 524.16885,306.84002 C 524.46885,306.96002 524.80885,307.18002 525.29885,307.18002 C 525.76785,307.18002 526.21785,306.88002 526.46785,306.59002 L 526.82785,306.99002 z "
           id="path3550" />
        <path
           style="fill:#606060"
           d="M 533.93785,305.45102 C 533.93785,307.66002 533.11885,308.88002 531.67885,308.88002 C 530.40885,308.88002 529.54985,307.69102 529.53085,305.54102 C 529.53085,303.36202 530.46985,302.16302 531.78885,302.16302 C 533.15785,302.16302 533.93785,303.38202 533.93785,305.45102 z M 530.40985,305.55102 C 530.40985,307.23902 530.92985,308.19902 531.72885,308.19902 C 532.62785,308.19902 533.05785,307.14902 533.05785,305.49002 C 533.05785,303.89102 532.64785,302.84202 531.73885,302.84202 C 530.96885,302.84202 530.40985,303.78202 530.40985,305.55102 z "
           id="path3552" />
        <path
           style="fill:#606060"
           d="M 535.39985,308.87902 C 535.05985,308.87902 534.81985,308.60802 534.81985,308.24902 C 534.81985,307.87902 535.06985,307.61902 535.41985,307.61902 C 535.76985,307.61902 536.00985,307.87902 536.00985,308.24902 C 536.00985,308.60802 535.77985,308.87902 535.40985,308.87902 L 535.39985,308.87902 z "
           id="path3554" />
        <path
           style="fill:#606060"
           d="M 538.72785,303.09202 L 538.70785,303.09202 L 537.57885,303.70102 L 537.40885,303.03102 L 538.82685,302.27202 L 539.57685,302.27202 L 539.57685,308.76802 L 538.72685,308.76802 L 538.72685,303.09202 L 538.72785,303.09202 z "
           id="path3556" />
        <path
           style="fill:#606060"
           d="M 542.15985,307.75902 C 542.40985,307.91902 542.98885,308.16902 543.59785,308.16902 C 544.72785,308.16902 545.07685,307.44902 545.06785,306.90902 C 545.05685,306.00002 544.23785,305.61002 543.38785,305.61002 L 542.89885,305.61002 L 542.89885,304.95002 L 543.38785,304.95002 C 544.02785,304.95002 544.83685,304.62102 544.83685,303.85102 C 544.83685,303.33002 544.50785,302.87202 543.69785,302.87202 C 543.17785,302.87202 542.67785,303.10102 542.39785,303.30202 L 542.16885,302.66202 C 542.50885,302.41202 543.16785,302.16202 543.86785,302.16202 C 545.14685,302.16202 545.72585,302.92202 545.72585,303.71102 C 545.72585,304.38102 545.32685,304.95002 544.52685,305.24002 L 544.52685,305.26102 C 545.32685,305.42002 545.97585,306.02102 545.97585,306.93002 C 545.97585,307.96902 545.16585,308.87902 543.60685,308.87902 C 542.87785,308.87902 542.23885,308.64902 541.91885,308.43902 L 542.15985,307.75902 z "
           id="path3558" />
        <path
           style="fill:#606060"
           d="M 550.95685,303.01202 L 548.47785,303.01202 L 548.22785,304.68102 C 548.37785,304.66102 548.51785,304.64102 548.75785,304.64102 C 549.25785,304.64102 549.75685,304.75102 550.15685,304.99102 C 550.66685,305.28102 551.08685,305.84102 551.08685,306.66102 C 551.08685,307.93002 550.07685,308.88002 548.66785,308.88002 C 547.95785,308.88002 547.35785,308.68002 547.04885,308.48002 L 547.26885,307.81102 C 547.53885,307.97002 548.06885,308.17002 548.65885,308.17002 C 549.48785,308.17002 550.19785,307.63002 550.19785,306.76102 C 550.18685,305.92102 549.62785,305.32202 548.32885,305.32202 C 547.95885,305.32202 547.66885,305.36202 547.42985,305.39202 L 547.84985,302.27402 L 550.95685,302.27402 L 550.95685,303.01202 L 550.95685,303.01202 z "
           id="path3560" />
        <path
           style="fill:#606060"
           d="M 552.71885,308.14902 C 552.90885,308.17002 553.12885,308.14902 553.42885,308.12002 C 553.93885,308.05002 554.41785,307.84002 554.78785,307.49002 C 555.21785,307.10002 555.52685,306.53102 555.64685,305.76102 L 555.61685,305.76102 C 555.25785,306.20102 554.73785,306.46102 554.08885,306.46102 C 552.91885,306.46102 552.16985,305.58102 552.16985,304.47202 C 552.16985,303.24302 553.05885,302.16302 554.38885,302.16302 C 555.71785,302.16302 556.53685,303.24202 556.53685,304.90102 C 556.53685,306.33102 556.05785,307.33002 555.41785,307.95002 C 554.91785,308.43902 554.22885,308.73902 553.52785,308.81902 C 553.20885,308.86902 552.92785,308.88002 552.71785,308.86902 L 552.71785,308.14902 L 552.71885,308.14902 z M 554.30785,302.83202 C 553.56785,302.83202 553.03785,303.49102 553.03785,304.41102 C 553.03785,305.22102 553.52685,305.79002 554.28685,305.79002 C 554.87685,305.79002 555.33685,305.50002 555.56585,305.11002 C 555.61585,305.03002 555.64585,304.93002 555.64585,304.79102 C 555.64585,303.68202 555.23685,302.83202 554.31685,302.83202 L 554.30785,302.83202 z "
           id="path3562" />
        <path
           style="fill:#606060"
           d="M 238.78685,305.02102 C 238.46685,305.42002 237.88785,305.80002 237.26785,305.80002 C 236.68785,305.80002 236.30885,305.57102 235.98885,305.43102 C 235.68885,305.31102 235.34885,305.09102 234.84885,305.09102 C 234.38985,305.09102 233.93985,305.40102 233.66985,305.68102 L 233.31985,305.26102 C 233.63985,304.88102 234.21885,304.49102 234.84885,304.49102 C 235.43885,304.49102 235.79885,304.72002 236.12785,304.85002 C 236.42785,304.98002 236.75785,305.19002 237.25685,305.19002 C 237.71685,305.19002 238.16685,304.87102 238.41685,304.61002 L 238.78685,305.02102 z M 238.82685,306.99002 C 238.50685,307.40002 237.91685,307.78002 237.29785,307.78002 C 236.72885,307.78002 236.35885,307.55002 236.02885,307.42002 C 235.72885,307.30102 235.38885,307.08002 234.87985,307.08002 C 234.43985,307.08002 233.98085,307.38002 233.71085,307.67002 L 233.37085,307.24002 C 233.68085,306.86002 234.26985,306.48002 234.88985,306.48002 C 235.47985,306.48002 235.83985,306.70002 236.16885,306.84002 C 236.46885,306.96002 236.80885,307.18002 237.29785,307.18002 C 237.76785,307.18002 238.21685,306.88002 238.46685,306.59002 L 238.82685,306.99002 z "
           id="path3566" />
        <path
           style="fill:#606060"
           d="M 245.93785,305.45102 C 245.93785,307.66002 245.11785,308.88002 243.67885,308.88002 C 242.40885,308.88002 241.54985,307.69102 241.52985,305.54102 C 241.52985,303.36202 242.46885,302.16302 243.78885,302.16302 C 245.15785,302.16302 245.93785,303.38202 245.93785,305.45102 z M 242.40985,305.55102 C 242.40985,307.23902 242.92985,308.19902 243.72885,308.19902 C 244.62785,308.19902 245.05785,307.14902 245.05785,305.49002 C 245.05785,303.89102 244.64785,302.84202 243.73885,302.84202 C 242.96885,302.84202 242.40985,303.78202 242.40985,305.55102 z "
           id="path3568" />
        <path
           style="fill:#606060"
           d="M 247.39985,308.87902 C 247.05985,308.87902 246.81985,308.60802 246.81985,308.24902 C 246.81985,307.87902 247.06985,307.61902 247.41985,307.61902 C 247.76985,307.61902 248.00885,307.87902 248.00885,308.24902 C 248.00885,308.60802 247.77885,308.87902 247.40885,308.87902 L 247.39985,308.87902 z "
           id="path3570" />
        <path
           style="fill:#606060"
           d="M 253.13685,305.45102 C 253.13685,307.66002 252.31685,308.88002 250.87785,308.88002 C 249.60785,308.88002 248.74885,307.69102 248.72885,305.54102 C 248.72885,303.36202 249.66785,302.16302 250.98785,302.16302 C 252.35785,302.16302 253.13685,303.38202 253.13685,305.45102 z M 249.60885,305.55102 C 249.60885,307.23902 250.12885,308.19902 250.92785,308.19902 C 251.82685,308.19902 252.25685,307.14902 252.25685,305.49002 C 252.25685,303.89102 251.84685,302.84202 250.93785,302.84202 C 250.16885,302.84202 249.60885,303.78202 249.60885,305.55102 z "
           id="path3572" />
        <path
           style="fill:#606060"
           d="M 253.94885,308.76902 L 253.94885,308.22902 L 254.63785,307.56002 C 256.29785,305.98102 257.04685,305.14102 257.05585,304.16202 C 257.05585,303.50202 256.73685,302.89202 255.76685,302.89202 C 255.17785,302.89202 254.68785,303.19202 254.38785,303.44202 L 254.10785,302.82302 C 254.55785,302.44302 255.19685,302.16302 255.94585,302.16302 C 257.34485,302.16302 257.93485,303.12302 257.93485,304.05202 C 257.93485,305.25202 257.06585,306.22102 255.69685,307.54002 L 255.17685,308.01902 L 255.17685,308.04002 L 258.09485,308.04002 L 258.09485,308.76902 L 253.94885,308.76902 L 253.94885,308.76902 z "
           id="path3574" />
        <path
           style="fill:#606060"
           d="M 260.98785,303.09202 L 260.96785,303.09202 L 259.83785,303.70102 L 259.66785,303.03102 L 261.08785,302.27202 L 261.83685,302.27202 L 261.83685,308.76802 L 260.98685,308.76802 L 260.98685,303.09202 L 260.98785,303.09202 z "
           id="path3576" />
        <path
           style="fill:#606060"
           d="M 266.92785,308.76902 L 266.92785,307.00002 L 263.90985,307.00002 L 263.90985,306.42002 L 266.80685,302.27302 L 267.75685,302.27302 L 267.75685,306.31002 L 268.66585,306.31002 L 268.66585,307.00002 L 267.75685,307.00002 L 267.75685,308.76902 L 266.92785,308.76902 z M 266.92785,306.31002 L 266.92785,304.14102 C 266.92785,303.80202 266.93885,303.46202 266.95785,303.12202 L 266.92785,303.12202 C 266.72885,303.50102 266.56885,303.78102 266.38885,304.08102 L 264.79885,306.29002 L 264.79885,306.31002 L 266.92785,306.31002 z "
           id="path3578" />
        <path
           style="fill:#606060"
           d="M 598.78685,305.02102 C 598.46785,305.42002 597.88885,305.80002 597.26785,305.80002 C 596.68885,305.80002 596.30785,305.57102 595.98885,305.43102 C 595.68885,305.31102 595.34885,305.09102 594.84885,305.09102 C 594.38985,305.09102 593.93985,305.40102 593.66885,305.68102 L 593.31885,305.26102 C 593.63885,304.88102 594.21885,304.49102 594.84785,304.49102 C 595.43785,304.49102 595.79685,304.72002 596.12685,304.85002 C 596.42785,304.98002 596.75685,305.19002 597.25585,305.19002 C 597.71685,305.19002 598.16585,304.87102 598.41585,304.61002 L 598.78685,305.02102 z M 598.82785,306.99002 C 598.50785,307.40002 597.91785,307.78002 597.29885,307.78002 C 596.72885,307.78002 596.35985,307.55002 596.02885,307.42002 C 595.72885,307.30102 595.38885,307.08002 594.87985,307.08002 C 594.43985,307.08002 593.98085,307.38002 593.71085,307.67002 L 593.37085,307.24002 C 593.68085,306.86002 594.26885,306.48002 594.88985,306.48002 C 595.47985,306.48002 595.83985,306.70002 596.16885,306.84002 C 596.46885,306.96002 596.80885,307.18002 597.29885,307.18002 C 597.76785,307.18002 598.21785,306.88002 598.46785,306.59002 L 598.82785,306.99002 z "
           id="path3582" />
        <path
           style="fill:#606060"
           d="M 605.93785,305.45102 C 605.93785,307.66002 605.11885,308.88002 603.67885,308.88002 C 602.40885,308.88002 601.54985,307.69102 601.53085,305.54102 C 601.53085,303.36202 602.46985,302.16302 603.78885,302.16302 C 605.15785,302.16302 605.93785,303.38202 605.93785,305.45102 z M 602.40985,305.55102 C 602.40985,307.23902 602.92985,308.19902 603.72885,308.19902 C 604.62785,308.19902 605.05785,307.14902 605.05785,305.49002 C 605.05785,303.89102 604.64785,302.84202 603.73885,302.84202 C 602.96885,302.84202 602.40985,303.78202 602.40985,305.55102 z "
           id="path3584" />
        <path
           style="fill:#606060"
           d="M 607.39985,308.87902 C 607.05985,308.87902 606.81985,308.60802 606.81985,308.24902 C 606.81985,307.87902 607.06985,307.61902 607.41985,307.61902 C 607.76985,307.61902 608.00985,307.87902 608.00985,308.24902 C 608.00985,308.60802 607.77985,308.87902 607.40985,308.87902 L 607.39985,308.87902 z "
           id="path3586" />
        <path
           style="fill:#606060"
           d="M 613.13685,305.45102 C 613.13685,307.66002 612.31785,308.88002 610.87785,308.88002 C 609.60785,308.88002 608.74885,307.69102 608.72985,305.54102 C 608.72985,303.36202 609.66885,302.16302 610.98785,302.16302 C 612.35685,302.16302 613.13685,303.38202 613.13685,305.45102 z M 609.60885,305.55102 C 609.60885,307.23902 610.12885,308.19902 610.92785,308.19902 C 611.82685,308.19902 612.25685,307.14902 612.25685,305.49002 C 612.25685,303.89102 611.84685,302.84202 610.93785,302.84202 C 610.16885,302.84202 609.60885,303.78202 609.60885,305.55102 z "
           id="path3588" />
        <path
           style="fill:#606060"
           d="M 613.94885,308.76902 L 613.94885,308.22902 L 614.63785,307.56002 C 616.29785,305.98102 617.04685,305.14102 617.05685,304.16202 C 617.05685,303.50202 616.73785,302.89202 615.76785,302.89202 C 615.17885,302.89202 614.68885,303.19202 614.38885,303.44202 L 614.10885,302.82302 C 614.55885,302.44302 615.19885,302.16302 615.94785,302.16302 C 617.34685,302.16302 617.93685,303.12302 617.93685,304.05202 C 617.93685,305.25202 617.06785,306.22102 615.69885,307.54002 L 615.17885,308.01902 L 615.17885,308.04002 L 618.09685,308.04002 L 618.09685,308.76902 L 613.94885,308.76902 L 613.94885,308.76902 z "
           id="path3590" />
        <path
           style="fill:#606060"
           d="M 620.98785,303.09202 L 620.96785,303.09202 L 619.83785,303.70102 L 619.66785,303.03102 L 621.08785,302.27202 L 621.83685,302.27202 L 621.83685,308.76802 L 620.98685,308.76802 L 620.98685,303.09202 L 620.98785,303.09202 z "
           id="path3592" />
        <path
           style="fill:#606060"
           d="M 626.92785,308.76902 L 626.92785,307.00002 L 623.90985,307.00002 L 623.90985,306.42002 L 626.80685,302.27302 L 627.75685,302.27302 L 627.75685,306.31002 L 628.66585,306.31002 L 628.66585,307.00002 L 627.75685,307.00002 L 627.75685,308.76902 L 626.92785,308.76902 z M 626.92785,306.31002 L 626.92785,304.14102 C 626.92785,303.80202 626.93885,303.46202 626.95785,303.12202 L 626.92785,303.12202 C 626.72885,303.50102 626.56885,303.78102 626.38885,304.08102 L 624.79885,306.29002 L 624.79885,306.31002 L 626.92785,306.31002 z "
           id="path3594" />
        <g
           transform="translate(-1.0101525,-72.730983)"
           id="g3598">
			<path
   style="fill:#606060"
   d="M 167.797,377.752 C 167.477,378.151 166.898,378.531 166.278,378.531 C 165.698,378.531 165.319,378.302 164.999,378.162 C 164.699,378.042 164.359,377.822 163.859,377.822 C 163.4,377.822 162.95,378.132 162.68,378.412 L 162.33,377.992 C 162.65,377.612 163.229,377.222 163.859,377.222 C 164.449,377.222 164.809,377.451 165.138,377.581 C 165.438,377.711 165.768,377.921 166.267,377.921 C 166.727,377.921 167.177,377.602 167.427,377.341 L 167.797,377.752 z M 167.837,379.721 C 167.517,380.131 166.927,380.511 166.308,380.511 C 165.739,380.511 165.369,380.281 165.039,380.151 C 164.739,380.032 164.399,379.811 163.89,379.811 C 163.45,379.811 162.991,380.111 162.721,380.401 L 162.381,379.971 C 162.691,379.591 163.28,379.211 163.9,379.211 C 164.49,379.211 164.85,379.431 165.179,379.571 C 165.479,379.691 165.819,379.911 166.308,379.911 C 166.778,379.911 167.227,379.611 167.477,379.321 L 167.837,379.721 z "
   id="path3600" />

			<path
   style="fill:#606060"
   d="M 174.948,378.182 C 174.948,380.391 174.128,381.611 172.689,381.611 C 171.419,381.611 170.56,380.422 170.54,378.272 C 170.54,376.093 171.479,374.894 172.799,374.894 C 174.168,374.894 174.948,376.113 174.948,378.182 z M 171.42,378.282 C 171.42,379.97 171.94,380.93 172.739,380.93 C 173.638,380.93 174.068,379.88 174.068,378.221 C 174.068,376.622 173.658,375.573 172.749,375.573 C 171.979,375.573 171.42,376.513 171.42,378.282 z "
   id="path3602" />

			<path
   style="fill:#606060"
   d="M 176.41,381.61 C 176.07,381.61 175.83,381.339 175.83,380.98 C 175.83,380.61 176.08,380.35 176.43,380.35 C 176.78,380.35 177.019,380.61 177.019,380.98 C 177.019,381.339 176.789,381.61 176.419,381.61 L 176.41,381.61 z "
   id="path3604" />

			<path
   style="fill:#606060"
   d="M 182.147,378.182 C 182.147,380.391 181.327,381.611 179.888,381.611 C 178.618,381.611 177.759,380.422 177.739,378.272 C 177.739,376.093 178.678,374.894 179.998,374.894 C 181.368,374.894 182.147,376.113 182.147,378.182 z M 178.619,378.282 C 178.619,379.97 179.139,380.93 179.938,380.93 C 180.837,380.93 181.267,379.88 181.267,378.221 C 181.267,376.622 180.857,375.573 179.948,375.573 C 179.179,375.573 178.619,376.513 178.619,378.282 z "
   id="path3606" />

			<path
   style="fill:#606060"
   d="M 187.277,378.182 C 187.277,380.391 186.458,381.611 185.018,381.611 C 183.748,381.611 182.889,380.422 182.869,378.272 C 182.869,376.093 183.808,374.894 185.127,374.894 C 186.498,374.894 187.277,376.113 187.277,378.182 z M 183.749,378.282 C 183.749,379.97 184.269,380.93 185.068,380.93 C 185.967,380.93 186.397,379.88 186.397,378.221 C 186.397,376.622 185.988,375.573 185.078,375.573 C 184.309,375.573 183.749,376.513 183.749,378.282 z "
   id="path3608" />

			<path
   style="fill:#606060"
   d="M 189.998,375.823 L 189.978,375.823 L 188.848,376.432 L 188.678,375.762 L 190.098,375.003 L 190.847,375.003 L 190.847,381.499 L 189.997,381.499 L 189.997,375.823 L 189.998,375.823 z "
   id="path3610" />

			<path
   style="fill:#606060"
   d="M 193.429,380.49 C 193.679,380.65 194.259,380.9 194.868,380.9 C 195.998,380.9 196.347,380.18 196.338,379.64 C 196.327,378.731 195.508,378.341 194.658,378.341 L 194.169,378.341 L 194.169,377.681 L 194.658,377.681 C 195.298,377.681 196.107,377.352 196.107,376.582 C 196.107,376.061 195.778,375.603 194.968,375.603 C 194.447,375.603 193.948,375.832 193.668,376.033 L 193.439,375.393 C 193.779,375.143 194.438,374.893 195.138,374.893 C 196.417,374.893 196.996,375.653 196.996,376.442 C 196.996,377.112 196.597,377.681 195.797,377.971 L 195.797,377.992 C 196.597,378.151 197.246,378.752 197.246,379.661 C 197.246,380.7 196.436,381.61 194.877,381.61 C 194.148,381.61 193.508,381.38 193.189,381.17 L 193.429,380.49 z "
   id="path3612" />

		</g>
        <path
           style="fill:#606060"
           d="M 670.78685,305.02102 C 670.46785,305.42002 669.88885,305.80002 669.26785,305.80002 C 668.68885,305.80002 668.30785,305.57102 667.98885,305.43102 C 667.68885,305.31102 667.34885,305.09102 666.84885,305.09102 C 666.38985,305.09102 665.93985,305.40102 665.66885,305.68102 L 665.31885,305.26102 C 665.63885,304.88102 666.21885,304.49102 666.84785,304.49102 C 667.43785,304.49102 667.79685,304.72002 668.12685,304.85002 C 668.42785,304.98002 668.75685,305.19002 669.25585,305.19002 C 669.71685,305.19002 670.16585,304.87102 670.41585,304.61002 L 670.78685,305.02102 z M 670.82785,306.99002 C 670.50785,307.40002 669.91785,307.78002 669.29885,307.78002 C 668.72885,307.78002 668.35985,307.55002 668.02885,307.42002 C 667.72885,307.30102 667.38885,307.08002 666.87985,307.08002 C 666.43985,307.08002 665.98085,307.38002 665.71085,307.67002 L 665.37085,307.24002 C 665.68085,306.86002 666.26885,306.48002 666.88985,306.48002 C 667.47985,306.48002 667.83985,306.70002 668.16885,306.84002 C 668.46885,306.96002 668.80885,307.18002 669.29885,307.18002 C 669.76785,307.18002 670.21785,306.88002 670.46785,306.59002 L 670.82785,306.99002 z "
           id="path3616" />
        <path
           style="fill:#606060"
           d="M 677.93785,305.45102 C 677.93785,307.66002 677.11885,308.88002 675.67885,308.88002 C 674.40885,308.88002 673.54985,307.69102 673.53085,305.54102 C 673.53085,303.36202 674.46985,302.16302 675.78885,302.16302 C 677.15785,302.16302 677.93785,303.38202 677.93785,305.45102 z M 674.40985,305.55102 C 674.40985,307.23902 674.92985,308.19902 675.72885,308.19902 C 676.62785,308.19902 677.05785,307.14902 677.05785,305.49002 C 677.05785,303.89102 676.64785,302.84202 675.73885,302.84202 C 674.96885,302.84202 674.40985,303.78202 674.40985,305.55102 z "
           id="path3618" />
        <path
           style="fill:#606060"
           d="M 679.39985,308.87902 C 679.05985,308.87902 678.81985,308.60802 678.81985,308.24902 C 678.81985,307.87902 679.06985,307.61902 679.41985,307.61902 C 679.76985,307.61902 680.00985,307.87902 680.00985,308.24902 C 680.00985,308.60802 679.77985,308.87902 679.40985,308.87902 L 679.39985,308.87902 z "
           id="path3620" />
        <path
           style="fill:#606060"
           d="M 685.13685,305.45102 C 685.13685,307.66002 684.31785,308.88002 682.87785,308.88002 C 681.60785,308.88002 680.74885,307.69102 680.72985,305.54102 C 680.72985,303.36202 681.66885,302.16302 682.98785,302.16302 C 684.35685,302.16302 685.13685,303.38202 685.13685,305.45102 z M 681.60885,305.55102 C 681.60885,307.23902 682.12885,308.19902 682.92785,308.19902 C 683.82685,308.19902 684.25685,307.14902 684.25685,305.49002 C 684.25685,303.89102 683.84685,302.84202 682.93785,302.84202 C 682.16885,302.84202 681.60885,303.78202 681.60885,305.55102 z "
           id="path3622" />
        <path
           style="fill:#606060"
           d="M 690.26685,305.45102 C 690.26685,307.66002 689.44785,308.88002 688.00785,308.88002 C 686.73785,308.88002 685.87885,307.69102 685.85885,305.54102 C 685.85885,303.36202 686.79785,302.16302 688.11785,302.16302 C 689.48785,302.16302 690.26685,303.38202 690.26685,305.45102 z M 686.73885,305.55102 C 686.73885,307.23902 687.25885,308.19902 688.05785,308.19902 C 688.95685,308.19902 689.38685,307.14902 689.38685,305.49002 C 689.38685,303.89102 688.97785,302.84202 688.06785,302.84202 C 687.29885,302.84202 686.73885,303.78202 686.73885,305.55102 z "
           id="path3624" />
        <path
           style="fill:#606060"
           d="M 692.98785,303.09202 L 692.96785,303.09202 L 691.83785,303.70102 L 691.66785,303.03102 L 693.08785,302.27202 L 693.83685,302.27202 L 693.83685,308.76802 L 692.98685,308.76802 L 692.98685,303.09202 L 692.98785,303.09202 z "
           id="path3626" />
        <path
           style="fill:#606060"
           d="M 696.41885,307.75902 C 696.66885,307.91902 697.24885,308.16902 697.85785,308.16902 C 698.98785,308.16902 699.33685,307.44902 699.32785,306.90902 C 699.31685,306.00002 698.49785,305.61002 697.64785,305.61002 L 697.15885,305.61002 L 697.15885,304.95002 L 697.64785,304.95002 C 698.28785,304.95002 699.09685,304.62102 699.09685,303.85102 C 699.09685,303.33002 698.76785,302.87202 697.95785,302.87202 C 697.43685,302.87202 696.93785,303.10102 696.65785,303.30202 L 696.42885,302.66202 C 696.76885,302.41202 697.42785,302.16202 698.12785,302.16202 C 699.40685,302.16202 699.98585,302.92202 699.98585,303.71102 C 699.98585,304.38102 699.58685,304.95002 698.78685,305.24002 L 698.78685,305.26102 C 699.58685,305.42002 700.23585,306.02102 700.23585,306.93002 C 700.23585,307.96902 699.42585,308.87902 697.86685,308.87902 C 697.13785,308.87902 696.49785,308.64902 696.17885,308.43902 L 696.41885,307.75902 z "
           id="path3628" />
        <path
           style="fill:#606060"
           d="M 454.78685,305.02102 C 454.46785,305.42002 453.88885,305.80002 453.26785,305.80002 C 452.68885,305.80002 452.30785,305.57102 451.98885,305.43102 C 451.68885,305.31102 451.34885,305.09102 450.84885,305.09102 C 450.38985,305.09102 449.93985,305.40102 449.66885,305.68102 L 449.31885,305.26102 C 449.63885,304.88102 450.21885,304.49102 450.84785,304.49102 C 451.43785,304.49102 451.79685,304.72002 452.12685,304.85002 C 452.42785,304.98002 452.75685,305.19002 453.25585,305.19002 C 453.71685,305.19002 454.16585,304.87102 454.41585,304.61002 L 454.78685,305.02102 z M 454.82785,306.99002 C 454.50785,307.40002 453.91785,307.78002 453.29885,307.78002 C 452.72885,307.78002 452.35985,307.55002 452.02885,307.42002 C 451.72885,307.30102 451.38885,307.08002 450.87985,307.08002 C 450.43985,307.08002 449.98085,307.38002 449.71085,307.67002 L 449.37085,307.24002 C 449.68085,306.86002 450.26885,306.48002 450.88985,306.48002 C 451.47985,306.48002 451.83985,306.70002 452.16885,306.84002 C 452.46885,306.96002 452.80885,307.18002 453.29885,307.18002 C 453.76785,307.18002 454.21785,306.88002 454.46785,306.59002 L 454.82785,306.99002 z "
           id="path3632" />
        <path
           style="fill:#606060"
           d="M 461.93785,305.45102 C 461.93785,307.66002 461.11885,308.88002 459.67885,308.88002 C 458.40885,308.88002 457.54985,307.69102 457.53085,305.54102 C 457.53085,303.36202 458.46985,302.16302 459.78885,302.16302 C 461.15785,302.16302 461.93785,303.38202 461.93785,305.45102 z M 458.40985,305.55102 C 458.40985,307.23902 458.92985,308.19902 459.72885,308.19902 C 460.62785,308.19902 461.05785,307.14902 461.05785,305.49002 C 461.05785,303.89102 460.64785,302.84202 459.73885,302.84202 C 458.96885,302.84202 458.40985,303.78202 458.40985,305.55102 z "
           id="path3634" />
        <path
           style="fill:#606060"
           d="M 463.39985,308.87902 C 463.05985,308.87902 462.81985,308.60802 462.81985,308.24902 C 462.81985,307.87902 463.06985,307.61902 463.41985,307.61902 C 463.76985,307.61902 464.00985,307.87902 464.00985,308.24902 C 464.00985,308.60802 463.77985,308.87902 463.40985,308.87902 L 463.39985,308.87902 z "
           id="path3636" />
        <path
           style="fill:#606060"
           d="M 465.02885,307.75902 C 465.27885,307.91902 465.85885,308.16902 466.46785,308.16902 C 467.59685,308.16902 467.94685,307.44902 467.93685,306.90902 C 467.92685,306.00002 467.10785,305.61002 466.25885,305.61002 L 465.76885,305.61002 L 465.76885,304.95002 L 466.25885,304.95002 C 466.89785,304.95002 467.70785,304.62102 467.70785,303.85102 C 467.70785,303.33002 467.37785,302.87202 466.56685,302.87202 C 466.04685,302.87202 465.54685,303.10102 465.26785,303.30202 L 465.03785,302.66202 C 465.37785,302.41202 466.03785,302.16202 466.73685,302.16202 C 468.01585,302.16202 468.59585,302.92202 468.59585,303.71102 C 468.59585,304.38102 468.19685,304.95002 467.39685,305.24002 L 467.39685,305.26102 C 468.19685,305.42002 468.84585,306.02102 468.84585,306.93002 C 468.84585,307.96902 468.03585,308.87902 466.47685,308.87902 C 465.74785,308.87902 465.10785,308.64902 464.78885,308.43902 L 465.02885,307.75902 z "
           id="path3638" />
        <path
           style="fill:#606060"
           d="M 472.66785,308.76902 L 472.66785,307.00002 L 469.64985,307.00002 L 469.64985,306.42002 L 472.54685,302.27302 L 473.49685,302.27302 L 473.49685,306.31002 L 474.40585,306.31002 L 474.40585,307.00002 L 473.49685,307.00002 L 473.49685,308.76902 L 472.66785,308.76902 z M 472.66785,306.31002 L 472.66785,304.14102 C 472.66785,303.80202 472.67885,303.46202 472.69785,303.12202 L 472.66785,303.12202 C 472.46885,303.50102 472.30885,303.78102 472.12885,304.08102 L 470.53885,306.29002 L 470.53885,306.31002 L 472.66785,306.31002 z "
           id="path3640" />
        <path
           style="fill:#606060"
           d="M 476.98785,303.09202 L 476.96785,303.09202 L 475.83785,303.70102 L 475.66785,303.03102 L 477.08785,302.27202 L 477.83685,302.27202 L 477.83685,308.76802 L 476.98685,308.76802 L 476.98685,303.09202 L 476.98785,303.09202 z "
           id="path3642" />
        <path
           style="fill:#606060"
           d="M 480.41885,307.75902 C 480.66885,307.91902 481.24885,308.16902 481.85785,308.16902 C 482.98785,308.16902 483.33685,307.44902 483.32785,306.90902 C 483.31685,306.00002 482.49785,305.61002 481.64785,305.61002 L 481.15885,305.61002 L 481.15885,304.95002 L 481.64785,304.95002 C 482.28785,304.95002 483.09685,304.62102 483.09685,303.85102 C 483.09685,303.33002 482.76785,302.87202 481.95785,302.87202 C 481.43685,302.87202 480.93785,303.10102 480.65785,303.30202 L 480.42885,302.66202 C 480.76885,302.41202 481.42785,302.16202 482.12785,302.16202 C 483.40685,302.16202 483.98585,302.92202 483.98585,303.71102 C 483.98585,304.38102 483.58685,304.95002 482.78685,305.24002 L 482.78685,305.26102 C 483.58685,305.42002 484.23585,306.02102 484.23585,306.93002 C 484.23585,307.96902 483.42585,308.87902 481.86685,308.87902 C 481.13785,308.87902 480.49785,308.64902 480.17885,308.43902 L 480.41885,307.75902 z "
           id="path3644" />
        <path
           d="M 136.40585,347.13502 L 136.40585,347.91402 L 133.44385,347.91402 L 133.44385,347.13502 L 136.40585,347.13502 z "
           id="path3776" />
        <path
           d="M 140.56985,350.76902 L 140.56985,348.64602 L 136.94785,348.64602 L 136.94785,347.95102 L 140.42685,342.97302 L 141.56585,342.97302 L 141.56585,347.81902 L 142.65685,347.81902 L 142.65685,348.64602 L 141.56585,348.64602 L 141.56585,350.76902 L 140.56985,350.76902 z M 140.56985,347.81902 L 140.56985,345.21602 C 140.56985,344.80802 140.58185,344.40102 140.60585,343.99202 L 140.56985,343.99202 C 140.32985,344.44802 140.13785,344.78402 139.92285,345.14302 L 138.01585,347.79302 L 138.01585,347.81702 L 140.56985,347.81702 L 140.56985,347.81902 z "
           id="path3778" />
        <path
           d="M 144.24285,350.90102 C 143.83485,350.90102 143.54685,350.57802 143.54685,350.14502 C 143.54685,349.70202 143.84685,349.39002 144.26685,349.39002 C 144.68685,349.39002 144.97485,349.70202 144.97485,350.14502 C 144.97485,350.57802 144.69885,350.90102 144.25485,350.90102 L 144.24285,350.90102 z "
           id="path3780" />
        <path
           d="M 151.12785,346.78802 C 151.12785,349.43802 150.14485,350.90102 148.41785,350.90102 C 146.89485,350.90102 145.86285,349.47402 145.83885,346.89502 C 145.83885,344.28102 146.96585,342.84102 148.54885,342.84102 C 150.19285,342.84102 151.12785,344.30402 151.12785,346.78802 z M 146.89485,346.90702 C 146.89485,348.93402 147.51885,350.08602 148.47785,350.08602 C 149.55785,350.08602 150.07285,348.82602 150.07285,346.83602 C 150.07285,344.91702 149.58085,343.65702 148.48985,343.65702 C 147.56585,343.65702 146.89485,344.78502 146.89485,346.90702 z "
           id="path3782" />
        <path
           d="M 208.40585,347.13502 L 208.40585,347.91402 L 205.44385,347.91402 L 205.44385,347.13502 L 208.40585,347.13502 z "
           id="path3786" />
        <path
           d="M 209.55885,349.55802 C 209.85885,349.74902 210.55485,350.04902 211.28585,350.04902 C 212.64085,350.04902 213.06085,349.18602 213.04885,348.53802 C 213.03685,347.44602 212.05285,346.97802 211.03385,346.97802 L 210.44685,346.97802 L 210.44685,346.18702 L 211.03385,346.18702 C 211.80185,346.18702 212.77285,345.79102 212.77285,344.86802 C 212.77285,344.24402 212.37685,343.69202 211.40585,343.69202 C 210.78185,343.69202 210.18185,343.96802 209.84685,344.20802 L 209.57085,343.44002 C 209.97885,343.14002 210.76985,342.84002 211.60985,342.84002 C 213.14485,342.84002 213.84085,343.75102 213.84085,344.69902 C 213.84085,345.50302 213.36085,346.18602 212.40185,346.53402 L 212.40185,346.55702 C 213.36085,346.74902 214.14085,347.46902 214.14085,348.56002 C 214.14085,349.80802 213.16885,350.89902 211.29885,350.89902 C 210.42385,350.89902 209.65585,350.62402 209.27185,350.37202 L 209.55885,349.55802 z "
           id="path3788" />
        <path
           d="M 216.24285,350.90102 C 215.83485,350.90102 215.54685,350.57802 215.54685,350.14502 C 215.54685,349.70202 215.84685,349.39002 216.26685,349.39002 C 216.68685,349.39002 216.97485,349.70202 216.97485,350.14502 C 216.97485,350.57802 216.69885,350.90102 216.25485,350.90102 L 216.24285,350.90102 z "
           id="path3790" />
        <path
           d="M 223.12785,346.78802 C 223.12785,349.43802 222.14485,350.90102 220.41785,350.90102 C 218.89485,350.90102 217.86285,349.47402 217.83885,346.89502 C 217.83885,344.28102 218.96585,342.84102 220.54885,342.84102 C 222.19285,342.84102 223.12785,344.30402 223.12785,346.78802 z M 218.89485,346.90702 C 218.89485,348.93402 219.51885,350.08602 220.47785,350.08602 C 221.55785,350.08602 222.07285,348.82602 222.07285,346.83602 C 222.07285,344.91702 221.58085,343.65702 220.48985,343.65702 C 219.56585,343.65702 218.89485,344.78502 218.89485,346.90702 z "
           id="path3792" />
        <path
           d="M 280.40585,347.13502 L 280.40585,347.91402 L 277.44385,347.91402 L 277.44385,347.13502 L 280.40585,347.13502 z "
           id="path3796" />
        <path
           d="M 281.30685,350.76902 L 281.30685,350.12202 L 282.13485,349.31802 C 284.12585,347.42302 285.02585,346.41602 285.03685,345.24002 C 285.03685,344.44902 284.65285,343.71802 283.48985,343.71802 C 282.78185,343.71802 282.19485,344.07702 281.83485,344.37702 L 281.49885,343.63402 C 282.03885,343.17802 282.80685,342.84202 283.70585,342.84202 C 285.38485,342.84202 286.09285,343.99302 286.09285,345.10902 C 286.09285,346.54802 285.04985,347.71202 283.40585,349.29502 L 282.78185,349.87102 L 282.78185,349.89402 L 286.28385,349.89402 L 286.28385,350.77002 L 281.30685,350.77002 L 281.30685,350.76902 z "
           id="path3798" />
        <path
           d="M 288.24285,350.90102 C 287.83485,350.90102 287.54685,350.57802 287.54685,350.14502 C 287.54685,349.70202 287.84685,349.39002 288.26685,349.39002 C 288.68685,349.39002 288.97485,349.70202 288.97485,350.14502 C 288.97485,350.57802 288.69885,350.90102 288.25485,350.90102 L 288.24285,350.90102 z "
           id="path3800" />
        <path
           d="M 295.12785,346.78802 C 295.12785,349.43802 294.14485,350.90102 292.41785,350.90102 C 290.89485,350.90102 289.86285,349.47402 289.83885,346.89502 C 289.83885,344.28102 290.96585,342.84102 292.54885,342.84102 C 294.19285,342.84102 295.12785,344.30402 295.12785,346.78802 z M 290.89485,346.90702 C 290.89485,348.93402 291.51885,350.08602 292.47785,350.08602 C 293.55785,350.08602 294.07285,348.82602 294.07285,346.83602 C 294.07285,344.91702 293.58085,343.65702 292.48985,343.65702 C 291.56585,343.65702 290.89485,344.78502 290.89485,346.90702 z "
           id="path3802" />
        <path
           d="M 352.40585,347.13502 L 352.40585,347.91402 L 349.44385,347.91402 L 349.44385,347.13502 L 352.40585,347.13502 z "
           id="path3806" />
        <path
           d="M 355.59785,343.95702 L 355.57385,343.95702 L 354.21885,344.68802 L 354.01485,343.88502 L 355.71785,342.97302 L 356.61785,342.97302 L 356.61785,350.76902 L 355.59785,350.76902 L 355.59785,343.95702 L 355.59785,343.95702 z "
           id="path3808" />
        <path
           d="M 360.24285,350.90102 C 359.83485,350.90102 359.54685,350.57802 359.54685,350.14502 C 359.54685,349.70202 359.84685,349.39002 360.26685,349.39002 C 360.68685,349.39002 360.97485,349.70202 360.97485,350.14502 C 360.97485,350.57802 360.69885,350.90102 360.25485,350.90102 L 360.24285,350.90102 z "
           id="path3810" />
        <path
           d="M 367.12785,346.78802 C 367.12785,349.43802 366.14485,350.90102 364.41785,350.90102 C 362.89485,350.90102 361.86285,349.47402 361.83885,346.89502 C 361.83885,344.28102 362.96585,342.84102 364.54885,342.84102 C 366.19285,342.84102 367.12785,344.30402 367.12785,346.78802 z M 362.89485,346.90702 C 362.89485,348.93402 363.51885,350.08602 364.47785,350.08602 C 365.55785,350.08602 366.07285,348.82602 366.07285,346.83602 C 366.07285,344.91702 365.58085,343.65702 364.48985,343.65702 C 363.56585,343.65702 362.89485,344.78502 362.89485,346.90702 z "
           id="path3812" />
        <path
           d="M 432.96685,346.78802 C 432.96685,349.43802 431.98285,350.90102 430.25585,350.90102 C 428.73285,350.90102 427.70085,349.47402 427.67785,346.89502 C 427.67785,344.28102 428.80485,342.84102 430.38785,342.84102 C 432.03085,342.84102 432.96685,344.30402 432.96685,346.78802 z M 428.73185,346.90702 C 428.73185,348.93402 429.35585,350.08602 430.31585,350.08602 C 431.39485,350.08602 431.91085,348.82602 431.91085,346.83602 C 431.91085,344.91702 431.41985,343.65702 430.32785,343.65702 C 429.40385,343.65702 428.73185,344.78502 428.73185,346.90702 z "
           id="path3816" />
        <path
           d="M 495.30785,344.38802 L 495.30785,347.20602 L 498.01685,347.20602 L 498.01685,347.92602 L 495.30785,347.92602 L 495.30785,350.76902 L 494.53985,350.76902 L 494.53985,347.92602 L 491.82885,347.92602 L 491.82885,347.20602 L 494.53985,347.20602 L 494.53985,344.38802 L 495.30785,344.38802 z "
           id="path3820" />
        <path
           d="M 501.33185,343.95702 L 501.30885,343.95702 L 499.95385,344.68802 L 499.75085,343.88502 L 501.45385,342.97302 L 502.35185,342.97302 L 502.35185,350.76902 L 501.33185,350.76902 L 501.33185,343.95702 z "
           id="path3822" />
        <path
           d="M 505.97585,350.90102 C 505.56785,350.90102 505.28085,350.57802 505.28085,350.14502 C 505.28085,349.70202 505.58185,349.39002 506.00185,349.39002 C 506.41985,349.39002 506.70885,349.70202 506.70885,350.14502 C 506.70885,350.57802 506.43385,350.90102 505.98785,350.90102 L 505.97585,350.90102 z "
           id="path3824" />
        <path
           d="M 512.86285,346.78802 C 512.86285,349.43802 511.87885,350.90102 510.15185,350.90102 C 508.62885,350.90102 507.59685,349.47402 507.57385,346.89502 C 507.57385,344.28102 508.70085,342.84102 510.28485,342.84102 C 511.92785,342.84102 512.86285,344.30402 512.86285,346.78802 z M 508.62885,346.90702 C 508.62885,348.93402 509.25385,350.08602 510.21285,350.08602 C 511.29085,350.08602 511.80685,348.82602 511.80685,346.83602 C 511.80685,344.91702 511.31685,343.65702 510.22485,343.65702 C 509.30085,343.65702 508.62885,344.78502 508.62885,346.90702 z "
           id="path3826" />
        <path
           d="M 567.30785,344.38802 L 567.30785,347.20602 L 570.01685,347.20602 L 570.01685,347.92602 L 567.30785,347.92602 L 567.30785,350.76902 L 566.53985,350.76902 L 566.53985,347.92602 L 563.82885,347.92602 L 563.82885,347.20602 L 566.53985,347.20602 L 566.53985,344.38802 L 567.30785,344.38802 z "
           id="path3830" />
        <path
           d="M 571.04285,350.76902 L 571.04285,350.12202 L 571.86885,349.31802 C 573.86085,347.42302 574.75985,346.41602 574.77085,345.24002 C 574.77085,344.44902 574.38785,343.71802 573.22385,343.71802 C 572.51685,343.71802 571.92885,344.07702 571.56985,344.37702 L 571.23385,343.63402 C 571.77285,343.17802 572.54085,342.84202 573.44085,342.84202 C 575.11885,342.84202 575.82785,343.99302 575.82785,345.10902 C 575.82785,346.54802 574.78285,347.71202 573.13985,349.29502 L 572.51685,349.87102 L 572.51685,349.89402 L 576.01885,349.89402 L 576.01885,350.77002 L 571.04285,350.77002 L 571.04285,350.76902 z "
           id="path3832" />
        <path
           d="M 577.97585,350.90102 C 577.56785,350.90102 577.28085,350.57802 577.28085,350.14502 C 577.28085,349.70202 577.58185,349.39002 578.00185,349.39002 C 578.41985,349.39002 578.70885,349.70202 578.70885,350.14502 C 578.70885,350.57802 578.43385,350.90102 577.98785,350.90102 L 577.97585,350.90102 z "
           id="path3834" />
        <path
           d="M 584.86285,346.78802 C 584.86285,349.43802 583.87885,350.90102 582.15185,350.90102 C 580.62885,350.90102 579.59685,349.47402 579.57385,346.89502 C 579.57385,344.28102 580.70085,342.84102 582.28485,342.84102 C 583.92785,342.84102 584.86285,344.30402 584.86285,346.78802 z M 580.62885,346.90702 C 580.62885,348.93402 581.25385,350.08602 582.21285,350.08602 C 583.29085,350.08602 583.80685,348.82602 583.80685,346.83602 C 583.80685,344.91702 583.31685,343.65702 582.22485,343.65702 C 581.30085,343.65702 580.62885,344.78502 580.62885,346.90702 z "
           id="path3836" />
        <path
           d="M 639.30785,344.38802 L 639.30785,347.20602 L 642.01685,347.20602 L 642.01685,347.92602 L 639.30785,347.92602 L 639.30785,350.76902 L 638.53985,350.76902 L 638.53985,347.92602 L 635.82885,347.92602 L 635.82885,347.20602 L 638.53985,347.20602 L 638.53985,344.38802 L 639.30785,344.38802 z "
           id="path3840" />
        <path
           d="M 643.29485,349.55802 C 643.59385,349.74902 644.28885,350.04902 645.02185,350.04902 C 646.37685,350.04902 646.79685,349.18602 646.78385,348.53802 C 646.77185,347.44602 645.78985,346.97802 644.76985,346.97802 L 644.18185,346.97802 L 644.18185,346.18702 L 644.76985,346.18702 C 645.53785,346.18702 646.50785,345.79102 646.50785,344.86802 C 646.50785,344.24402 646.11285,343.69202 645.14085,343.69202 C 644.51785,343.69202 643.91785,343.96802 643.58185,344.20802 L 643.30685,343.44002 C 643.71285,343.14002 644.50585,342.84002 645.34585,342.84002 C 646.88085,342.84002 647.57585,343.75102 647.57585,344.69902 C 647.57585,345.50302 647.09585,346.18602 646.13685,346.53402 L 646.13685,346.55702 C 647.09585,346.74902 647.87485,347.46902 647.87485,348.56002 C 647.87485,349.80802 646.90385,350.89902 645.03285,350.89902 C 644.15785,350.89902 643.38985,350.62402 643.00585,350.37202 L 643.29485,349.55802 z "
           id="path3842" />
        <path
           d="M 649.97585,350.90102 C 649.56785,350.90102 649.28085,350.57802 649.28085,350.14502 C 649.28085,349.70202 649.58185,349.39002 650.00185,349.39002 C 650.41985,349.39002 650.70885,349.70202 650.70885,350.14502 C 650.70885,350.57802 650.43385,350.90102 649.98785,350.90102 L 649.97585,350.90102 z "
           id="path3844" />
        <path
           d="M 656.86285,346.78802 C 656.86285,349.43802 655.87885,350.90102 654.15185,350.90102 C 652.62885,350.90102 651.59685,349.47402 651.57385,346.89502 C 651.57385,344.28102 652.70085,342.84102 654.28485,342.84102 C 655.92785,342.84102 656.86285,344.30402 656.86285,346.78802 z M 652.62885,346.90702 C 652.62885,348.93402 653.25385,350.08602 654.21285,350.08602 C 655.29085,350.08602 655.80685,348.82602 655.80685,346.83602 C 655.80685,344.91702 655.31685,343.65702 654.22485,343.65702 C 653.30085,343.65702 652.62885,344.78502 652.62885,346.90702 z "
           id="path3846" />
        <path
           d="M 711.30785,344.38802 L 711.30785,347.20602 L 714.01685,347.20602 L 714.01685,347.92602 L 711.30785,347.92602 L 711.30785,350.76902 L 710.53985,350.76902 L 710.53985,347.92602 L 707.82885,347.92602 L 707.82885,347.20602 L 710.53985,347.20602 L 710.53985,344.38802 L 711.30785,344.38802 z "
           id="path3850" />
        <path
           d="M 718.30385,350.76902 L 718.30385,348.64602 L 714.68085,348.64602 L 714.68085,347.95102 L 718.15985,342.97302 L 719.30085,342.97302 L 719.30085,347.81902 L 720.39085,347.81902 L 720.39085,348.64602 L 719.30085,348.64602 L 719.30085,350.76902 L 718.30385,350.76902 z M 718.30385,347.81902 L 718.30385,345.21602 C 718.30385,344.80802 718.31585,344.40102 718.33885,343.99202 L 718.30385,343.99202 C 718.06385,344.44802 717.87185,344.78402 717.65585,345.14302 L 715.74985,347.79302 L 715.74985,347.81702 L 718.30385,347.81702 L 718.30385,347.81902 z "
           id="path3852" />
        <path
           d="M 721.97585,350.90102 C 721.56785,350.90102 721.28085,350.57802 721.28085,350.14502 C 721.28085,349.70202 721.58185,349.39002 722.00185,349.39002 C 722.41985,349.39002 722.70885,349.70202 722.70885,350.14502 C 722.70885,350.57802 722.43385,350.90102 721.98785,350.90102 L 721.97585,350.90102 z "
           id="path3854" />
        <path
           d="M 728.86285,346.78802 C 728.86285,349.43802 727.87885,350.90102 726.15185,350.90102 C 724.62885,350.90102 723.59685,349.47402 723.57385,346.89502 C 723.57385,344.28102 724.70085,342.84102 726.28485,342.84102 C 727.92785,342.84102 728.86285,344.30402 728.86285,346.78802 z M 724.62885,346.90702 C 724.62885,348.93402 725.25385,350.08602 726.21285,350.08602 C 727.29085,350.08602 727.80685,348.82602 727.80685,346.83602 C 727.80685,344.91702 727.31685,343.65702 726.22485,343.65702 C 725.30085,343.65702 724.62885,344.78502 724.62885,346.90702 z "
           id="path3856" />
        <g
           transform="translate(-1.0101525,-72.730983)"
           id="g3916">
			
			
			
			
			
			
			
			
			
			
			
			
			
			
			
			
			
			
			
			
			
			
			
			
			
			
			
			
			
			
			
			
			
			
			
			
			
			
		<flowRoot
   transform="translate(-12.142136,206.07112)"
   style="font-size:12px;font-style:normal;font-variant:normal;font-weight:normal;font-stretch:normal;text-align:center;line-height:125%;writing-mode:lr-tb;text-anchor:middle;font-family:Myriad Web Pro"
   id="flowRoot5501"
   xml:space="preserve"><flowRegion
     id="flowRegion5503"><rect
       style="font-size:12px;font-style:normal;font-variant:normal;font-weight:normal;font-stretch:normal;text-align:center;line-height:125%;writing-mode:lr-tb;text-anchor:middle;font-family:Myriad Web Pro"
       y="156.35687"
       x="29.294424"
       height="30.304573"
       width="103.03556"
       id="rect5505" /></flowRegion><flowPara
     id="flowPara5507">Proportion of cases under the curve</flowPara></flowRoot></g>
        <line
           id="line4106"
           y2="359.76901"
           x2="718.98987"
           y1="355.26901"
           x1="718.98987"
           style="fill:none;stroke:#000000;stroke-linecap:square" />
        <line
           id="line4108"
           y2="359.76901"
           x2="142.98985"
           y1="355.26901"
           x1="142.98985"
           style="fill:none;stroke:#000000;stroke-linecap:square" />
        <line
           id="line4124"
           y2="364.26901"
           x2="430.98984"
           y1="355.26901"
           x1="430.98984"
           style="fill:none;stroke:#000000" />
        <line
           id="line4126"
           y2="364.26901"
           x2="502.98984"
           y1="355.26901"
           x1="502.98984"
           style="fill:none;stroke:#000000" />
        <line
           id="line4136"
           y2="364.26901"
           x2="646.98987"
           y1="355.26901"
           x1="646.98987"
           style="fill:none;stroke:#000000" />
        <line
           id="line4140"
           y2="364.26901"
           x2="574.98987"
           y1="355.26901"
           x1="574.98987"
           style="fill:none;stroke:#000000" />
        <line
           id="line4142"
           y2="364.26901"
           x2="286.98984"
           y1="355.26901"
           x1="286.98984"
           style="fill:none;stroke:#000000" />
        <line
           id="line4144"
           y2="364.26901"
           x2="358.98984"
           y1="355.26901"
           x1="358.98984"
           style="fill:none;stroke:#000000" />
        <line
           id="line4148"
           y2="364.26901"
           x2="214.98985"
           y1="355.26901"
           x1="214.98985"
           style="fill:none;stroke:#000000" />
        <line
           id="line4152"
           y2="359.76901"
           x2="142.98985"
           y1="359.76901"
           x1="718.98987"
           style="fill:none;stroke:#000000" />
        <flowRoot
           transform="translate(-59.828097,26.57685)"
           style="font-size:18px;font-style:normal;font-variant:normal;font-weight:bold;font-stretch:normal;text-align:start;line-height:125%;writing-mode:lr-tb;text-anchor:start;font-family:Myriad Web Pro"
           id="flowRoot5509"
           xml:space="preserve"><flowRegion
             id="flowRegion5511"><rect
               style="font-size:18px;font-style:normal;font-variant:normal;font-weight:bold;font-stretch:normal;text-align:start;line-height:125%;writing-mode:lr-tb;text-anchor:start;font-family:Myriad Web Pro"
               y="106.8594"
               x="72.73098"
               height="87.883278"
               width="223.24371"
               id="rect5513" /></flowRegion><flowPara
             id="flowPara5515">Continuous</flowPara><flowPara
             id="flowPara5519">Latent Response Variable </flowPara><flowPara
             id="flowPara5517">(LRV)</flowPara></flowRoot>        <flowRoot
           transform="translate(-59.773715,463.9729)"
           style="font-size:18px;font-style:normal;font-variant:normal;font-weight:bold;font-stretch:normal;text-align:start;line-height:125%;writing-mode:lr-tb;text-anchor:start;font-family:Myriad Web Pro"
           id="flowRoot6079"
           xml:space="preserve"><flowRegion
             id="flowRegion6081"><rect
               style="font-size:18px;font-style:normal;font-variant:normal;font-weight:bold;font-stretch:normal;text-align:start;line-height:125%;writing-mode:lr-tb;text-anchor:start;font-family:Myriad Web Pro"
               y="106.8594"
               x="72.73098"
               height="65.65992"
               width="168.69548"
               id="rect6083" /></flowRegion><flowPara
             id="flowPara6089">Categorical</flowPara><flowPara
             id="flowPara6096">observed variable</flowPara></flowRoot>      </g>
      <text
         xml:space="preserve"
         style="font-size:12px;font-style:normal;font-variant:normal;font-weight:normal;font-stretch:normal;text-align:center;line-height:125%;writing-mode:lr-tb;text-anchor:middle;fill:#000000;fill-opacity:1;stroke:none;stroke-width:1px;stroke-linecap:butt;stroke-linejoin:miter;stroke-opacity:1;font-family:Myriad Web Pro"
         x="69.097237"
         y="349.94363"
         id="text5497"
         sodipodi:linespacing="125%"><tspan
           sodipodi:role="line"
           id="tspan5499"
           x="69.097237"
           y="349.94363">Thresholds (z-scores)</tspan></text>
      <g
         id="g5878"
         transform="translate(73.161388,-2.5304504)">
	<g
   id="g5880">
			
		</g>

	
	
	
<path
   style="fill:none;fill-rule:evenodd;stroke:#000000;stroke-width:1px;stroke-linecap:butt;stroke-linejoin:miter;marker-end:url(#Arrow2Lend);stroke-opacity:1"
   d="M 179.20387,371.15685 L 179.20387,744.91329"
   id="path5882"
   sodipodi:nodetypes="cc" />
</g>
      <g
         id="g5886"
         transform="translate(146.32277,-2.5304504)">
	<g
   id="g5888">
			
		</g>

	
	
	
<path
   style="fill:none;fill-rule:evenodd;stroke:#000000;stroke-width:1px;stroke-linecap:butt;stroke-linejoin:miter;marker-end:url(#Arrow2Lend);stroke-opacity:1"
   d="M 179.20387,371.15685 L 179.20387,628.74575"
   id="path5890"
   sodipodi:nodetypes="cc" />
</g>
      <g
         id="g5892"
         transform="translate(219.48415,-2.5304504)">
	<g
   id="g5894">
			
		</g>

	
	
	
<path
   style="fill:none;fill-rule:evenodd;stroke:#000000;stroke-width:1px;stroke-linecap:butt;stroke-linejoin:miter;marker-end:url(#Arrow2Lend);stroke-opacity:1"
   d="M 179.20387,371.15685 L 179.20387,423.68478"
   id="path5896" />
</g>
      <g
         id="g5898"
         transform="translate(292.64553,-2.5304504)">
	<g
   id="g5900">
			
		</g>

	
	
	
<path
   style="fill:none;fill-rule:evenodd;stroke:#000000;stroke-width:1px;stroke-linecap:butt;stroke-linejoin:miter;marker-end:url(#Arrow2Lend);stroke-opacity:1"
   d="M 179.20387,371.15685 L 179.20387,423.68478"
   id="path5902" />
</g>
      <g
         id="g5904"
         transform="translate(365.80693,-2.5304504)">
	<g
   id="g5906">
			
		</g>

	
	
	
<path
   style="fill:none;fill-rule:evenodd;stroke:#000000;stroke-width:1px;stroke-linecap:butt;stroke-linejoin:miter;marker-end:url(#Arrow2Lend);stroke-opacity:1"
   d="M 179.20387,371.15685 L 180.21403,630.76605"
   id="path5908"
   sodipodi:nodetypes="cc" />
</g>
      <g
         id="g5910"
         transform="translate(438.9683,-2.5304504)">
	<g
   id="g5912">
			
		</g>

	
	
	
<path
   style="fill:none;fill-rule:evenodd;stroke:#000000;stroke-width:1px;stroke-linecap:butt;stroke-linejoin:miter;marker-end:url(#Arrow2Lend);stroke-opacity:1"
   d="M 179.20387,371.15685 L 179.20387,742.89299"
   id="path5914"
   sodipodi:nodetypes="cc" />
</g>
      <g
         id="g5916"
         transform="translate(512.1297,-2.5304504)">
	<g
   id="g5918">
			
		</g>

	
	
	
<path
   style="fill:none;fill-rule:evenodd;stroke:#000000;stroke-width:1px;stroke-linecap:butt;stroke-linejoin:miter;marker-end:url(#Arrow2Lend);stroke-opacity:1"
   d="M 179.20387,371.15685 L 179.20387,760.06558"
   id="path5920"
   sodipodi:nodetypes="cc" />
</g>
      <g
         id="g5961"
         transform="translate(49.497475,-370.72598)">
        <path
           id="path5924"
           d="M 1,0 L 1,0 L 1,0 L 1,0 L 1,0" />
        <path
           id="path5926"
           d="M 1,0 L 1,0 L 1,0 L 1,0 L 1,0" />
        <path
           id="path5928"
           d="M 1,0 L 1,0 L 1,0 L 1,0 L 1,0" />
        <path
           id="path5930"
           d="M 1,0 L 1,0 L 1,0 L 1,0 L 1,0" />
        <path
           id="path5932"
           d="M 1,0 L 1,0 L 1,0 L 1,0 L 1,0" />
        <path
           id="path5934"
           d="M 1,0 L 1,0 L 1,0 L 1,0 L 1,0" />
        <path
           id="path5936"
           d="M 1,0 L 1,0 L 1,0 L 1,0 L 1,0" />
        <path
           id="path5938"
           d="M 1,0 L 1,0 L 1,0 L 1,0 L 1,0" />
        <path
           id="path5940"
           d="M 1,0 L 1,0" />
        <path
           id="path5942"
           d="M 1,0 L 1,0" />
        <path
           id="path5944"
           d="M 1,0 L 1,0" />
        <path
           id="path5946"
           d="M 1,0 L 1,0" />
        <path
           id="path5948"
           d="M 1,0 L 1,0" />
        <path
           id="path5950"
           d="M 1,0 L 1,0" />
        <path
           id="path5952"
           d="M 1,0 L 1,0" />
        <path
           id="path5954"
           d="M 1,0 L 1,0" />
      </g>
      <g
         id="g6018"
         transform="translate(262.63966,-236.3757)">
        <path
           id="path5981"
           d="M 1,0 L 1,0 L 1,0 L 1,0 L 1,0" />
        <path
           id="path5983"
           d="M 1,0 L 1,0 L 1,0 L 1,0 L 1,0" />
        <path
           id="path5985"
           d="M 1,0 L 1,0 L 1,0 L 1,0 L 1,0" />
        <path
           id="path5987"
           d="M 1,0 L 1,0 L 1,0 L 1,0 L 1,0" />
        <path
           id="path5989"
           d="M 1,0 L 1,0 L 1,0 L 1,0 L 1,0" />
        <path
           id="path5991"
           d="M 1,0 L 1,0 L 1,0 L 1,0 L 1,0" />
        <path
           id="path5993"
           d="M 1,0 L 1,0 L 1,0 L 1,0 L 1,0" />
        <path
           id="path5995"
           d="M 1,0 L 1,0 L 1,0 L 1,0 L 1,0" />
        <path
           id="path5997"
           d="M 1,0 L 1,0" />
        <path
           id="path5999"
           d="M 1,0 L 1,0" />
        <path
           id="path6001"
           d="M 1,0 L 1,0" />
        <path
           id="path6003"
           d="M 1,0 L 1,0" />
        <path
           id="path6005"
           d="M 1,0 L 1,0" />
        <path
           id="path6007"
           d="M 1,0 L 1,0" />
        <path
           id="path6009"
           d="M 1,0 L 1,0" />
        <path
           id="path6011"
           d="M 1,0 L 1,0" />
      </g>
      <path
         style="fill:#000000"
         d="M 174.17162,774.17127 L 143.13812,774.34742 L 142.48317,773.29694 L 141.82822,772.24646 L 142.85132,771.61676 L 143.87442,770.98706 L 174.53979,771.16354 L 205.20514,771.34003 L 205.20514,772.66758 L 205.20514,773.99512 L 174.17162,774.17127 z M 248.04675,774.17112 L 216.47391,774.34711 L 215.93445,773.48187 C 215.63775,773.00598 215.52882,767.69958 215.69241,761.68986 L 215.98984,750.7631 L 247.80472,750.7631 L 279.61958,750.7631 L 279.61958,762.37911 L 279.61958,773.99512 L 248.04675,774.17112 z M 321.38273,774.17112 L 289.80987,774.34711 L 289.28996,773.50735 C 289.00401,773.04548 288.89508,741.90175 289.04792,704.29907 L 289.32583,635.93056 L 321.14068,635.93056 L 352.95556,635.93056 L 352.95556,704.96284 L 352.95556,773.99512 L 321.38273,774.17112 z M 394.71872,774.17112 L 363.14587,774.34711 L 362.62757,773.50735 C 362.34249,773.04548 362.23358,695.30496 362.38553,600.75065 L 362.66179,428.83372 L 394.47667,428.83372 L 426.29155,428.83372 L 426.29155,601.41442 L 426.29155,773.99512 L 394.71872,774.17112 z M 468.0547,774.17112 L 436.48185,774.34711 L 435.96356,773.50735 C 435.67849,773.04548 435.56957,695.30496 435.72151,600.75065 L 435.99778,428.83372 L 467.81265,428.83372 L 499.62753,428.83372 L 499.62753,601.41442 L 499.62753,773.99512 L 468.0547,774.17112 z M 541.39068,774.17112 L 509.81784,774.34711 L 509.2979,773.50735 C 509.01195,773.04548 508.90303,741.90175 509.05587,704.29907 L 509.33376,635.93056 L 541.14865,635.93056 L 572.9635,635.93056 L 572.9635,704.96284 L 572.9635,773.99512 L 541.39068,774.17112 z M 614.72665,774.17112 L 583.1538,774.34711 L 582.61435,773.48187 C 582.31765,773.00598 582.20874,767.69958 582.37232,761.68986 L 582.66976,750.7631 L 614.48461,750.7631 L 646.29949,750.7631 L 646.29949,762.37911 L 646.29949,773.99512 L 614.72665,774.17112 z M 688.60198,774.17127 L 657.56844,774.34742 L 656.91351,773.29694 L 656.25856,772.24646 L 657.28168,771.61676 L 658.30478,770.98706 L 688.97013,771.16354 L 719.63547,771.34003 L 719.63547,772.66758 L 719.63547,773.99512 L 688.60198,774.17127 z "
         id="path6064"
         sodipodi:nodetypes="cccccccccccccccccccccccccccccccccccccccccccccccccccccccccccccccccccccccccccccccccc" />
    </g>
  </g>
</svg>
