<?xml version="1.0" encoding="UTF-8" standalone="no"?>
<!-- Created with Inkscape (http://www.inkscape.org/) -->
<svg
   xmlns:dc="http://purl.org/dc/elements/1.1/"
   xmlns:cc="http://web.resource.org/cc/"
   xmlns:rdf="http://www.w3.org/1999/02/22-rdf-syntax-ns#"
   xmlns:svg="http://www.w3.org/2000/svg"
   xmlns="http://www.w3.org/2000/svg"
   xmlns:sodipodi="http://sodipodi.sourceforge.net/DTD/sodipodi-0.dtd"
   xmlns:inkscape="http://www.inkscape.org/namespaces/inkscape"
   width="744.09448819"
   height="1052.3622047"
   id="svg7179"
   sodipodi:version="0.32"
   inkscape:version="0.45.1"
   sodipodi:docbase="C:\IOPS\december-2007\i"
   sodipodi:docname="round2.svg"
   inkscape:output_extension="org.inkscape.output.svg.inkscape">
  <defs
     id="defs7181" />
  <sodipodi:namedview
     id="base"
     pagecolor="#ffffff"
     bordercolor="#666666"
     borderopacity="1.0"
     gridtolerance="10000"
     guidetolerance="10"
     objecttolerance="10"
     inkscape:pageopacity="0.0"
     inkscape:pageshadow="2"
     inkscape:zoom="1.4"
     inkscape:cx="344.05985"
     inkscape:cy="391.38914"
     inkscape:document-units="px"
     inkscape:current-layer="layer1"
     inkscape:window-width="1009"
     inkscape:window-height="942"
     inkscape:window-x="132"
     inkscape:window-y="-2" />
  <metadata
     id="metadata7184">
    <rdf:RDF>
      <cc:Work
         rdf:about="">
        <dc:format>image/svg+xml</dc:format>
        <dc:type
           rdf:resource="http://purl.org/dc/dcmitype/StillImage" />
      </cc:Work>
    </rdf:RDF>
  </metadata>
  <g
     inkscape:label="Layer 1"
     inkscape:groupmode="layer"
     id="layer1">
    <path
       id="path6995"
       style="fill:#000000"
       d="" />
    <path
       id="path7029"
       style="fill:#f91923;fill-opacity:1"
       d="M 337.57633,626.61493 C 337.20332,626.01139 336.40276,625.82375 335.79729,626.19794 C 335.06317,626.65166 334.93723,626.25084 335.41924,624.99474 C 335.81678,623.95878 335.83408,623.41912 335.4577,623.79551 C 334.27669,624.97652 331.03633,622.5723 331.03633,620.51503 C 331.03633,619.43438 331.51289,618.55021 332.09535,618.55021 C 332.67781,618.55021 332.87625,618.10021 332.53633,617.55021 C 332.19641,617.00021 332.26105,615.99562 332.67997,615.31779 C 334.33032,612.64747 333.74344,610.88354 331.35646,611.33984 C 330.08039,611.58378 329.02944,612.2934 329.02102,612.91679 C 329.01256,613.54278 328.59685,613.40401 328.09247,612.6068 C 327.4382,611.57271 327.7654,610.86377 329.24631,610.1068 C 331.34217,609.0355 332.72681,602.68077 330.92006,602.42521 C 330.43401,602.35646 329.51133,602.24396 328.86966,602.17521 C 328.228,602.10646 327.52604,601.51933 327.30975,600.87047 C 326.86627,599.54003 335.21948,597.92734 336.96533,599.00633 C 337.62009,599.41099 338.03633,598.67369 338.03633,597.10923 C 338.03633,594.22739 336.88611,593.82136 335.03633,596.05021 C 333.45992,597.94966 329.33187,597.98861 327.4649,596.12164 C 326.64347,595.30021 326.03633,592.75021 326.03633,590.12164 C 326.03633,586.0521 326.28335,585.54853 328.28633,585.5349 C 329.52383,585.52648 331.21133,585.08337 332.03633,584.55021 C 333.14868,583.83135 332.50259,583.55939 329.53633,583.49784 C 325.92184,583.42285 325.75318,583.31027 327.78633,582.32972 C 329.02383,581.73289 330.03633,580.83114 330.03633,580.32583 C 330.03633,579.82052 331.04883,579.53976 332.28633,579.70193 C 333.52383,579.86409 334.76133,579.5588 335.03633,579.02349 C 335.31133,578.48819 334.45088,577.89685 333.12422,577.70942 C 331.35224,577.45906 331.07256,577.14585 332.07034,576.52919 C 332.82757,576.0612 334.22676,576.11694 335.23245,576.65517 C 337.60126,577.92292 337.77336,575.06205 335.40791,573.73828 C 334.29457,573.11522 334.13642,572.60639 334.90791,572.12958 C 335.52854,571.74601 336.03633,571.73883 336.03633,572.11364 C 336.03633,572.48844 336.69162,572.25126 337.49253,571.58656 C 338.29343,570.92187 339.4949,570.71559 340.16246,571.12817 C 340.98363,571.63568 341.18174,571.37152 340.77495,570.31145 C 340.44426,569.44969 340.80924,567.91337 341.58601,566.89741 C 342.81417,565.29107 343.1292,565.2458 344.00201,566.55021 C 344.78738,567.72393 345.00904,567.75294 345.02102,566.68358 C 345.03097,565.79516 345.76215,565.50675 347.11054,565.85937 C 349.76369,566.55318 353.24566,563.25928 352.34371,560.90885 C 351.98772,559.98115 352.11042,559.47458 352.61639,559.78313 C 353.12236,560.09169 354.41537,559.15301 355.48976,557.69718 C 357.42767,555.07124 357.42767,555.06161 355.48976,556.48444 C 354.41537,557.27326 352.37126,559.24906 350.94729,560.87509 C 349.03115,563.06314 348.21751,563.46475 347.81673,562.42034 C 347.03892,560.39339 349.99105,553.55021 351.64328,553.55021 C 352.40946,553.55021 353.10383,552.87521 353.18633,552.05021 C 353.26883,551.22521 353.38133,549.99335 353.43633,549.31274 C 353.49133,548.63213 354.88633,546.84532 356.53633,545.34205 C 358.18633,543.83878 358.99282,542.59565 358.32854,542.57952 C 357.55787,542.56082 357.25893,541.37398 357.50256,539.30021 C 358.09074,534.29348 358.51455,532.88384 359.95261,531.15109 C 361.07904,529.79383 361.03142,529.55021 359.63972,529.55021 C 358.37098,529.55021 358.13376,528.92574 358.59507,526.80021 C 359.66612,521.86532 361.33965,519.53066 364.46475,518.61172 C 367.26488,517.78834 367.34803,517.64979 365.4056,517.04392 C 363.37259,516.40981 363.34598,516.23678 364.82533,513.27135 C 365.94709,511.02274 366.05236,510.05555 365.20606,509.77345 C 363.21512,509.10981 363.92034,507.28661 365.96151,507.82039 C 367.30852,508.17264 367.72761,507.90928 367.35699,506.94346 C 367.04176,506.12198 367.74435,505.22385 369.09228,504.72522 C 370.70372,504.12911 370.95028,503.73436 369.9468,503.35716 C 369.17104,503.06556 367.63633,503.18308 366.53633,503.61831 C 365.43633,504.05354 365.12539,504.44127 365.84535,504.47992 C 366.56531,504.51858 366.89569,504.96875 366.57953,505.48031 C 365.86639,506.63419 360.54203,506.1583 360.52102,504.93879 C 360.5126,504.45007 360.20479,503.57872 359.837,503.00246 C 358.7136,501.24228 360.67497,499.22245 362.93397,499.81319 C 364.12736,500.12527 365.03633,499.88845 365.03633,499.26546 C 365.03633,498.66183 365.62928,498.97886 366.354,499.96998 C 367.58874,501.65858 367.77757,501.66611 369.354,500.08968 C 370.27928,499.1644 371.02944,498.102 371.02102,497.72878 C 370.99373,496.51943 369.56265,494.74371 368.53633,494.6457 C 367.98633,494.59318 367.53633,493.76271 367.53633,492.80021 C 367.53633,491.41583 368.23779,491.11881 370.89378,491.37857 C 372.74037,491.55917 374.00119,491.30237 373.6956,490.80792 C 373.39001,490.31346 374.08786,488.3657 375.24637,486.47956 L 377.35276,483.05021 L 378.60526,486.05021 L 379.85775,489.05021 L 380.19704,485.55021 C 380.47739,482.65818 380.92717,482.064 382.78633,482.12961 C 385.64327,482.23043 385.73107,479.90549 382.9042,479.00827 C 381.35571,478.5168 381.12186,478.11538 382.04992,477.54181 C 382.75273,477.10745 383.05685,476.04605 382.72572,475.18316 C 382.3946,474.32026 382.55402,473.34829 383.08,473.02322 C 383.88606,472.52505 384.46664,474.4087 384.2012,476.66086 C 384.16162,476.99672 385.16672,477.74422 386.43476,478.32198 C 388.52177,479.27288 388.74721,479.12022 388.81327,476.71133 C 388.947,471.83474 390.28252,467.30402 392.1312,465.45534 C 393.90296,463.68358 393.98024,463.73432 394.60823,467.08179 C 394.96475,468.98219 394.97335,471.66502 394.62734,473.04364 C 394.26411,474.49083 394.42892,475.55021 395.01728,475.55021 C 395.57776,475.55021 396.04322,473.41271 396.05164,470.80021 C 396.06006,468.18771 396.50317,465.37521 397.03633,464.55021 C 397.87173,463.25752 398.00782,463.28392 398.02102,464.74119 C 398.02944,465.67123 398.52159,466.73208 399.11469,467.09864 C 399.82472,467.53746 400.08089,466.62845 399.86469,464.43735 C 399.61493,461.9062 399.95524,461.0251 401.28633,460.75658 C 402.65796,460.47989 403.03633,461.08606 403.03633,463.56022 C 403.03633,465.64376 403.46127,466.57353 404.28633,466.29523 C 404.97383,466.06332 405.53633,464.78832 405.53633,463.46189 C 405.53633,461.59258 406.09856,461.01944 408.03633,460.9134 C 410.10372,460.80026 413.3841,461.85031 414.86735,463.10002 C 415.67287,463.7787 412.82004,467.55021 411.50115,467.55021 C 410.6955,467.55021 410.03633,467.95206 410.03633,468.44322 C 410.03633,469.83172 412.94259,470.61184 415.61579,469.94091 C 417.08604,469.5719 418.03633,469.76855 418.03633,470.4418 C 418.03633,471.05143 417.64384,471.55021 417.16414,471.55021 C 416.68443,471.55021 415.95982,473.46271 415.55389,475.80021 L 414.81584,480.05021 L 413.48622,476.95462 C 412.13464,473.80789 408.20439,470.55021 405.75957,470.55021 C 405.01865,470.55021 403.38455,471.94052 402.12823,473.63978 C 400.10488,476.3765 399.96121,477.20451 400.87018,480.88978 C 401.43458,483.17802 401.65123,486.28333 401.35163,487.79047 C 400.89991,490.06284 400.41365,490.43203 398.50378,489.95268 C 396.82083,489.53029 395.89979,489.93683 395.08331,491.46242 C 393.60016,494.23373 392.74047,494.10735 388.65117,490.51689 C 385.3638,487.63055 385.13197,487.57317 383.86637,489.33275 C 383.13485,490.34979 381.69815,491.49511 380.67371,491.8779 C 379.06979,492.47721 379.00034,492.80186 380.17371,494.21527 C 382.00743,496.42415 382.07878,500.78048 380.26986,500.08633 C 377.96571,499.20214 372.86049,502.42082 373.47852,504.36806 C 373.83944,505.50524 373.26922,506.41306 371.78384,507.06606 C 368.66982,508.43504 366.4261,513.34343 367.86275,515.64388 C 369.34076,518.01055 368.21408,527.7168 366.28241,529.25836 C 365.08871,530.21099 364.90949,531.71247 365.43502,536.35754 C 365.8292,539.84161 365.66379,543.39988 365.03017,545.06642 C 364.40519,546.71023 364.33546,548.12716 364.86279,548.46724 C 365.35998,548.78787 366.07799,550.04772 366.45836,551.2669 C 367.02591,553.08598 366.68415,553.6005 364.55303,554.13538 C 360.78795,555.08035 357.72739,561.46032 358.70021,566.33602 C 359.10779,568.37883 359.34563,570.4013 359.22874,570.83041 C 359.11184,571.25951 359.69573,572.92467 360.52626,574.53075 C 361.3568,576.13683 362.03633,578.71499 362.03633,580.26 C 362.03633,581.98611 362.8074,583.55066 364.03633,584.31814 C 366.04799,585.57444 366.88714,590.55021 365.08736,590.55021 C 364.56542,590.55021 364.80312,592.14115 365.61558,594.08563 C 366.90272,597.1662 366.91006,598.2363 365.67265,602.40311 C 364.72892,605.58099 364.56989,607.75224 365.19856,608.87561 C 366.51379,611.2258 365.52554,612.36638 362.65022,611.81673 C 360.66905,611.43801 360.04335,610.4865 359.28604,606.70084 L 358.35569,602.05021 L 357.19587,604.86568 C 356.4044,606.78697 356.35196,608.27145 357.03074,609.53976 C 357.84179,611.05522 357.25755,612.19702 353.8662,615.72428 C 351.57862,618.10354 348.90307,621.37059 347.92053,622.9844 C 346.93799,624.5982 345.5496,626.01394 344.83521,626.13048 C 344.12083,626.24702 342.34792,626.6506 340.89542,627.02732 C 339.32803,627.43384 337.97884,627.2662 337.57633,626.61493 z M 393.72566,467.80021 C 393.47413,466.83771 393.26833,467.62521 393.26833,469.55021 C 393.26833,471.47521 393.47413,472.26271 393.72566,471.30021 C 393.97718,470.33771 393.97718,468.76271 393.72566,467.80021 z " />
    <path
       id="path7027"
       style="fill:#c5c5c5;fill-opacity:1"
       d="M 547.73386,652.38257 C 545.52356,649.96797 544.35766,649.43595 542.21516,649.86444 C 539.18696,650.47008 536.41386,648.67243 533.74856,644.37605 C 531.15106,640.189 528.98856,640.12272 522.49776,644.03126 C 519.28366,645.96668 516.37286,647.55021 516.02926,647.55021 C 515.68576,647.55021 514.39586,645.7553 513.16286,643.56151 L 510.92106,639.57282 L 514.47866,637.8763 C 516.44516,636.93855 518.03636,635.43744 518.03636,634.51999 C 518.03636,632.22613 514.84266,629.55021 512.10496,629.55021 C 508.44026,629.55021 500.20836,624.37975 498.91966,621.26845 C 498.28176,619.7284 496.89357,617.36714 495.83485,616.0212 L 493.90992,613.57405 L 490.20751,615.46288 C 486.84442,617.1786 486.24427,617.21505 483.65919,615.86059 C 481.83919,614.907 479.60609,614.59594 477.46445,614.99772 C 474.35616,615.58083 473.97611,615.35388 472.17329,611.83809 C 471.10501,609.75475 469.07604,606.9723 467.66447,605.65485 C 466.25289,604.3374 465.35171,602.84893 465.66184,602.34713 C 465.97197,601.84533 465.06284,599.67756 463.64156,597.52986 C 461.48771,594.27517 461.22641,593.18045 462.07234,590.9555 C 463.52027,587.14716 462.3571,584.58218 458.43997,582.9455 C 456.56797,582.16333 455.03633,581.27227 455.03633,580.96536 C 455.03633,579.87169 457.8093,577.65651 458.41728,578.2645 C 458.98866,578.83587 459.43178,577.05473 459.15475,575.30021 C 459.03682,574.55334 459.81207,574.34604 463.44801,574.15215 C 464.49944,574.09608 465.53096,573.54315 465.74028,572.92342 C 466.26766,571.362 463.24947,570.36994 461.21389,571.43563 C 459.10458,572.53991 455.51503,571.24008 454.68249,569.07051 C 454.33487,568.16462 453.59728,567.70353 453.04339,568.04584 C 451.47613,569.01447 451.80776,567.26795 455.03633,557.55021 C 458.32926,547.63876 458.57896,545.40524 456.92465,540.65969 C 456.12051,538.35293 454.48458,536.79757 451.0112,535.03748 C 447.21542,533.11401 446.31687,532.19341 446.72225,530.64326 C 447.07348,529.30016 446.11143,527.55865 443.66903,525.11624 C 441.70771,523.15492 439.62675,521.55021 439.04466,521.55021 C 438.46258,521.55021 437.71633,520.20021 437.38633,518.55021 C 437.05633,516.90021 436.33748,515.55021 435.78889,515.55021 C 435.17391,515.55021 435.21049,515.04529 435.88426,514.23344 C 436.72313,513.22267 435.84133,511.798 432.08973,508.10281 C 427.65184,503.73164 427.13945,502.74673 426.51807,497.39288 C 425.92066,492.24555 425.47196,491.30972 422.9847,490.02351 C 421.41772,489.2132 419.42705,488.55021 418.56099,488.55021 C 417.61137,488.55021 416.74817,487.35941 416.38633,485.55021 C 416.05633,483.90021 415.44835,482.55021 415.03526,482.55021 C 414.12698,482.55021 417.2216,473.19009 418.28633,472.71688 C 418.69883,472.53354 419.03633,471.9389 419.03633,471.39545 C 419.03633,470.852 419.75217,469.69151 420.62708,468.8166 C 421.89519,467.54849 422.38048,467.48902 423.01975,468.52338 C 423.53459,469.35641 424.75506,469.58664 426.429,469.1665 C 428.46104,468.65649 429.03633,468.88147 429.03633,470.18615 C 429.03633,471.68153 429.22309,471.70114 430.78633,470.36989 C 434.58269,467.13693 438.84704,466.25476 446.81923,467.05316 C 455.21086,467.89356 463.60075,468.58883 466.14331,468.65453 C 467.02715,468.67737 469.16465,469.98787 470.89331,471.56676 C 475.78104,476.03101 475.13614,482.85848 469.31082,488.32048 C 467.13877,490.35706 461.11802,491.81268 450.01875,492.98465 C 449.18408,493.07278 447.97388,493.47077 447.32942,493.86907 C 446.68496,494.26737 444.21787,494.32971 441.847,494.00761 L 437.53633,493.42198 L 441.53633,495.98169 C 443.73633,497.38953 447.89883,499.23095 450.78633,500.07374 C 454.95629,501.29084 456.03633,502.03605 456.03633,503.69613 C 456.03633,506.98332 464.0623,515.37098 467.34535,515.51477 C 467.79031,515.53426 467.82899,515.02374 467.4313,514.38027 C 466.91726,513.54853 467.26154,513.45078 468.62229,514.04211 C 469.67501,514.49959 472.11133,515.05604 474.03633,515.27867 C 476.76814,515.5946 477.81254,515.22986 478.7948,513.61683 C 480.63254,510.59896 478.44768,507.26292 475.03633,507.87805 C 471.41161,508.53165 468.71499,507.22532 468.53091,504.7266 C 468.41103,503.09945 468.9284,502.55021 470.581,502.55021 C 471.79674,502.55021 473.34123,503.21266 474.01319,504.02233 C 475.08891,505.31849 475.4109,505.31849 476.70707,504.02233 C 477.51673,503.21266 479.23454,502.55021 480.52443,502.55021 C 481.81431,502.55021 483.03776,502.04593 483.2432,501.4296 C 483.44865,500.81326 485.39865,500.20646 487.57653,500.08116 C 489.75442,499.95585 492.63295,499.50311 493.97327,499.07505 C 496.27518,498.33989 496.30908,498.22282 494.58513,496.96224 C 493.28729,496.01323 492.22071,495.91635 490.89308,496.62688 C 489.57073,497.33457 487.70468,497.17741 484.49627,496.08813 C 482.00486,495.24227 479.25708,494.55021 478.39009,494.55021 C 477.11338,494.55021 476.944,493.83741 477.49902,490.80021 C 477.87591,488.73771 478.83507,486.0397 479.63047,484.80462 C 480.48798,483.47311 480.82233,481.54574 480.45185,480.06966 C 479.93217,477.99908 480.29427,477.40264 482.60414,476.52443 C 484.13154,475.94371 485.94138,475.68353 486.62602,475.94625 C 488.53279,476.67795 489.21667,473.62667 487.98343,469.88991 C 486.83083,466.39752 483.76733,463.98039 481.93157,465.11496 C 481.26653,465.52597 480.9933,464.8877 481.20223,463.4112 C 481.48426,461.4182 482.08185,461.06666 485.03633,461.15573 C 486.96133,461.21376 489.30677,461.59286 490.24841,461.99816 C 491.4337,462.50834 492.69975,461.93741 494.36308,460.14265 L 496.76567,457.55021 L 539.90096,457.55021 L 583.03636,457.55021 L 583.03636,555.51882 C 583.03636,640.98819 582.85006,653.41598 581.57666,652.92731 C 580.77386,652.61924 577.83146,652.85734 575.03806,653.45643 C 570.81716,654.36165 569.55606,654.28164 567.57386,652.98286 C 565.40926,651.56455 564.90586,651.56631 562.12976,653.00189 C 560.44736,653.87191 557.15056,654.7773 554.80356,655.01386 C 551.04796,655.39239 550.20026,655.07689 547.73386,652.38257 z " />
    <path
       id="path7025"
       style="fill:#f91923;fill-opacity:1"
       d="M 423.03633,585.48328 C 423.03633,584.01037 422.33569,583.55021 420.09303,583.55021 C 416.3749,583.55021 414.03633,580.39819 414.03633,575.38672 C 414.03633,573.34156 413.61515,571.40794 413.10037,571.08979 C 412.58559,570.77164 410.99984,568.13104 409.57647,565.22179 L 406.98854,559.93224 L 410.14115,552.99122 C 413.71838,545.11534 416.97523,535.83929 417.01174,533.42265 C 417.02527,532.5275 417.71463,531.23216 418.54366,530.54412 C 419.86104,529.4508 419.73501,529.0003 417.54366,526.96943 C 416.16463,525.69138 415.03633,524.17422 415.03633,523.59796 C 415.03633,523.0217 414.69883,522.6035 414.28633,522.66863 C 410.01179,523.34356 409.00066,522.29454 404.53339,512.55021 C 399.46028,501.48438 397.56169,499.1194 391.18091,495.91773 C 383.72147,492.17481 383.61759,492.08382 384.41905,489.99524 C 384.95427,488.60049 385.57875,488.81927 388.57738,491.45211 C 392.73837,495.10551 393.45622,495.21652 395.35843,492.50074 C 396.42057,490.98432 397.44323,490.61423 399.29032,491.07782 C 401.51526,491.63624 401.84449,491.3426 402.31811,488.37729 C 402.61038,486.5474 402.39624,483.16993 401.84223,480.8718 C 400.99261,477.34738 401.12462,476.29582 402.68564,474.15323 C 404.84634,471.18756 406.22723,470.97396 409.47632,473.10284 C 411.52474,474.44502 413.1185,477.55115 413.55411,481.05021 C 413.91507,483.94959 417.13321,489.55021 418.43825,489.55021 C 419.26544,489.55021 421.0506,490.05522 422.40528,490.67245 C 424.46465,491.61076 424.97765,492.73662 425.53536,497.54182 C 426.13704,502.72596 426.68274,503.76208 431.10599,508.11882 C 433.82167,510.79366 435.55593,513.22908 434.99284,513.57709 C 434.33726,513.98226 434.51743,515.24356 435.50005,517.12784 C 436.33823,518.73514 437.02678,520.61271 437.03017,521.30021 C 437.03356,521.98771 437.93633,522.55021 439.03633,522.55021 C 440.13633,522.55021 441.03633,523.14917 441.03633,523.88123 C 441.03633,524.61329 442.1984,525.83417 443.61872,526.5943 C 445.67626,527.69547 446.09374,528.51317 445.67283,530.61769 C 445.19944,532.98465 445.65967,533.50029 450.10333,535.58159 C 454.27711,537.53648 455.24936,538.5292 456.24508,541.85263 C 457.50188,546.04745 457.50924,546.00873 451.90008,564.70703 C 449.63384,572.2616 449.55264,572.37194 445.81975,572.96885 C 443.73887,573.3016 442.03633,573.95558 442.03633,574.42215 C 442.03633,574.88872 440.46133,576.94044 438.53633,578.98153 C 436.61133,581.02263 435.03633,583.00233 435.03633,583.38087 C 435.03633,584.75661 430.72528,586.71254 426.92665,587.06025 C 423.62509,587.36246 423.03633,587.1238 423.03633,585.48328 z " />
    <path
       id="path7033"
       style="fill:#f91923;fill-opacity:1"
       d="M 380.88916,651.8252 C 381.76512,650.18845 381.4958,649.44089 379.36164,647.58527 C 377.82852,646.25224 377.19419,645.07068 377.808,644.69132 C 378.37854,644.33871 378.98021,643.82521 379.14505,643.55021 C 379.56434,642.85072 375.75766,636.55021 374.91574,636.55021 C 373.58154,636.55021 368.96114,627.53479 369.1531,625.30601 C 369.58244,620.32095 369.17503,619.40561 367.03633,620.55021 C 365.93633,621.13891 365.00596,621.26724 364.96884,620.83539 C 364.93172,620.40354 364.71051,618.58771 364.47726,616.80021 C 364.24401,615.01271 364.45123,613.55021 364.93776,613.55021 C 366.35367,613.55021 367.12065,610.52329 366.14603,608.78175 C 365.58442,607.77821 365.7736,605.43056 366.65533,602.46145 C 367.63472,599.16349 367.76854,596.97606 367.09869,595.21424 C 366.57101,593.82632 366.39343,591.12452 366.70407,589.21025 C 367.14996,586.46255 366.82331,585.34824 365.1526,583.91774 C 363.98865,582.92113 363.03633,581.05839 363.03633,579.77831 C 363.03633,578.49823 362.32815,576.08142 361.46259,574.40762 C 360.59704,572.73382 360.10239,571.15082 360.36337,570.88984 C 360.62435,570.62886 360.39345,568.80577 359.85027,566.83853 C 359.07083,564.01564 359.22915,562.44902 360.60137,559.40597 C 361.55766,557.2853 362.86073,555.55021 363.49707,555.55021 C 364.13342,555.55021 365.48256,554.94441 366.49515,554.20398 C 368.18261,552.97008 368.2122,552.60912 366.84979,549.87811 C 365.826,547.82587 365.63792,546.15625 366.2455,544.51382 C 366.73067,543.20226 366.82807,539.73153 366.46194,536.80108 C 365.95946,532.77941 366.16062,531.05337 367.28233,529.7616 C 369.22825,527.52067 370.30015,517.94552 368.86275,515.64388 C 367.30052,513.14234 369.83209,508.153 372.88375,507.71912 C 374.77826,507.44976 375.10243,506.94971 374.6224,505.03714 C 374.00689,502.58474 376.14482,501.13093 380.44894,501.07505 C 382.89289,501.04331 383.40705,496.74958 381.26021,494.30021 C 378.7933,491.48567 381.57707,492.08498 389.76665,496.13153 C 395.84911,499.13693 397.34021,500.38323 399.03893,503.88153 C 400.15226,506.1743 401.70464,509.17521 402.48865,510.55021 C 403.27266,511.92521 404.87113,515.03319 406.04082,517.45684 C 408.147,521.82097 408.14876,521.88222 406.22376,523.80723 C 404.60215,525.42883 403.91579,525.55606 402.08247,524.5749 C 400.04191,523.48283 399.96508,523.54856 401.00688,525.49518 C 401.62395,526.64818 401.82174,528.08841 401.44642,528.69569 C 400.02862,530.98973 400.13423,539.00091 401.60367,540.62462 C 404.02886,543.30442 401.41102,549.32839 393.87068,558.41919 C 393.24616,559.17214 392.6237,560.80371 392.48745,562.04491 C 392.35121,563.28611 391.80245,565.14507 391.26799,566.17592 C 389.86846,568.87536 390.52752,579.40863 392.37172,583.816 C 393.23838,585.88718 394.75496,587.92304 395.7419,588.34012 C 399.30018,589.84387 405.03633,593.76809 405.03633,594.69865 C 405.03633,595.22163 404.38543,596.90823 403.58988,598.44665 C 402.79434,599.98507 402.39206,602.1945 402.69593,603.35651 C 403.09356,604.87708 402.36625,606.27498 400.10099,608.34397 C 397.03131,611.14769 396.98001,611.33671 398.02432,615.9966 C 398.68026,618.92356 398.73884,621.21531 398.17552,621.91236 C 397.6147,622.60632 397.6383,625.19582 398.23601,628.55021 C 399.50588,635.67675 397.51949,641.06554 393.27938,641.99683 C 389.97349,642.72292 387.43902,646.12557 388.89623,647.88141 C 390.45126,649.7551 387.88207,652.30092 383.63139,653.09835 C 380.05462,653.76936 379.88966,653.69277 380.88916,651.8252 z M 408.25953,625.14073 C 407.54178,623.56544 407.47228,622.39881 408.07404,622.0269 C 408.6033,621.6998 409.08853,620.44623 409.15233,619.24119 C 409.25982,617.21092 409.30439,617.19691 409.75994,619.05021 C 410.03032,620.15021 410.61596,621.50153 411.06134,622.05315 C 411.50673,622.60477 411.31678,624.09193 410.63922,625.35796 L 409.4073,627.65982 L 408.25953,625.14073 z " />
    <path
       id="path7039"
       style="fill:#c5c5c5;fill-opacity:1"
       d="M 358.19398,665.48488 C 356.90568,664.96868 355.44318,664.79876 354.94398,665.10729 C 354.44477,665.41581 354.03633,664.31851 354.03633,662.66882 C 354.03633,661.01914 352.91133,656.55064 351.53633,652.73882 C 348.63273,644.68936 348.39753,641.14001 350.64842,639.33964 C 351.53506,638.63045 354.06358,636.32622 356.26733,634.21913 C 361.04189,629.65399 362.38538,630.35847 361.18263,636.79651 C 360.24789,641.79994 361.05661,643.55021 364.30322,643.55021 C 365.95702,643.55021 365.76298,644.31693 362.60322,650.26749 C 358.81837,657.39523 358.07124,661.96589 360.53633,662.91184 C 361.36133,663.22842 362.03633,664.17656 362.03633,665.01883 C 362.03633,666.7505 361.51148,666.81417 358.19398,665.48488 z " />
    <path
       id="path7045"
       style="fill:#f91923;fill-opacity:1"
       d="M 198.53633,554.55658 C 196.33633,553.46095 193.75303,551.18215 192.79566,549.49259 C 191.83829,547.80302 190.63451,546.68051 190.1206,546.99813 C 189.60668,547.31575 187.99073,547.03093 186.52961,546.36519 C 184.02761,545.22521 183.99034,545.11137 185.88908,544.40898 C 187.8466,543.68484 187.81682,543.50008 184.86347,538.04731 C 183.19054,534.95857 181.98255,532.28175 182.17905,532.0988 C 182.37556,531.91586 184.68986,532.09868 187.32195,532.50507 C 189.95404,532.91145 192.3431,532.86286 192.63097,532.39708 C 192.91884,531.9313 192.62271,531.55021 191.9729,531.55021 C 191.06965,531.55021 191.06698,531.21821 191.96156,530.1403 C 192.88979,529.02185 192.66239,528.4017 190.8615,527.1403 C 189.6129,526.26575 187.53989,525.55021 186.25481,525.55021 C 184.96973,525.55021 184.18426,525.11986 184.50934,524.59388 C 184.83441,524.0679 185.83909,523.92103 186.74196,524.26749 C 187.92667,524.72211 188.22182,524.47597 187.80246,523.38314 C 187.48286,522.55027 187.59847,521.25868 188.05937,520.51293 C 188.71711,519.44868 189.34845,519.68328 190.99449,521.60362 L 193.09162,524.05021 L 192.65194,520.80486 C 192.04933,516.35682 193.38988,515.93463 195.52533,519.89993 C 196.93245,522.51278 197.06493,523.62826 196.16732,525.30545 C 194.7532,527.94776 194.68992,532.55021 196.06771,532.55021 C 196.63498,532.55021 197.35812,531.87521 197.6747,531.05021 C 197.99129,530.22521 198.84684,529.55021 199.57593,529.55021 C 200.30502,529.55021 201.2139,528.56609 201.59566,527.36327 C 202.18736,525.49899 202.4555,525.39581 203.41305,526.66393 C 204.3521,527.90755 204.94636,527.94304 207.03633,526.88034 C 209.3256,525.7163 209.60657,525.81739 210.36966,528.07968 C 210.828,529.43847 211.66364,530.55021 212.22665,530.55021 C 212.78966,530.55021 212.99129,529.87521 212.6747,529.05021 C 212.09015,527.52688 213.15475,527.00196 214.36806,528.21528 C 214.73385,528.58106 216.18077,529.0027 217.58344,529.15225 C 219.54936,529.36185 220.3649,528.81621 221.14246,526.77107 C 221.92885,524.70269 222.34436,524.43057 223.02776,525.53635 C 223.50989,526.31645 223.70477,527.27767 223.46082,527.67239 C 223.21687,528.06711 224.24034,529.35212 225.7352,530.52798 C 227.94004,532.26231 228.24516,532.98534 227.35151,534.35806 C 226.50115,535.66427 226.69016,536.77506 228.18022,539.22828 C 230.23408,542.60975 229.87948,547.55021 227.58291,547.55021 C 226.90278,547.55021 225.58272,548.39396 224.64945,549.42521 C 223.71618,550.45646 221.83153,551.30021 220.46133,551.30021 C 219.09113,551.30021 217.12113,552.06848 216.08355,553.00748 C 214.77733,554.18959 212.88808,554.62024 209.94167,554.4075 C 207.23404,554.21201 205.5378,554.54579 205.27799,555.32523 C 204.70774,557.03598 203.16075,556.8596 198.53633,554.55658 z " />
    <path
       id="path7035"
       style="fill:#f91923;fill-opacity:1"
       d="M 220.28633,864.20882 C 215.58904,863.05635 215.39859,862.68414 217.46331,858.69142 C 218.33326,857.00912 218.55568,855.39053 218.03308,854.54496 C 217.54238,853.75098 217.59337,852.37789 218.15235,851.33343 C 219.30034,849.18838 218.38036,847.20421 216.56143,847.9022 C 214.6579,848.63266 212.6172,844.21705 213.79912,841.92521 C 214.33095,840.89396 214.56438,839.48771 214.31787,838.80021 C 214.07136,838.11271 214.3144,837.55021 214.85797,837.55021 C 216.24689,837.55021 220.63416,829.74279 221.6012,825.55021 C 222.04522,823.62521 222.43726,819.12521 222.47242,815.55021 C 222.53094,809.59785 222.72548,809.02334 224.78139,808.73131 C 226.38202,808.50394 226.87033,808.81923 226.48257,809.82971 C 226.04659,810.96585 227.38324,811.27369 233.22029,811.38148 C 239.52009,811.49782 240.73716,811.82163 242.24687,813.78308 C 244.53197,816.75194 244.54829,816.69239 240.73903,819.28554 C 237.98169,821.1626 237.24729,822.52495 236.15698,827.78554 C 234.34507,836.52772 234.33458,836.55021 232.06771,836.55021 C 229.56904,836.55021 229.54204,837.22784 231.88843,841.05021 C 233.55897,843.7716 233.59351,844.3399 232.2603,847.16946 C 231.19153,849.43779 231.07275,850.79288 231.82489,852.13688 C 232.64768,853.60711 232.36606,854.44205 230.44775,856.21988 C 229.12147,857.44904 228.03633,859.5112 228.03633,860.80246 C 228.03633,863.01472 226.29502,865.72905 225.08633,865.40088 C 224.78383,865.31874 222.62383,864.78232 220.28633,864.20882 z " />
    <path
       id="path7043"
       style="fill:#f91923;fill-opacity:1"
       d="M 240.2325,874.2526 C 238.4746,872.43892 237.03633,869.98944 237.03633,868.80931 C 237.03633,866.45027 233.605,863.55021 230.81382,863.55021 C 227.31159,863.55021 229.23731,856.64988 233.09875,855.36274 C 233.88439,855.10086 233.86177,854.2612 233.01925,852.41206 C 232.07107,850.33104 232.14019,849.25005 233.37398,846.86416 C 234.7861,844.13343 234.75643,843.67235 232.99588,840.98854 C 231.1072,838.10942 231.10819,838.06777 233.08303,837.33723 C 235.33087,836.5057 235.36751,836.41984 237.15372,827.80021 C 237.86606,824.36271 238.69356,821.53403 238.99261,821.51425 C 239.29165,821.49447 240.77585,820.46346 242.29081,819.22311 C 244.81016,817.16044 244.93821,816.73657 243.79081,814.25757 C 242.27925,810.99176 241.17675,810.58191 233.32079,810.3654 C 228.43679,810.23079 227.34512,809.9091 227.79489,808.73702 C 228.23368,807.59354 227.66934,807.37707 225.19586,807.7401 C 221.69003,808.25465 221.62385,808.18946 223.01432,805.59134 C 223.74486,804.2263 223.49185,803.12774 222.01432,801.24935 C 220.92642,799.86632 220.03633,798.18034 220.03633,797.50272 C 220.03633,795.72244 223.15952,793.61898 225.85776,793.58201 C 227.13454,793.56452 228.89307,792.83633 229.76559,791.9638 C 230.83954,790.88986 232.18935,790.59381 233.94416,791.04733 C 235.36985,791.4158 239.91133,792.06789 244.03633,792.49642 C 248.16133,792.92494 252.88633,793.84111 254.53633,794.53233 C 256.18633,795.22355 260.23633,795.92426 263.53633,796.08947 C 275.07302,796.66701 281.46087,797.6244 282.99251,799.00549 C 286.1133,801.81952 296.05569,804.80273 300.1379,804.14996 C 303.4291,803.62367 304.3494,803.89506 306.09962,805.90799 C 307.98937,808.0814 308.81309,808.26033 315.57256,807.96579 C 319.64432,807.78836 323.24095,808.07228 323.56506,808.5967 C 323.88918,809.12113 323.66197,809.55021 323.06016,809.55021 C 322.28217,809.55021 322.27001,810.11832 323.01806,811.51607 C 323.89832,813.16086 323.61825,813.76265 321.30324,815.20069 C 319.78144,816.14601 317.63633,817.65758 316.53633,818.55973 C 315.43633,819.46189 312.57353,820.81744 310.17454,821.57207 C 307.13633,822.52777 305.08834,824.02227 303.42544,826.49716 C 302.11242,828.45134 299.46272,832.23685 297.53723,834.9094 C 293.12348,841.03561 292.74953,846.00678 296.57143,847.74816 L 299.10654,848.90323 L 296.02745,850.85277 C 292.64968,852.99142 288.55782,859.96695 289.64713,861.7295 C 290.10815,862.47543 289.48087,862.67718 287.73706,862.34383 C 285.75323,861.9646 284.45449,862.57929 282.23309,864.94884 C 280.63399,866.65459 279.05257,868.83012 278.71884,869.78335 C 278.34709,870.84514 277.5114,871.286 276.56145,870.92148 C 275.70863,870.59422 274.4387,870.80131 273.73938,871.38169 C 272.89475,872.08268 271.13657,872.12824 268.50212,871.51742 C 266.32093,871.0117 262.88614,870.58719 260.86923,870.57407 C 256.69676,870.54692 249.1737,873.47483 247.14972,875.91358 C 245.18233,878.28414 243.82385,877.95794 240.2325,874.2526 z M 308.03633,846.60923 C 308.03633,846.02677 308.48633,845.55021 309.03633,845.55021 C 310.31771,845.55021 310.31771,846.25827 309.03633,847.05021 C 308.48633,847.39013 308.03633,847.19169 308.03633,846.60923 z M 321.63901,841.00542 C 320.59548,840.24029 319.35798,839.85142 318.88901,840.14126 C 318.42004,840.4311 318.03633,840.29993 318.03633,839.84977 C 318.03633,838.27301 321.95618,836.58502 323.91725,837.31729 C 325.59022,837.942 325.707,838.37107 324.70817,840.22339 C 323.66865,842.15117 323.32209,842.23948 321.63901,841.00542 z M 330.53633,834.55021 C 331.33601,833.2563 333.03633,833.2563 333.03633,834.55021 C 333.03633,835.10021 332.33477,835.55021 331.47731,835.55021 C 330.61985,835.55021 330.19641,835.10021 330.53633,834.55021 z " />
    <path
       id="path7041"
       style="fill:#f91923;fill-opacity:1"
       d="M 372.23052,811.69445 C 368.33354,807.60037 368.21445,805.28118 371.72112,801.77451 L 374.40591,799.08972 L 375.73838,802.35523 C 376.67426,804.64882 376.82588,807.02401 376.24778,810.33548 L 375.42471,815.05021 L 372.23052,811.69445 z M 310.1559,805.22533 C 308.55319,803.62262 306.90655,803.24577 301.84671,803.32368 C 295.55113,803.42061 286.39982,800.90276 283.62431,798.31004 C 282.53054,797.28831 282.54284,796.90033 283.6957,796.05733 C 285.57324,794.68444 288.00983,785.1832 288.02446,779.17777 C 288.03473,774.96075 288.23811,774.47278 289.53633,775.55021 C 290.75628,776.56268 291.03633,776.51505 291.03633,775.2951 C 291.03633,774.4701 290.36133,773.2349 289.53633,772.55021 C 288.71133,771.86552 288.03633,769.79698 288.03633,767.95345 C 288.03633,765.25857 287.46219,764.30467 285.1072,763.08686 C 282.17505,761.57058 280.39608,758.39517 281.48851,756.62758 C 281.80821,756.11029 281.11348,755.01723 279.94465,754.19855 C 278.77583,753.37987 278.0689,752.30652 278.37371,751.81333 C 279.11196,750.61882 267.28862,745.23942 265.46393,745.93962 C 264.67875,746.24092 264.03633,746.31337 264.03633,746.10061 C 264.03633,745.88786 263.73486,744.92816 263.36639,743.96795 C 262.90964,742.77767 263.06874,742.45221 263.86639,742.94518 C 265.58654,744.00829 265.29488,741.49338 263.4633,739.46952 C 262.02089,737.87567 262.06167,737.67694 263.95435,737.07623 C 265.0896,736.71592 266.4347,736.67838 266.94347,736.99282 C 267.45223,737.30725 269.09914,737.09663 270.60326,736.52476 C 272.86489,735.66489 273.70387,735.8287 275.45263,737.47158 C 276.84596,738.78054 278.04147,739.16507 278.95754,738.59891 C 279.7222,738.12632 281.84276,737.92507 283.6699,738.1517 C 286.90574,738.55304 286.96553,738.49419 285.97334,735.88452 C 285.41309,734.41096 285.18395,732.60791 285.46413,731.87776 C 285.74432,731.14761 285.53768,730.55021 285.00495,730.55021 C 283.50725,730.55021 283.86132,727.83135 285.43779,727.2264 C 286.27167,726.90641 287.04418,727.47224 287.34525,728.62353 C 287.64994,729.78867 288.41622,730.34166 289.27134,730.01352 C 290.05239,729.71381 291.94877,729.94662 293.48552,730.53089 C 296.42626,731.64896 299.60393,730.27762 298.43923,728.3931 C 297.57615,726.9966 299.77009,724.83376 302.82735,724.06719 C 306.77001,723.07862 309.03633,720.15981 309.03633,716.07058 C 309.03633,713.31684 309.5619,712.26787 311.34975,711.45327 C 313.32682,710.55246 314.15196,710.8558 317.02506,713.53969 C 318.87411,715.26695 321.65807,717.33748 323.21165,718.14087 C 324.76522,718.94425 326.03633,720.04001 326.03633,720.57589 C 326.03633,721.11177 326.92264,721.55021 328.00591,721.55021 C 329.08918,721.55021 331.57787,722.45021 333.53633,723.55021 C 335.49479,724.65021 338.41764,725.55021 340.03156,725.55021 C 341.94251,725.55021 343.33928,726.24777 344.03633,727.55021 C 344.70008,728.79043 346.13802,729.55439 347.82151,729.56122 C 349.31466,729.56727 352.16203,729.84112 354.14901,730.16977 L 357.76168,730.76733 L 355.89901,735.66949 C 354.87453,738.36569 354.03633,741.92648 354.03633,743.58238 C 354.03633,745.7387 353.39456,746.8855 351.77485,747.62348 C 349.66396,748.58527 346.03633,753.61934 346.03633,755.58684 C 346.03633,756.06784 344.9064,758.12644 343.52537,760.1615 C 342.14434,762.19657 341.22512,764.07234 341.48267,764.32988 C 341.74021,764.58743 343.54623,763.8569 345.49604,762.70649 C 347.44584,761.55607 349.71506,760.87343 350.53873,761.18951 C 352.17911,761.81898 352.57885,765.09688 351.12483,765.99552 C 350.59219,766.3247 350.69038,767.82273 351.36105,769.59952 C 352.27285,772.01517 352.23344,772.81036 351.1693,773.46803 C 350.1429,774.10238 350.08769,774.77766 350.93308,776.35729 C 351.53987,777.49108 352.03633,779.54418 352.03633,780.91974 C 352.03633,782.85716 352.80386,783.6983 355.44236,784.65239 C 359.3635,786.07029 359.24374,787.14033 354.53015,792.8029 C 350.09584,798.12996 347.48932,798.79271 340.0631,796.48141 C 336.65037,795.41925 332.75089,794.55021 331.39758,794.55021 C 325.63196,794.55021 320.50343,799.7964 321.72026,804.44956 C 322.07471,805.80496 321.78475,806.58723 320.90296,806.65455 C 313.09928,807.25033 312.04002,807.10946 310.1559,805.22533 z " />
    <path
       id="path7037"
       style="fill:#c5c5c5;fill-opacity:1"
       d="M 256.88061,719.43281 C 255.83443,718.76977 255.91339,718.57744 257.23664,718.56552 C 258.17181,718.5571 259.29681,717.9409 259.73664,717.19619 C 260.17647,716.45149 261.54883,715.31065 262.78633,714.66101 C 264.02383,714.01137 265.03633,712.83651 265.03633,712.05021 C 265.03633,710.07978 268.23174,708.55021 272.34814,708.55021 C 275.66608,708.55021 278.69917,706.54638 277.3792,705.22641 C 277.02732,704.87453 275.70006,704.84749 274.42973,705.16632 C 272.92449,705.54411 271.04824,704.98282 269.0427,703.55474 C 267.35015,702.34954 265.36115,701.59532 264.62269,701.8787 C 263.26667,702.39905 261.03633,700.8266 261.03633,699.35021 C 261.03633,698.91021 261.74595,698.55021 262.61325,698.55021 C 263.48056,698.55021 265.47527,697.26512 267.04594,695.69445 C 270.39605,692.34434 270.42951,688.92158 267.10847,689.29871 C 265.57351,689.47302 265.15396,689.17445 265.70328,688.29871 C 266.134,687.61204 266.34617,686.19961 266.17476,685.15998 C 265.92902,683.66954 266.25154,683.43378 267.69972,684.0453 C 270.34798,685.16357 274.26458,684.75053 275.8269,683.18821 C 276.56816,682.44695 277.38348,680.02266 277.63873,677.80091 C 278.03145,674.38251 277.82861,673.78356 276.31957,673.90578 C 274.8913,674.02146 274.52339,673.25397 274.47133,670.05021 L 274.40633,666.05021 L 268.72133,666.17202 C 262.59926,666.30319 261.93186,665.65468 265.0155,662.57104 C 266.48197,661.10457 266.83816,659.80935 266.3905,657.57104 C 266.01291,655.68313 266.19647,654.55021 266.87995,654.55021 C 267.48143,654.55021 267.75154,653.97164 267.48019,653.2645 C 266.95248,651.88932 263.03633,651.4487 263.03633,652.7645 C 263.03633,653.19664 262.61255,653.55021 262.0946,653.55021 C 261.57664,653.55021 261.13273,652.08771 261.10813,650.30021 C 261.08352,648.51271 261.04125,646.15021 261.01418,645.05021 C 260.86024,638.79386 262.03677,632.02305 263.45849,630.98347 C 264.3263,630.34891 265.05064,629.20433 265.06813,628.43997 C 265.13576,625.48462 267.6223,623.8442 272.78633,623.34813 C 277.33388,622.91127 278.03633,623.08084 278.03633,624.61544 C 278.03633,625.58985 276.42149,627.38511 274.4478,628.60492 C 271.70323,630.30117 271.17407,631.04379 272.1978,631.76261 C 273.2433,632.49672 273.26268,632.81351 272.28633,633.20967 C 271.59883,633.48864 271.03633,634.38652 271.03633,635.20497 C 271.03633,636.4699 271.27859,636.4508 272.65173,635.07767 C 273.88593,633.84347 275.36078,633.60825 278.90173,634.08089 C 286.49181,635.094 286.38882,634.90897 283.04727,641.52855 C 281.37542,644.84046 279.50892,647.55021 278.89949,647.55021 C 278.10592,647.55021 278.11599,647.94126 278.93496,648.92807 C 279.83594,650.01368 279.62847,650.42361 277.95679,650.86076 C 276.69989,651.18945 276.12114,651.87841 276.53686,652.55108 C 276.92284,653.17559 277.86841,653.44489 278.63814,653.14952 C 279.40787,652.85414 281.63374,654.01386 283.58453,655.72667 C 286.5827,658.3591 287.03371,659.28564 286.49993,661.71592 C 285.98885,664.04289 286.41608,665.11134 288.74104,667.3206 C 291.8049,670.23198 296.52763,676.55021 295.63996,676.55021 C 295.34706,676.55021 296.01819,678.67498 297.13137,681.27192 C 298.6534,684.82269 298.90917,686.53388 298.16272,688.17215 C 296.82846,691.10053 297.76649,691.77312 300.59767,689.91806 C 303.92171,687.74006 308.65601,690.00732 308.27736,693.59587 C 307.85216,697.62562 305.9388,701.44639 304.04498,702.04746 C 302.04035,702.68371 301.88642,705.63475 303.79425,706.85433 C 304.48611,707.2966 305.55699,707.34646 306.17398,706.96514 C 308.46719,705.54785 306.33662,708.98347 303.70291,710.94983 C 301.66023,712.47491 299.32528,713.00104 294.19185,713.09295 C 290.44979,713.15995 286.93278,713.49617 286.37627,713.84011 C 284.87838,714.76586 278.7948,714.91946 276.80806,714.08169 C 275.60366,713.57381 274.20339,714.2293 272.18853,716.24417 C 269.71604,718.71665 269.0249,718.95809 267.4168,717.91111 C 265.88433,716.91336 264.8598,717.01971 261.88061,718.48579 C 259.62586,719.59536 257.70973,719.95828 256.88061,719.43281 z M 253.21828,672.05021 C 251.93768,669.2396 250.26115,668.80075 249.39796,671.05021 C 248.59363,673.14624 247.30412,672.9191 245.98189,670.44848 C 245.03222,668.67401 245.28053,667.90476 247.5766,665.50818 C 249.21299,663.80015 250.05775,662.04841 249.69761,661.10991 C 249.04167,659.40056 250.54331,658.94347 251.53633,660.55021 C 251.87625,661.10021 253.14031,661.55368 254.34535,661.55791 C 255.8654,661.56326 257.267,662.84466 258.92241,665.74248 L 261.3085,669.91935 L 258.61665,672.23478 C 255.22398,675.15303 254.62266,675.13247 253.21828,672.05021 z M 265.03633,674.10923 C 265.03633,673.86669 265.48633,673.39013 266.03633,673.05021 C 266.58633,672.71029 267.03633,672.90873 267.03633,673.49119 C 267.03633,674.07365 266.58633,674.55021 266.03633,674.55021 C 265.48633,674.55021 265.03633,674.35177 265.03633,674.10923 z M 256.64332,636.96842 C 255.83057,634.85044 255.83294,634.84224 257.43331,634.22812 C 258.33598,633.88173 258.99459,634.55155 259.29464,636.12113 C 259.81832,638.86059 257.63692,639.55771 256.64332,636.96842 z M 254.63666,629.71254 C 253.74479,628.26947 254.56182,626.87452 257.09202,625.5204 C 259.55429,624.20264 259.60229,625.62971 257.19567,628.60176 C 255.9352,630.15837 255.12858,630.5085 254.63666,629.71254 z M 277.03633,619.88516 C 277.03633,617.9119 279.49443,615.55021 281.54823,615.55021 C 283.37962,615.55021 283.06056,617.97619 281.203,618.17521 C 278.75441,618.43756 278.57549,618.60566 279.87086,619.42679 C 280.8855,620.06996 280.70572,620.4034 279.12086,620.81785 C 277.70261,621.18873 277.03633,620.89062 277.03633,619.88516 z M 289.08022,607.38354 C 289.05608,606.46688 288.56058,605.55829 287.9791,605.36447 C 286.41766,604.84399 287.75401,602.31933 290.75461,600.12093 C 293.35572,598.21522 293.37799,598.21522 292.57706,600.12093 C 292.13109,601.18203 291.17174,603.62521 290.44516,605.55021 C 289.71859,607.47521 289.10436,608.30021 289.08022,607.38354 z " />
    <path
       id="path7023"
       style="fill:#f91923;fill-opacity:1"
       d="M 256.88061,719.43281 C 255.83443,718.76977 255.91339,718.57744 257.23664,718.56552 C 258.17181,718.5571 259.29681,717.9409 259.73664,717.19619 C 260.17647,716.45149 261.54883,715.31065 262.78633,714.66101 C 264.02383,714.01137 265.03633,712.83651 265.03633,712.05021 C 265.03633,710.07978 268.23174,708.55021 272.34814,708.55021 C 275.66608,708.55021 278.69917,706.54638 277.3792,705.22641 C 277.02732,704.87453 275.70006,704.84749 274.42973,705.16632 C 272.92449,705.54411 271.04824,704.98282 269.0427,703.55474 C 267.35015,702.34954 265.36115,701.59532 264.62269,701.8787 C 263.26667,702.39905 261.03633,700.8266 261.03633,699.35021 C 261.03633,698.91021 261.74595,698.55021 262.61325,698.55021 C 263.48056,698.55021 265.47527,697.26512 267.04594,695.69445 C 270.39605,692.34434 270.42951,688.92158 267.10847,689.29871 C 265.57351,689.47302 265.15396,689.17445 265.70328,688.29871 C 266.134,687.61204 266.34617,686.19961 266.17476,685.15998 C 265.92902,683.66954 266.25154,683.43378 267.69972,684.0453 C 270.34798,685.16357 274.26458,684.75053 275.8269,683.18821 C 276.56816,682.44695 277.38348,680.02266 277.63873,677.80091 C 278.03145,674.38251 277.82861,673.78356 276.31957,673.90578 C 274.8913,674.02146 274.52339,673.25397 274.47133,670.05021 L 274.40633,666.05021 L 268.72133,666.17202 C 262.59926,666.30319 261.93186,665.65468 265.0155,662.57104 C 266.48197,661.10457 266.83816,659.80935 266.3905,657.57104 C 266.01291,655.68313 266.19647,654.55021 266.87995,654.55021 C 267.48143,654.55021 267.75154,653.97164 267.48019,653.2645 C 266.95248,651.88932 263.03633,651.4487 263.03633,652.7645 C 263.03633,653.19664 262.61255,653.55021 262.0946,653.55021 C 261.57664,653.55021 261.13273,652.08771 261.10813,650.30021 C 261.08352,648.51271 261.04125,646.15021 261.01418,645.05021 C 260.86024,638.79386 262.03677,632.02305 263.45849,630.98347 C 264.3263,630.34891 265.05064,629.20433 265.06813,628.43997 C 265.13576,625.48462 267.6223,623.8442 272.78633,623.34813 C 277.33388,622.91127 278.03633,623.08084 278.03633,624.61544 C 278.03633,625.58985 276.42149,627.38511 274.4478,628.60492 C 271.70323,630.30117 271.17407,631.04379 272.1978,631.76261 C 273.2433,632.49672 273.26268,632.81351 272.28633,633.20967 C 271.59883,633.48864 271.03633,634.38652 271.03633,635.20497 C 271.03633,636.4699 271.27859,636.4508 272.65173,635.07767 C 273.88593,633.84347 275.36078,633.60825 278.90173,634.08089 C 286.49181,635.094 286.38882,634.90897 283.04727,641.52855 C 281.37542,644.84046 279.50892,647.55021 278.89949,647.55021 C 278.10592,647.55021 278.11599,647.94126 278.93496,648.92807 C 279.83594,650.01368 279.62847,650.42361 277.95679,650.86076 C 276.69989,651.18945 276.12114,651.87841 276.53686,652.55108 C 276.92284,653.17559 277.86841,653.44489 278.63814,653.14952 C 279.40787,652.85414 281.63374,654.01386 283.58453,655.72667 C 286.5827,658.3591 287.03371,659.28564 286.49993,661.71592 C 285.98885,664.04289 286.41608,665.11134 288.74104,667.3206 C 291.8049,670.23198 296.52763,676.55021 295.63996,676.55021 C 295.34706,676.55021 296.01819,678.67498 297.13137,681.27192 C 298.6534,684.82269 298.90917,686.53388 298.16272,688.17215 C 296.82846,691.10053 297.76649,691.77312 300.59767,689.91806 C 303.92171,687.74006 308.65601,690.00732 308.27736,693.59587 C 307.85216,697.62562 305.9388,701.44639 304.04498,702.04746 C 302.04035,702.68371 301.88642,705.63475 303.79425,706.85433 C 304.48611,707.2966 305.55699,707.34646 306.17398,706.96514 C 308.46719,705.54785 306.33662,708.98347 303.70291,710.94983 C 301.66023,712.47491 299.32528,713.00104 294.19185,713.09295 C 290.44979,713.15995 286.93278,713.49617 286.37627,713.84011 C 284.87838,714.76586 278.7948,714.91946 276.80806,714.08169 C 275.60366,713.57381 274.20339,714.2293 272.18853,716.24417 C 269.71604,718.71665 269.0249,718.95809 267.4168,717.91111 C 265.88433,716.91336 264.8598,717.01971 261.88061,718.48579 C 259.62586,719.59536 257.70973,719.95828 256.88061,719.43281 z M 253.21828,672.05021 C 251.93768,669.2396 250.26115,668.80075 249.39796,671.05021 C 248.59363,673.14624 247.30412,672.9191 245.98189,670.44848 C 245.03222,668.67401 245.28053,667.90476 247.5766,665.50818 C 249.21299,663.80015 250.05775,662.04841 249.69761,661.10991 C 249.04167,659.40056 250.54331,658.94347 251.53633,660.55021 C 251.87625,661.10021 253.14031,661.55368 254.34535,661.55791 C 255.8654,661.56326 257.267,662.84466 258.92241,665.74248 L 261.3085,669.91935 L 258.61665,672.23478 C 255.22398,675.15303 254.62266,675.13247 253.21828,672.05021 z M 265.03633,674.10923 C 265.03633,673.86669 265.48633,673.39013 266.03633,673.05021 C 266.58633,672.71029 267.03633,672.90873 267.03633,673.49119 C 267.03633,674.07365 266.58633,674.55021 266.03633,674.55021 C 265.48633,674.55021 265.03633,674.35177 265.03633,674.10923 z M 256.64332,636.96842 C 255.83057,634.85044 255.83294,634.84224 257.43331,634.22812 C 258.33598,633.88173 258.99459,634.55155 259.29464,636.12113 C 259.81832,638.86059 257.63692,639.55771 256.64332,636.96842 z M 254.63666,629.71254 C 253.74479,628.26947 254.56182,626.87452 257.09202,625.5204 C 259.55429,624.20264 259.60229,625.62971 257.19567,628.60176 C 255.9352,630.15837 255.12858,630.5085 254.63666,629.71254 z M 277.03633,619.88516 C 277.03633,617.9119 279.49443,615.55021 281.54823,615.55021 C 283.37962,615.55021 283.06056,617.97619 281.203,618.17521 C 278.75441,618.43756 278.57549,618.60566 279.87086,619.42679 C 280.8855,620.06996 280.70572,620.4034 279.12086,620.81785 C 277.70261,621.18873 277.03633,620.89062 277.03633,619.88516 z M 289.08022,607.38354 C 289.05608,606.46688 288.56058,605.55829 287.9791,605.36447 C 286.41766,604.84399 287.75401,602.31933 290.75461,600.12093 C 293.35572,598.21522 293.37799,598.21522 292.57706,600.12093 C 292.13109,601.18203 291.17174,603.62521 290.44516,605.55021 C 289.71859,607.47521 289.10436,608.30021 289.08022,607.38354 z " />
    <path
       id="path7021"
       style="fill:#f91923;fill-opacity:1"
       d="M 358.19398,665.48488 C 356.90568,664.96868 355.44318,664.79876 354.94398,665.10729 C 354.44477,665.41581 354.03633,664.31851 354.03633,662.66882 C 354.03633,661.01914 352.91133,656.55064 351.53633,652.73882 C 348.63273,644.68936 348.39753,641.14001 350.64842,639.33964 C 351.53506,638.63045 354.06358,636.32622 356.26733,634.21913 C 361.04189,629.65399 362.38538,630.35847 361.18263,636.79651 C 360.24789,641.79994 361.05661,643.55021 364.30322,643.55021 C 365.95702,643.55021 365.76298,644.31693 362.60322,650.26749 C 358.81837,657.39523 358.07124,661.96589 360.53633,662.91184 C 361.36133,663.22842 362.03633,664.17656 362.03633,665.01883 C 362.03633,666.7505 361.51148,666.81417 358.19398,665.48488 z M 370.9124,663.30021 C 370.84423,663.16271 370.67813,661.34702 370.54327,659.26535 C 370.304,655.57185 371.87427,653.55021 374.98241,653.55021 C 376.36901,653.55021 375.17117,661.75687 373.63451,662.7849 C 372.54343,663.51483 371.1496,663.77869 370.9124,663.30021 z M 363.37157,659.76855 C 362.50646,659.2256 362.56812,658.54343 363.61124,657.11688 C 365.33683,654.75699 366.68952,655.78945 365.44342,658.51531 C 364.91002,659.68212 364.05649,660.19841 363.37157,659.76855 z M 258.056,582.56236 C 256.81459,581.79513 256.86036,581.55496 258.35748,580.98047 C 260.44397,580.17981 261.80637,581.18017 260.4613,582.52524 C 259.89328,583.09326 258.93883,583.10799 258.056,582.56236 z " />
    <path
       id="path7031"
       style="fill:#f91923;fill-opacity:1"
       d="M 429.61985,858.37694 C 428.56578,857.76509 426.31578,856.90309 424.61985,856.46138 C 413.64192,853.60216 407.3145,849.93951 409.52765,847.72521 C 410.20937,847.04313 413.86262,846.51307 417.53633,846.56321 C 424.24209,846.65473 425.47723,846.46118 427.00388,845.07958 C 427.93334,844.23842 429.35588,843.55021 430.16507,843.55021 C 430.97426,843.55021 432.17633,843.01021 432.83633,842.35021 C 434.45632,840.73022 434.47695,844.48906 432.86746,848.0215 C 431.85816,850.23666 431.99468,850.86275 433.86746,852.60751 C 436.45054,855.01401 436.54854,855.89514 434.4649,857.97878 C 432.62289,859.8208 432.17121,859.85792 429.61985,858.37694 z M 437.71038,839.8634 C 438.02323,837.76615 439.01205,835.45989 439.90776,834.73838 C 441.38213,833.55076 441.38798,833.31405 439.96963,832.23838 C 439.10795,831.58489 437.11685,828.75039 435.54498,825.9395 C 433.42664,822.1514 432.22512,820.94959 430.90216,821.29555 C 429.77199,821.59109 428.03713,820.57967 426.17247,818.53812 C 424.55281,816.76482 422.8116,815.57107 422.30311,815.88533 C 421.79463,816.19959 419.78565,815.14368 417.83873,813.53886 C 415.8918,811.93404 414.02567,810.8942 413.69176,811.22811 C 413.35786,811.56202 412.38791,811.25696 411.53633,810.55021 C 410.68475,809.84346 409.74157,809.51164 409.44037,809.81283 C 409.13918,810.11402 406.11256,808.75487 402.71454,806.79249 C 399.31652,804.83011 394.96133,802.39086 393.03633,801.37193 C 388.72836,799.09167 383.20455,793.19707 381.45754,789.01589 C 380.25761,786.14405 377.03633,782.45167 377.03633,783.94809 C 377.03633,784.30161 375.18716,783.64748 372.92706,782.49446 L 368.81778,780.39807 L 364.55635,784.97414 C 359.9077,789.96601 358.51656,790.64582 359.33214,787.52704 C 359.74592,785.94474 359.11761,785.19318 356.44877,784.07807 C 353.9775,783.04551 353.03211,782.01763 353.02102,780.35124 C 353.0126,779.08567 352.60389,777.41547 352.11279,776.63969 C 351.56581,775.77563 351.64701,774.54522 352.32238,773.46378 C 353.13395,772.16425 353.10933,771.00585 352.22908,769.07391 C 351.09319,766.58091 351.22123,766.37201 354.78481,764.90397 C 356.84815,764.05397 359.52661,762.44408 360.73694,761.32644 L 362.93755,759.29438 L 366.48694,761.38857 L 370.03633,763.48276 L 370.03633,761.1335 C 370.03633,759.16863 370.51591,758.80836 372.96743,758.93166 C 374.57953,759.01273 376.22953,759.41008 376.63409,759.81464 C 378.05224,761.23279 379.26467,760.53138 378.7562,758.58698 C 378.47383,757.5072 378.90263,756.07614 379.70909,755.40683 C 380.51555,754.73753 380.95638,753.3525 380.68873,752.32898 C 380.30867,750.87562 380.6137,750.59868 382.08143,751.06453 C 383.11508,751.39259 384.98055,751.11525 386.22693,750.44821 C 389.74431,748.56576 394.79066,748.46763 395.48162,750.26823 C 395.9201,751.41089 397.03638,751.67953 399.80453,751.30856 C 403.52948,750.80938 403.53618,750.81511 403.45724,754.42934 C 403.41374,756.42082 403.30124,758.60115 403.20724,759.27453 C 403.03798,760.48705 397.46276,763.92755 395.53633,764.00829 C 393.78138,764.08185 393.74494,769.50116 395.49488,770.17268 C 396.68256,770.62843 396.81072,771.11713 395.99903,772.09516 C 393.70567,774.85849 399.57081,781.90192 406.29364,784.45794 C 407.67882,784.98459 409.8751,787.33728 411.17424,789.68615 C 413.68209,794.22035 420.61894,800.15636 424.56807,801.14753 C 425.88247,801.47743 428.3028,801.06489 429.98943,800.22349 C 433.16589,798.63887 433.75479,799.33923 432.00115,802.61595 C 431.14006,804.2249 431.29822,804.55021 432.94155,804.55021 C 434.02812,804.55021 438.0359,805.67521 441.84772,807.05021 C 445.65954,808.42521 449.48817,809.55021 450.35579,809.55021 C 452.7229,809.55021 457.03633,813.98253 457.03633,816.41488 C 457.03633,819.00675 455.76885,819.14243 453.43675,816.80021 C 452.47842,815.83771 449.99241,814.54143 447.91229,813.91958 C 444.68301,812.95419 443.90416,813.03878 442.58329,814.49832 C 441.73246,815.43847 441.03633,817.8709 441.03633,819.9037 C 441.03633,822.90141 441.49718,823.77493 443.47553,824.52709 C 444.81709,825.03715 446.44906,826.45289 447.10214,827.67318 C 448.09592,829.53008 447.99314,830.10863 446.47181,831.22104 C 445.47205,831.95209 444.2413,832.55021 443.73679,832.55021 C 443.23229,832.55021 443.11939,833.74502 443.48591,835.20535 C 443.85243,836.66568 443.78872,838.12818 443.34432,838.45535 C 442.89993,838.78252 442.0381,839.95021 441.42915,841.05021 C 440.8202,842.15021 439.60637,843.19115 438.73176,843.3634 C 437.4259,843.62059 437.24327,842.99476 437.71038,839.8634 z M 372.62672,840.80021 C 372.32731,839.83771 371.8218,836.84166 371.50337,834.14233 C 371.18494,831.44299 370.27459,827.97784 369.48037,826.44199 C 367.68424,822.96866 367.68245,822.55021 369.46375,822.55021 C 370.24883,822.55021 371.77609,821.42521 372.85767,820.05021 C 377.44395,814.21971 381.03633,819.20802 381.03633,831.40693 C 381.03633,838.75203 380.88933,839.32453 379.12195,838.86235 C 377.86204,838.53288 376.8244,839.07769 376.08677,840.45597 C 374.72062,843.00864 373.35595,843.14441 372.62672,840.80021 z " />
    <path
       id="path7019"
       style="fill:#f91923;fill-opacity:1"
       d="M 334.00058,723.47596 C 332.76308,722.86307 331.75058,722.01832 331.75058,721.59874 C 331.75058,721.17916 330.86471,720.83587 329.78197,720.83587 C 327.34982,720.83587 316.12545,713.25515 315.2746,711.03787 C 314.60794,709.30058 318.80595,705.31348 319.73441,706.80213 C 320.72882,708.39654 324.27459,708.24799 326.89819,706.50199 C 330.70553,703.96824 334.91851,704.79284 336.65153,708.41099 C 337.42205,710.01968 338.65955,711.69573 339.40153,712.13556 C 341.13547,713.16341 341.09701,714.64799 339.24442,718.20018 C 338.42281,719.77555 337.75058,721.91305 337.75058,722.95018 C 337.75058,725.0391 337.28777,725.10399 334.00058,723.47596 z " />
    <path
       id="path7017"
       style="fill:#f91923;fill-opacity:1"
       d="M 338.12085,708.91941 C 337.8325,704.4262 331.10117,702.59963 326.90335,705.8755 C 325.27008,707.15006 323.88819,707.48736 322.51849,706.94579 C 321.41849,706.51085 321.09682,706.12336 321.80367,706.08471 C 322.51052,706.04605 324.17779,705.30092 325.50872,704.42887 C 327.41807,703.17781 327.70962,702.49217 326.89071,701.17887 C 324.58093,697.47463 332.32646,684.54169 337.40639,683.62053 C 338.8249,683.3633 340.40231,682.89524 340.91175,682.58039 C 342.49356,681.60278 345.01849,683.13614 345.01849,685.07436 C 345.01849,686.08963 344.46128,688.14325 343.78025,689.63795 C 342.79593,691.7983 342.79593,692.44023 343.78025,692.76834 C 345.89447,693.47308 345.15163,695.53987 341.92732,697.92371 C 339.85739,699.45407 338.99446,700.81454 339.31536,702.04164 C 339.57893,703.04953 339.44102,705.36823 339.00889,707.1943 C 338.57677,709.02036 338.17715,709.79666 338.12085,708.91941 z " />
    <path
       id="path7015"
       style="fill:#f91923;fill-opacity:1"
       d="M 369.70928,746.15921 C 367.67298,744.51032 366.95099,744.45377 362.54079,745.59776 C 359.84352,746.29742 356.97926,746.6176 356.17576,746.30927 C 354.16437,745.53743 354.34676,741.95258 356.71436,735.72338 C 357.81408,732.82998 358.71408,730.3774 358.71436,730.2732 C 358.71463,730.16901 355.61228,729.77803 351.82025,729.40438 C 346.03982,728.83479 344.72794,728.3556 343.7023,726.43918 C 343.02946,725.18198 342.78556,723.65727 343.16029,723.05094 C 343.53503,722.44461 343.09117,721.66055 342.17394,721.30857 C 340.86023,720.80446 340.63498,719.86363 341.11273,716.87599 C 341.45976,714.70575 341.2851,712.81508 340.70442,712.4562 C 340.14629,712.11125 339.76362,709.27159 339.85403,706.14584 C 339.99888,701.13806 340.38662,700.14221 343.11664,697.76635 C 345.79215,695.43792 346.05126,694.80282 345.01581,693.1115 C 344.09166,691.60199 344.08645,690.43845 344.99307,688.03653 C 345.90557,685.61906 345.89414,684.47937 344.94213,682.95495 C 342.98657,679.82362 343.4767,678.96265 347.21486,678.96265 C 349.76287,678.96265 350.71486,679.39975 350.71486,680.56964 C 350.71486,681.55508 351.27003,681.96359 352.15025,681.62582 C 352.93972,681.32287 353.81271,681.61222 354.09022,682.26883 C 354.36774,682.92543 354.50932,681.88792 354.40483,679.96326 C 354.24504,677.01973 354.57462,676.4127 356.47969,676.14176 C 357.92603,675.93607 358.47828,675.39376 358.00781,674.64116 C 357.60262,673.99298 357.12943,672.78765 356.95629,671.96265 C 356.3338,668.99665 356.14627,668.44287 355.31151,667.10552 C 354.64669,666.04042 354.97552,665.91386 356.83963,666.51737 C 358.14601,666.94031 360.33986,667.43239 361.71486,667.61088 C 367.48475,668.35987 368.70685,668.62131 369.32424,669.2387 C 369.68181,669.59627 371.82848,669.6537 374.09461,669.36632 C 376.36075,669.07895 380.46486,669.35443 383.21486,669.97851 C 385.96486,670.60259 389.27954,671.2285 390.58081,671.36942 C 393.86684,671.72528 395.24303,674.50802 393.75169,677.78115 C 392.79058,679.89057 392.83863,680.57998 394.00627,681.43378 C 394.79789,682.01263 396.81944,685.20785 398.49861,688.53427 C 400.17779,691.86069 402.26338,695.17299 403.13326,695.89493 C 405.29227,697.68675 405.26592,701.38809 403.10008,700.55698 C 402.07187,700.16242 400.1383,701.15425 397.7772,703.28737 C 395.73774,705.12989 391.75784,707.72309 388.93297,709.05003 C 383.29705,711.69742 382.70611,712.50771 385.71486,713.46265 C 386.81486,713.81178 387.71486,714.72539 387.71486,715.49291 C 387.71486,717.77556 395.6462,724.69892 399.03841,725.37736 L 402.18172,726.00602 L 397.7243,729.84503 C 392.97688,733.93381 393.00324,733.72461 396.4449,739.99902 C 396.60671,740.29402 395.30106,740.64496 393.54346,740.77889 C 391.78585,740.91281 389.86397,741.42394 389.27261,741.91472 C 388.68125,742.4055 385.08253,743.52944 381.27545,744.41237 C 377.46837,745.29529 373.81802,746.46207 373.16356,747.00523 C 372.34915,747.68113 371.25905,747.41415 369.70928,746.15921 z " />
    <path
       id="path7013"
       style="fill:#f91923;fill-opacity:1"
       d="M 338.70961,722.37194 C 338.70961,720.15769 338.9325,720.00266 340.60983,721.05017 C 342.67897,722.34237 342.34288,724.88041 340.10262,724.88041 C 339.28215,724.88041 338.70961,723.8494 338.70961,722.37194 z " />
    <path
       id="path7011"
       style="fill:#f91923;fill-opacity:1"
       d="M 352.7656,763.23673 C 352.7656,760.56512 349.06479,759.48416 346.24458,761.33203 C 342.91088,763.51635 342.23365,762.67228 344.7516,759.47123 C 345.8593,758.06302 346.7656,756.20932 346.7656,755.3519 C 346.7656,752.75753 353.7252,746.48247 355.95568,747.06576 C 357.02946,747.34656 360.06523,747.01672 362.70183,746.3328 C 366.92821,745.23649 367.74838,745.29394 369.63063,746.81809 C 370.80486,747.76893 371.7656,748.97974 371.7656,749.50878 C 371.7656,750.03783 373.5656,750.75852 375.7656,751.11031 C 379.93687,751.77732 380.91689,753.52592 378.32504,755.67697 C 377.52209,756.34336 377.16235,757.61474 377.51227,758.54941 C 378.04084,759.96128 377.89344,760.02602 376.57958,758.95905 C 375.72131,758.26206 374.28706,757.9727 373.39235,758.31604 C 372.43363,758.68393 371.7656,758.43541 371.7656,757.71084 C 371.7656,756.74514 371.44384,756.74845 370.2656,757.7263 C 369.4406,758.41099 368.7656,759.58144 368.7656,760.32731 C 368.7656,761.41092 368.26324,761.45453 366.2656,760.54435 C 364.8906,759.91785 363.7656,758.94331 363.7656,758.37869 C 363.7656,757.81408 362.5281,758.53268 361.0156,759.97559 C 357.39979,763.42504 352.7656,765.25689 352.7656,763.23673 z " />
    <path
       id="path7009"
       style="fill:#f91923;fill-opacity:1"
       d="M 375.38448,748.75551 C 373.80505,747.17607 374.00688,746.99193 378.61812,745.80521 C 381.32314,745.10907 385.78633,743.83808 388.53633,742.9808 C 391.28633,742.12352 394.43633,741.29553 395.53633,741.14083 C 397.87677,740.81167 397.95011,740.06378 396.02358,736.17241 C 394.63829,733.37429 394.70858,733.20248 398.56228,729.96711 C 401.08095,727.85255 402.87395,726.98783 403.48102,727.5949 C 404.00644,728.12032 405.68776,728.55021 407.21728,728.55021 C 409.34963,728.55021 410.14457,727.96714 410.62569,726.05021 C 411.27586,723.45972 411.53458,723.38408 420.53633,723.15293 C 424.07787,723.06198 424.57597,723.33675 424.88215,725.55021 C 425.07235,726.92521 425.64261,728.55567 426.1494,729.17346 C 427.28625,730.5593 426.22382,733.63537 424.67255,733.44943 C 421.25286,733.03954 420.73646,733.56138 422.56373,735.58049 C 425.29113,738.59423 423.55147,742.51934 418.33845,745.1138 C 416.05571,746.2499 413.59139,747.6533 412.86217,748.23248 C 412.13296,748.81165 408.10232,749.584 403.90519,749.9488 C 397.71731,750.48663 396.16861,750.33731 395.71656,749.15928 C 395.11796,747.59937 389.45353,747.5563 386.9675,749.09275 C 384.30674,750.73719 377.15803,750.52905 375.38448,748.75551 z " />
    <path
       id="path7007"
       style="fill:#f91923;fill-opacity:1"
       d="M 427.24094,606.10243 C 427.57479,605.23245 427.84793,604.33245 427.84793,604.10243 C 427.84793,603.87242 428.98876,603.68422 430.38311,603.68422 C 432.60842,603.68422 432.78747,603.92868 431.84793,605.68422 C 430.54241,608.12361 426.31819,608.50708 427.24094,606.10243 z M 442.5181,607.02106 C 442.14951,606.65247 441.84793,605.30089 441.84793,604.01755 C 441.84793,601.48247 440.88354,601.04861 439.13506,602.79709 C 437.49459,604.43756 436.05091,603.09376 434.73492,598.70137 C 433.63396,595.02667 433.733,594.62262 436.45736,591.67479 C 440.26108,587.55906 446.2488,584.49603 449.09626,585.20934 C 450.33477,585.5196 452.22345,585.13251 453.2937,584.34908 C 454.7338,583.2949 455.95761,583.1751 458.00284,583.88807 C 461.30628,585.03965 462.26656,587.45294 460.87633,591.10951 C 460.02317,593.35351 460.2674,594.40764 462.35087,597.47373 C 463.72425,599.49485 464.84793,601.42569 464.84793,601.76448 C 464.84793,602.10328 463.07664,603.17921 460.91172,604.15546 C 458.0095,605.46417 455.78913,605.75253 452.45919,605.25317 C 449.14497,604.75618 447.3101,604.99051 445.56557,606.13357 C 444.25806,606.99029 442.8867,607.38966 442.5181,607.02106 z M 427.32094,599.72789 C 427.64601,599.20191 428.57257,599.02506 429.37996,599.33488 C 431.44707,600.12811 431.20348,600.68422 428.78891,600.68422 C 427.65645,600.68422 426.99586,600.25387 427.32094,599.72789 z " />
    <path
       id="path7005"
       style="fill:#c5c5c5;fill-opacity:1"
       d="M 427.34015,630.48664 C 426.9821,629.9073 426.99491,626.79875 427.36863,623.57876 C 427.85205,619.4136 428.69241,617.11895 430.28091,615.62664 L 432.5137,613.52904 L 436.94341,616.42507 C 440.29552,618.61658 442.16375,619.19848 444.62313,618.81705 C 448.01551,618.29092 448.74865,617.1995 446.62313,615.83969 C 445.93563,615.39986 444.85763,613.59846 444.22757,611.83658 C 443.18479,608.92054 443.29823,608.49148 445.49203,607.05405 C 447.27217,605.88766 449.16356,605.6423 452.72884,606.11525 C 456.29074,606.58775 458.41015,606.31366 460.81643,605.06932 C 463.97905,603.43387 464.15017,603.45163 466.5003,605.65947 C 467.83299,606.91147 470.03995,609.93359 471.40464,612.37531 L 473.88592,616.81478 L 469.94153,620.33376 C 465.42623,624.36207 461.81667,625.08521 454.15935,623.4956 C 449.3497,622.49714 448.61333,622.60793 444.65935,624.92496 C 442.30193,626.3064 438.46913,627.74108 436.14201,628.11313 C 433.81489,628.48518 431.39729,629.40842 430.76956,630.16479 C 429.40463,631.80943 428.22604,631.92004 427.34015,630.48664 z " />
    <path
       id="path7003"
       style="fill:#c5c5c5;fill-opacity:1"
       d="M 449.69592,648.75743 C 448.23315,647.991 447.03633,646.93867 447.03633,646.41892 C 447.03633,645.89916 445.96531,644.77215 444.65629,643.91444 C 442.55762,642.53934 441.7892,642.52279 438.15629,643.77443 C 434.36881,645.07932 434.03633,645.05405 434.03633,643.46131 C 434.03633,642.50841 432.72792,639.78059 431.12876,637.39949 L 428.22119,633.07023 L 430.37876,631.3939 C 431.56542,630.47191 434.33633,629.39385 436.53633,628.99819 C 438.73633,628.60254 442.46513,627.15882 444.82255,625.78993 C 448.8341,623.46053 449.46413,623.37481 454.65434,624.4523 C 457.70441,625.08549 461.21979,625.34759 462.46629,625.03473 C 465.91502,624.16916 467.47245,628.21417 464.95268,631.49245 C 463.92315,632.83189 463.06079,635.5028 463.03633,637.4278 C 462.98501,641.46712 461.01443,644.33265 455.94592,647.73839 C 452.68233,649.93132 452.11341,650.02408 449.69592,648.75743 z " />
    <path
       id="path7001"
       style="fill:#c5c5c5;fill-opacity:1"
       d="M 427.03633,654.74985 C 427.03633,654.45166 427.82383,653.30845 428.78633,652.20939 C 430.453,650.30624 430.453,650.24147 428.78633,650.84926 C 427.82383,651.20026 427.05064,651.16406 427.06813,650.76883 C 427.13691,649.2148 429.63949,647.04191 431.53633,646.88926 C 432.63633,646.80074 435.43248,646.02109 437.74999,645.15671 C 440.06751,644.29232 442.66751,643.85519 443.52777,644.1853 C 445.42856,644.9147 447.34009,648.2497 446.57081,649.49442 C 445.47771,651.2631 427.03633,656.22445 427.03633,654.74985 z " />
    <path
       id="path6999"
       style="fill:#f91923;fill-opacity:1"
       d="M 436.09261,710.19823 C 435.36353,708.28061 434.32048,707.50937 432.31108,707.40215 C 430.78497,707.32072 428.63633,707.20822 427.53633,707.15215 C 426.43633,707.09608 425.64243,706.5069 425.77211,705.84286 C 426.09423,704.19342 419.04607,702.91642 418.09688,704.45225 C 417.21811,705.87412 414.03633,704.8171 414.03633,703.10328 C 414.03633,702.42516 412.23633,701.27628 410.03633,700.55021 C 407.83633,699.82414 406.03633,698.68222 406.03633,698.0126 C 406.03633,697.34297 405.32338,696.2034 404.45199,695.48021 C 403.5806,694.75703 401.3465,691.14473 399.48731,687.45288 C 397.62813,683.76103 395.60496,680.57309 394.99138,680.36856 C 394.17984,680.09805 394.19675,679.29224 395.05341,677.41206 C 396.00424,675.32523 395.93055,674.24633 394.67079,671.81023 C 393.23746,669.03848 393.24988,668.66923 394.82343,667.27121 C 395.76553,666.4342 398.18047,665.07065 400.18997,664.24108 C 402.19947,663.41152 404.10892,661.90421 404.43319,660.8915 C 405.04525,658.97998 413.73012,652.55021 415.69999,652.55021 C 416.31729,652.55021 417.07235,653.20168 417.37789,653.99792 C 418.31083,656.42913 423.94702,658.86922 425.55234,657.53692 C 426.30713,656.91051 429.93534,655.76807 433.61504,654.99818 C 437.29473,654.22828 442.20732,652.67766 444.5319,651.55235 C 446.85648,650.42704 449.45438,649.7734 450.30501,650.09982 C 451.15563,650.42623 452.85088,653.0162 454.07223,655.8553 C 455.29358,658.69441 457.01554,661.54574 457.89881,662.1916 C 459.31716,663.22873 459.34447,663.80915 458.13261,667.16049 C 456.84682,670.71628 456.89502,671.04443 458.8984,672.37462 C 460.23694,673.26338 461.03633,674.84314 461.03633,676.5996 C 461.03633,678.37202 461.92254,680.10215 463.44307,681.29819 C 466.66724,683.83433 466.78104,685.77336 464.20032,694.20125 C 462.48721,699.79577 462.23548,701.94382 463.04383,704.06993 L 464.07707,706.78757 L 457.8067,706.11995 C 452.96046,705.60396 451.08209,705.7969 449.53633,706.96947 C 448.43633,707.80389 446.79697,708.50091 445.89332,708.51841 C 444.98966,708.5359 443.97184,709.27589 443.63149,710.16283 C 443.11061,711.52022 442.76,711.56576 441.41628,710.45058 C 440.06659,709.33044 439.6097,709.41317 438.45964,710.98597 C 437.16851,712.7517 437.04822,712.71167 436.09261,710.19823 z " />
    <path
       id="path8303"
       style="fill:#f91923;fill-opacity:1"
       d="M 402.17555,725.54303 C 400.87711,724.44698 399.06399,723.55021 398.14639,723.55021 C 396.13903,723.55021 389.03633,716.87297 389.03633,714.98585 C 389.03633,714.25091 388.31607,713.24651 387.43575,712.75386 C 386.14177,712.02971 386.7643,711.32438 390.68575,709.07163 C 393.35357,707.53905 396.78864,705.12139 398.31924,703.69904 C 402.78019,699.55361 409.43,699.94388 414.11202,704.6259 C 416.15988,706.67376 419.03633,707.21368 419.03633,705.55021 C 419.03633,703.879 422.87188,704.43394 423.88953,706.25238 C 424.41346,707.18858 426.12332,708.03055 427.68922,708.12344 C 429.25513,708.21632 431.54883,708.35034 432.78633,708.42126 C 435.66603,708.5863 435.83498,712.05242 433.03633,713.55021 C 431.93633,714.13891 431.03633,715.26391 431.03633,716.05021 C 431.03633,716.83651 430.02383,718.01304 428.78633,718.66473 C 427.54883,719.31642 426.29201,720.22054 425.99339,720.6739 C 425.69478,721.12725 422.09478,721.62238 417.99339,721.77419 C 410.93562,722.03543 410.5093,722.18407 410.03158,724.55021 C 409.37932,727.78082 405.41939,728.28127 402.17555,725.54303 z " />
    <path
       id="path8301"
       style="fill:#c5c5c5;fill-opacity:1"
       d="M 459.61816,671.99317 C 457.98074,670.79006 457.87097,670.20856 458.86816,668.01995 C 460.44213,664.56546 460.34002,661.88073 458.60941,661.21663 C 457.82461,660.91547 456.22208,658.50483 455.04825,655.85964 L 452.914,651.05021 L 455.13379,649.55021 C 460.81157,645.71351 464.03612,641.44248 464.05857,637.72901 C 464.07094,635.68174 464.92184,632.95574 465.97717,631.58238 C 467.4036,629.72612 467.62615,628.6523 466.87523,627.2492 C 465.75834,625.16226 467.87727,622.05286 471.11706,621.02459 C 472.11639,620.70741 473.20741,619.58656 473.54154,618.5338 C 474.38499,615.87631 480.00635,614.94667 483.65919,616.86059 C 486.24654,618.21624 486.84473,618.17844 490.24345,616.44454 L 493.98181,614.53737 L 495.4366,616.79379 C 496.23674,618.03482 497.45135,620.29894 498.13576,621.82516 C 499.55756,624.99589 508.51596,630.55021 512.20806,630.55021 C 514.81706,630.55021 517.03636,632.20548 517.03636,634.15143 C 517.03636,634.81211 515.43326,636.29847 513.47406,637.45446 L 509.91176,639.55626 L 512.10166,643.45265 L 514.29156,647.34904 L 511.62026,650.85134 C 509.69786,653.37169 509.12136,655.0407 509.56396,656.80418 C 510.14186,659.10672 509.88086,659.29004 505.24326,659.8393 C 502.52866,660.16081 497.43402,661.60549 493.92193,663.04971 C 488.4203,665.31207 486.66126,665.5856 481.21508,665.02567 C 475.98918,664.48838 473.94676,664.76015 469.42835,666.59404 C 466.28012,667.87181 463.44848,669.78539 462.7496,671.10742 C 461.6635,673.16198 461.33528,673.25482 459.61816,671.99317 z " />
    <path
       id="path8305"
       style="fill:#f91923;fill-opacity:1"
       d="M 516.28006,729.88585 C 515.58916,729.6073 515.29966,728.93312 515.63676,728.38768 C 515.97386,727.84224 516.87646,724.70907 517.64256,721.42507 L 519.03556,715.45416 L 514.03596,710.45457 C 511.28616,707.70479 509.03636,705.03279 509.03636,704.51678 C 509.03636,704.00077 507.26646,702.40732 505.10326,700.97578 C 500.80726,698.13284 497.5563,698.33658 496.54849,701.5119 C 496.22391,702.53457 494.85089,704.09692 493.49734,704.9838 C 492.14378,705.87069 491.03633,707.23062 491.03633,708.00588 C 491.03633,708.78113 490.03287,709.73392 488.80643,710.12318 C 487.57998,710.51244 485.29596,712.20177 483.73082,713.87725 C 481.71239,716.03799 480.66495,716.56734 480.12776,715.69814 C 479.60374,714.85027 478.62569,714.74895 476.95336,715.36932 C 472.14529,717.15291 464.62267,717.55297 462.74059,716.12515 C 460.70383,714.57998 461.2411,709.88174 463.67848,707.92373 C 464.7573,707.05708 464.84199,706.16927 464.04567,704.07477 C 463.23502,701.94261 463.48539,699.80171 465.20032,694.20125 C 467.80244,685.70348 467.68595,683.65145 464.46321,681.2168 C 459.43961,677.42168 461.99316,670.61176 469.59709,667.52555 C 473.9397,665.76301 476.0325,665.49283 481.21508,666.02567 C 486.63686,666.58309 488.42574,666.30974 493.78691,664.10458 C 497.22472,662.69054 502.39976,661.18234 505.28686,660.75303 C 510.28626,660.00965 510.52636,659.83605 510.32716,657.10842 C 510.10306,654.04025 513.36576,648.55021 515.41326,648.55021 C 516.09566,648.55021 519.28366,646.96668 522.49776,645.03126 C 529.03356,641.09562 531.27936,641.18573 533.49616,645.47258 C 535.45776,649.26577 539.07186,651.45724 542.33666,650.83313 C 544.44046,650.43096 545.67206,651.01929 548.04566,653.56021 C 550.79506,656.50347 551.44636,656.74026 555.15926,656.14655 C 557.40706,655.7871 560.58336,654.80159 562.21746,653.95652 C 564.89586,652.57152 565.42386,652.57411 567.57386,653.98286 C 569.55606,655.28164 570.81716,655.36165 575.03806,654.45643 C 582.96256,652.75691 583.03636,652.85947 583.03636,665.58339 L 583.03636,676.67933 L 580.00036,679.23389 C 578.33066,680.63889 576.35096,682.97234 575.60106,684.41933 C 573.66616,688.153 569.38916,692.55021 567.69246,692.55021 C 566.90086,692.55021 565.95356,693.74374 565.58746,695.2025 C 564.93136,697.81668 559.67226,703.55021 557.93056,703.55021 C 557.43876,703.55021 557.03636,704.00021 557.03636,704.55021 C 557.03636,705.10021 556.13636,705.55021 555.03636,705.55021 C 553.88696,705.55021 553.03636,706.21688 553.03636,707.1176 C 553.03636,708.22991 552.45566,708.50068 551.03636,708.05021 C 549.91806,707.69529 549.03636,707.87051 549.03636,708.44764 C 549.03636,710.18437 545.33456,711.59609 543.02286,710.74094 C 541.08176,710.02287 541.02296,709.80619 542.44846,708.62317 C 544.69076,706.76218 544.42736,705.27059 542.07836,706.52774 C 540.49756,707.37374 539.91276,707.18785 539.04316,705.56292 C 538.45066,704.45593 537.51596,703.55021 536.96596,703.55021 C 536.32276,703.55021 536.34786,704.26379 537.03636,705.55021 C 537.62506,706.65021 537.86586,707.60646 537.57156,707.67521 C 537.27716,707.74396 536.62706,707.85646 536.12686,707.92521 C 534.19906,708.19019 531.03636,713.511 531.03636,716.48932 C 531.03636,718.39464 530.42886,719.84609 529.47886,720.21064 C 528.62226,720.53935 528.14566,721.39279 528.41986,722.10717 C 528.97786,723.5613 520.94596,730.59445 518.86806,730.47126 C 518.13556,730.42784 516.97106,730.16441 516.28006,729.88585 z " />
    <path
       id="path8299"
       style="fill:#c5c5c5;fill-opacity:1"
       d="M 513.48516,723.89186 C 512.73356,718.70178 511.56536,716.55021 509.49886,716.55021 C 508.06886,716.55021 504.71656,713.93555 499.04616,708.39744 L 495.30614,704.74467 L 497.59065,701.89744 L 499.87516,699.05021 L 503.41286,700.93459 C 505.35856,701.971 508.17916,704.59189 509.68086,706.75879 C 511.18256,708.9257 513.69236,711.70129 515.25826,712.92679 L 518.10536,715.15495 L 516.63576,721.45429 C 515.82756,724.91892 514.94576,727.9741 514.67626,728.24357 C 514.40686,728.51303 513.87086,726.55477 513.48516,723.89186 z " />
    <path
       id="path8164"
       style="fill:#f91923;fill-opacity:1"
       d="M 429.03633,729.65545 C 426.9083,729.06351 426.53633,728.37159 426.53633,725.00513 C 426.53633,721.85813 426.99783,720.84776 428.79545,720.05915 C 430.03797,719.51407 431.34095,718.1658 431.69097,717.06299 C 432.45444,714.6575 435.15607,712.50618 436.42701,713.29166 C 436.92901,713.60192 437.99811,712.99951 438.80279,711.95299 C 439.82692,710.62105 440.40641,710.42521 440.73442,711.30021 C 441.26825,712.72428 444.03633,713.01851 444.03633,711.65118 C 444.03633,711.15671 445.91139,709.77481 448.20314,708.58028 C 451.5234,706.84967 453.32634,706.53996 457.07738,707.05586 L 461.78481,707.70329 L 460.80537,711.562 C 459.90042,715.12723 459.63993,715.35 457.3805,714.49096 C 454.5055,713.39789 448.08875,716.20958 445.711,719.60429 C 444.90938,720.74877 442.74215,722.4878 440.89492,723.46882 C 439.0477,724.44984 436.94928,726.44447 436.23176,727.90135 C 434.91099,730.58313 433.55753,730.91307 429.03633,729.65545 z " />
    <path
       id="path8148"
       style="fill:#f91923;fill-opacity:1"
       d="M 434.53633,751.34366 C 431.5197,750.28919 425.10267,745.98462 423.87972,744.19516 C 423.51858,743.66674 423.71851,742.1471 424.32399,740.8182 C 425.14158,739.02379 425.11755,737.90991 424.2306,736.48969 C 422.67453,733.99801 422.72414,733.49318 424.45964,734.15915 C 425.27868,734.47345 426.36298,733.80837 427.01365,732.59259 C 427.92046,730.89819 428.77719,730.59002 431.34034,731.03622 C 435.00562,731.67429 436.64942,730.85973 437.17065,728.14708 C 437.37177,727.10036 439.2346,725.36315 441.31026,724.28662 C 443.38592,723.21009 445.53847,721.48047 446.0937,720.44302 C 447.78122,717.28985 454.49632,714.3944 457.4857,715.53096 C 458.88855,716.06432 460.03633,716.2614 460.03633,715.96892 C 460.03633,715.67644 461.49883,716.25008 463.28633,717.24367 C 465.07383,718.23727 466.70462,719.1435 466.9103,719.25751 C 467.11598,719.37153 466.26132,721.17153 465.01106,723.25751 C 463.76079,725.3435 462.60604,728.17521 462.44494,729.55021 C 461.40758,738.40429 460.7357,740.36616 458.37197,741.44314 C 457.03561,742.05203 455.08996,742.55021 454.04829,742.55021 C 453.00663,742.55021 451.84848,743.04513 451.47463,743.65004 C 450.70961,744.88787 439.05355,752.59364 438.13129,752.47126 C 437.80406,752.42784 436.18633,751.92042 434.53633,751.34366 z " />
    <path
       id="path8142"
       style="fill:#c5c5c5;fill-opacity:1"
       d="M 481.78633,761.87155 C 480.82383,761.61415 480.03633,760.56312 480.03633,759.5359 C 480.03633,758.50869 479.56448,757.37662 478.98777,757.0202 C 478.25925,756.56995 478.26602,755.97837 479.00995,755.082 C 479.83086,754.09287 479.43387,753.66621 477.30851,753.25337 C 475.78381,752.95721 474.38633,753.12785 474.203,753.63256 C 473.58742,755.32721 468.54866,754.60022 467.32456,752.64014 C 466.66849,751.5896 464.64777,750.40414 462.83406,750.00578 C 461.02036,749.60743 458.92575,748.40965 458.17938,747.34405 C 457.433,746.27845 455.85798,745.01744 454.67933,744.54179 C 452.89551,743.82193 452.83797,743.66636 454.33599,743.6136 C 455.3258,743.57873 457.4013,742.89572 458.94821,742.09578 C 461.73195,740.65625 462.25912,739.19187 463.46461,729.55021 C 463.63653,728.17521 464.99897,724.91271 466.49225,722.30021 C 468.52048,718.75183 469.80165,717.55021 471.55672,717.55021 C 472.8489,717.55021 475.04449,717.1174 476.43583,716.58842 C 478.05529,715.9727 479.17941,715.9727 479.55995,716.58842 C 480.58404,718.24544 482.87342,717.63885 483.54165,715.53344 C 483.89371,714.42422 485.94903,712.61507 488.10904,711.51312 C 490.26905,710.41116 492.03633,708.87027 492.03633,708.0889 C 492.03633,704.58389 497.32489,705.73329 498.51976,709.498 C 498.86016,710.57045 499.97016,711.71182 500.98646,712.03437 C 502.00276,712.35693 503.89226,713.67649 505.18526,714.96673 C 506.47836,716.25697 508.40086,717.47858 509.45756,717.68142 C 510.91066,717.96034 511.65766,719.447 512.52316,723.78244 C 513.85326,730.44551 513.78876,730.35264 517.60926,731.10844 C 519.74926,731.5318 521.13006,731.13127 522.74456,729.61886 C 525.73406,726.81822 527.68586,727.01791 528.48616,730.20627 C 528.93666,732.00148 528.64776,733.36738 527.59456,734.42056 C 526.48196,735.53317 526.03636,735.61465 526.03636,734.70548 C 526.03636,734.00516 525.65766,733.66622 525.19476,733.95228 C 524.28046,734.51733 524.38906,737.65237 525.55376,744.3256 L 526.30006,748.60098 L 523.66816,747.60035 C 522.11786,747.01092 520.11166,746.95125 518.78636,747.45516 C 517.54886,747.92566 516.23366,748.25202 515.86386,748.18041 C 514.48196,747.91287 507.05456,753.11418 506.51106,754.73002 C 505.41846,757.97881 487.05936,763.28166 481.78633,761.87155 z " />
    <path
       id="path8160"
       style="fill:#c5c5c5;fill-opacity:1"
       d="M 468.03633,787.10845 C 468.03633,786.27677 466.93849,784.87698 465.59668,783.99779 C 464.25487,783.11861 463.38741,781.79889 463.669,781.06508 C 463.97385,780.27064 463.24148,779.46495 461.85865,779.0735 C 456.38324,777.52356 454.19481,776.30079 454.67175,775.0579 C 454.94726,774.33993 454.68466,773.4509 454.08819,773.08226 C 453.49172,772.71363 453.28478,771.95723 453.62831,771.40138 C 453.97184,770.84554 452.88478,769.05315 451.21262,767.4183 C 449.54045,765.78345 447.8643,763.00683 447.48784,761.24803 C 447.11137,759.48923 445.95578,757.24518 444.91984,756.26125 C 441.97138,753.46081 442.66835,751.19459 447.53251,747.76601 C 451.21882,745.16766 452.46874,744.76411 454.47171,745.52564 C 455.81537,746.0365 457.37989,747.32365 457.94843,748.38597 C 458.52111,749.45603 460.54977,750.61155 462.49708,750.97687 C 464.46523,751.3461 466.47292,752.49746 467.05936,753.59324 C 467.78965,754.95781 469.15555,755.55021 471.57151,755.55021 C 473.47716,755.55021 475.03633,755.11433 475.03633,754.58159 C 475.03633,754.04886 475.73074,753.87945 476.57946,754.20513 C 477.42818,754.53082 477.88208,755.03779 477.58813,755.33174 C 477.29419,755.62569 477.55286,756.46766 478.16296,757.2028 C 478.77307,757.93793 479.24733,760.34484 479.21688,762.55149 C 479.16921,766.00506 479.57042,766.77504 482.09892,768.08258 C 485.43129,769.80581 485.50863,770.10003 483.53633,773.55021 C 482.75031,774.92521 482.09125,777.40647 482.07177,779.06413 C 482.0406,781.71467 481.40335,782.36928 476.78633,784.49358 C 473.89883,785.82212 470.74883,787.29419 469.78633,787.76484 C 468.51393,788.38704 468.03633,788.2079 468.03633,787.10845 z " />
    <path
       id="path8140"
       style="fill:#f91923;fill-opacity:1"
       d="M 403.91791,762.20659 C 403.85278,761.57058 403.94024,760.60021 404.11226,760.05021 C 404.28429,759.50021 404.45008,757.25021 404.48068,755.05021 C 404.53396,751.22052 404.68535,751.03624 408.03633,750.72203 C 409.96133,750.54153 412.21133,749.82948 413.03633,749.13968 C 415.77575,746.84921 422.22578,744.33966 423.10739,745.22127 C 424.45644,746.57032 423.02622,750.41864 420.92836,751.08448 C 419.88774,751.41476 419.03633,752.48751 419.03633,753.46837 C 419.03633,754.44924 418.55352,756.63676 417.96342,758.32953 C 417.147,760.6715 416.39745,761.31234 414.82811,761.01011 C 413.69379,760.79166 412.52562,760.37284 412.23217,760.07939 C 411.93873,759.78594 410.98711,760.15837 410.11748,760.907 C 407.90222,762.81403 404.06254,763.61893 403.91791,762.20659 z " />
    <path
       id="path8156"
       style="fill:#c5c5c5;fill-opacity:1"
       d="M 443.53633,785.9521 L 440.53633,784.53886 L 443.53428,785.12582 C 446.66473,785.73872 447.65615,786.26998 446.953,786.95778 C 446.72383,787.18194 445.18633,786.72938 443.53633,785.9521 z M 426.92016,779.9078 C 426.39758,779.27947 424.57911,778.18925 422.87912,777.48509 C 420.18507,776.36918 419.99449,776.05397 421.39479,775.03005 C 422.81856,773.98896 422.72354,773.72872 420.55957,772.74275 C 419.21659,772.13085 417.1758,769.78376 416.02449,767.52701 C 414.58869,764.7126 413.39804,763.54084 412.23376,763.7964 C 410.46285,764.18512 410.38737,764.73466 411.64947,768.05021 C 412.31092,769.78785 412.20114,769.87986 410.81259,768.75165 C 409.59826,767.76499 409.03868,767.73739 408.48284,768.63675 C 407.9871,769.43888 407.32517,769.05162 406.42925,767.43531 C 404.63552,764.19926 404.71649,763.55021 406.91389,763.55021 C 407.94654,763.55021 409.34753,762.88016 410.02719,762.06122 C 410.70686,761.24228 411.66938,760.82342 412.16613,761.13043 C 412.66289,761.43744 414.1289,761.88077 415.42393,762.11561 C 417.49605,762.49135 417.93493,761.97315 419.08204,757.79639 C 419.79897,755.18599 421.43197,752.0592 422.71094,750.84796 C 423.9899,749.63672 425.03633,748.15132 425.03633,747.54707 C 425.03633,746.94282 426.49883,747.53418 428.28633,748.86122 C 432.8627,752.2587 437.76814,753.76411 440.135,752.4974 C 441.61966,751.70284 442.03633,751.81628 442.03633,753.01503 C 442.03633,753.85938 442.93633,755.45021 444.03633,756.55021 C 446.03163,758.54551 446.75276,761.55021 445.23633,761.55021 C 444.79633,761.55021 443.98727,761.10115 443.43842,760.5523 C 442.77453,759.88841 440.54156,760.04899 436.76741,761.03204 C 433.64721,761.84475 430.46429,762.26793 429.69426,761.97244 C 428.92423,761.67695 427.57128,762.15811 426.68771,763.04169 C 425.80413,763.92526 424.50861,764.57283 423.80877,764.48072 C 419.28275,763.88502 419.20555,767.09219 423.64364,771.34068 C 424.95962,772.60044 426.03633,774.03261 426.03633,774.52329 C 426.03633,775.01397 427.04883,775.73141 428.28633,776.1176 C 429.52383,776.5038 430.85133,777.31178 431.23633,777.91311 C 431.62134,778.51445 433.42134,779.52324 435.23633,780.15488 C 438.45869,781.27628 438.41085,781.30033 433.20332,781.17676 C 430.27016,781.10716 427.44274,780.53612 426.92016,779.9078 z " />
    <path
       id="path8158"
       style="fill:#c5c5c5;fill-opacity:1"
       d="M 441.88816,783.84378 C 440.38835,783.61341 439.03164,782.64029 438.75953,781.59973 C 438.48562,780.55228 436.97312,779.4756 435.24124,779.09522 C 433.57043,778.72824 431.95494,777.78049 431.65125,776.9891 C 431.34757,776.19771 430.56793,775.55021 429.91873,775.55021 C 428.22538,775.55021 422.24066,769.1453 421.85865,766.92424 C 421.62601,765.57161 422.05048,765.13822 423.38429,765.36654 C 424.40067,765.54053 426.05982,764.93394 427.07128,764.01858 C 428.08274,763.10322 429.35192,762.62722 429.89167,762.96081 C 430.43142,763.29439 433.4579,762.89406 436.61717,762.07117 C 440.75031,760.99462 442.72412,760.87614 443.65501,761.6487 C 444.36655,762.23923 445.41843,762.43209 445.99253,762.07728 C 446.56662,761.72247 447.03633,762.09912 447.03633,762.91427 C 447.03633,763.72942 448.41597,765.776 450.10219,767.46222 C 451.78841,769.14844 452.90607,770.95196 452.58587,771.47005 C 452.26568,771.98813 452.43174,772.67655 452.95488,772.99987 C 453.47803,773.3232 452.85987,774.71659 451.58119,776.0963 C 450.30252,777.47602 448.70223,779.94257 448.02501,781.57754 C 447.34778,783.21251 446.28578,784.48279 445.66501,784.40038 C 445.04424,784.31797 443.34465,784.0675 441.88816,783.84378 z " />
    <path
       id="path8138"
       style="fill:#c5c5c5;fill-opacity:1"
       d="M 455.18137,790.03293 C 453.88614,788.66744 451.78614,787.55021 450.5147,787.55021 C 447.14462,787.55021 446.96156,785.65398 449.81545,780.30672 C 451.80541,776.57818 452.63277,775.80032 453.68224,776.6713 C 454.41657,777.28074 456.70914,778.36097 458.77685,779.07182 C 460.84457,779.78266 462.31133,780.56194 462.03633,780.80354 C 461.76133,781.04515 462.15393,781.98698 462.90877,782.89652 C 464.45992,784.76553 463.0654,785.17928 461.26911,783.38299 C 459.81754,781.93142 458.99251,783.72947 458.72321,788.93141 C 458.62042,790.91682 458.31133,792.53549 458.03633,792.52845 C 457.76133,792.52141 456.4766,791.39843 455.18137,790.03293 z " />
    <path
       id="path8154"
       style="fill:#c5c5c5;fill-opacity:1"
       d="M 470.03633,814.6781 C 470.03633,814.11778 468.79883,813.06622 467.28633,812.3413 C 465.77383,811.61638 464.53633,810.45041 464.53633,809.75026 C 464.53633,809.05011 464.02795,808.15617 463.40659,807.76374 C 462.78524,807.3713 461.94617,804.12521 461.54199,800.55021 C 461.13781,796.97521 460.40933,793.29349 459.92314,792.3686 C 459.40963,791.39174 459.41556,789.08674 459.9373,786.8686 C 460.43127,784.76849 460.88063,783.62974 460.93588,784.33806 C 460.99665,785.11725 462.07381,785.51222 463.66306,785.33806 C 466.03186,785.07848 466.46522,785.58202 468.07633,790.4661 C 469.10278,793.57777 471.17842,797.11147 472.95497,798.7718 C 475.62353,801.26579 475.89088,801.95346 474.9068,803.79223 C 474.27966,804.96407 473.68009,807.9765 473.57444,810.48653 C 473.4325,813.85877 472.94558,815.13462 471.70934,815.37353 C 470.78918,815.55136 470.03633,815.23842 470.03633,814.6781 z " />
    <path
       id="path8152"
       style="fill:#c5c5c5;fill-opacity:1"
       d="M 473.19936,797.7025 C 470.54096,795.21919 468.09425,790.03287 469.16623,789.15346 C 469.36979,788.98647 472.64846,787.39774 476.45217,785.62294 C 483.35226,782.40337 483.37673,782.39996 487.20217,784.12499 C 489.31096,785.07592 491.03633,786.19881 491.03633,786.6203 C 491.03633,787.04178 491.27291,788.00315 491.56206,788.75666 C 491.90165,789.64163 490.5154,790.8906 487.64661,792.28437 C 485.20396,793.4711 482.93373,795.2981 482.60166,796.34438 C 482.11982,797.86252 478.28135,800.55021 476.59503,800.55021 C 476.40408,800.55021 474.87602,799.26874 473.19936,797.7025 z " />
    <path
       id="path8150"
       style="fill:#c5c5c5;fill-opacity:1"
       d="M 492.03633,787.01246 C 492.03633,786.19393 490.01133,784.5404 487.53633,783.33795 C 482.50723,780.89462 481.86275,778.72033 484.59916,773.42872 C 486.31588,770.10894 485.50519,768.15118 481.94602,767.02155 C 480.89569,766.68819 480.03633,765.65554 480.03633,764.72677 C 480.03633,763.34284 481.16421,763.00286 486.28633,762.84279 C 494.41212,762.58885 503.59906,758.94278 508.77866,753.91618 C 513.48456,749.34923 519.81006,747.22678 524.17756,748.74928 C 526.87156,749.68844 528.39506,753.55021 526.07156,753.55021 C 524.20546,753.55021 522.89416,757.41601 524.03636,759.55021 C 524.79686,760.9712 524.79686,762.12922 524.03636,763.55021 C 523.41586,764.7096 523.36166,765.55021 523.90756,765.55021 C 525.93606,765.55021 523.59916,769.69848 519.37946,773.58804 C 516.16076,776.55496 515.10556,778.19313 515.53726,779.5533 C 516.44296,782.40668 512.75186,783.90279 506.76566,783.10869 C 502.59266,782.55512 501.42826,782.77182 499.65586,784.43185 C 498.49016,785.52367 496.29883,786.88582 494.78633,787.45885 C 492.5515,788.30553 492.03633,788.22191 492.03633,787.01246 z " />
    <path
       id="path8144"
       style="fill:#c5c5c5;fill-opacity:1"
       d="M 559.56346,723.30021 C 559.33796,722.61271 559.00696,721.15021 558.82806,720.05021 C 558.55336,718.36176 557.76406,718.06397 553.76086,718.13855 C 549.39566,718.21987 549.13876,718.09446 550.52766,716.55981 C 551.35746,715.64291 552.03636,714.47391 552.03636,713.96202 C 552.03636,713.45012 552.95376,712.45834 554.07516,711.75805 C 555.19646,711.05776 555.85676,710.06868 555.54246,709.56009 C 555.22816,709.0515 556.31326,707.94122 557.95396,707.0928 C 561.41926,705.30083 562.40036,705.15224 561.53636,706.55021 C 561.19646,707.10021 561.43636,707.55021 562.06956,707.55021 C 562.70276,707.55021 564.36516,708.45031 565.76376,709.55042 L 568.30656,711.55064 L 570.62366,709.05042 C 573.20706,706.26289 575.54306,705.82236 576.36616,707.96745 C 576.86426,709.26539 574.97096,710.75188 572.54976,710.96384 C 572.00726,711.01135 570.95636,712.31656 570.21446,713.86433 C 569.47266,715.41209 568.22916,716.92273 567.45106,717.22131 C 566.67296,717.51989 566.02206,718.50354 566.00456,719.4072 C 565.93036,723.24001 560.60056,726.46139 559.56346,723.30021 z " />
    <path
       id="path8146"
       style="fill:#f91923;fill-opacity:1"
       d="M 577.09446,833.65891 C 576.53776,832.61869 573.82196,830.9548 571.05936,829.96136 C 568.29666,828.96793 566.03636,827.79402 566.03636,827.35267 C 566.03636,826.91132 565.36136,826.55021 564.53636,826.55021 C 563.71136,826.55021 563.03636,827.17707 563.03636,827.94322 C 563.03636,828.70938 562.36136,829.59525 561.53636,829.91184 C 560.71136,830.22842 560.03636,831.12842 560.03636,831.91184 C 560.03636,832.69525 559.44426,833.56344 558.72056,833.84115 C 556.76866,834.59017 548.03636,833.42879 548.03636,832.42016 C 548.03636,831.94169 547.47386,831.54744 546.78636,831.54405 C 546.09886,831.54066 544.29396,830.88984 542.77556,830.09777 C 540.51776,828.92004 539.79426,828.89381 538.80406,829.95381 C 537.82106,831.00612 537.35266,831.00945 536.31476,829.97152 C 535.61166,829.26837 535.03636,827.9945 535.03636,827.14069 C 535.03636,826.28688 533.93786,825.31261 532.59526,824.97563 C 530.91716,824.55448 529.94756,823.42261 529.49336,821.35476 C 529.12996,819.70026 528.01256,817.52645 527.01016,816.52409 C 523.33226,812.84609 522.81196,810.77457 525.01346,808.57313 C 526.12606,807.46052 526.63876,806.55021 526.15296,806.55021 C 525.66706,806.55021 525.03566,805.65563 524.74976,804.56225 C 524.46376,803.46887 523.12266,802.15334 521.76946,801.63885 C 520.41626,801.12436 519.01426,799.93504 518.65386,798.99591 C 517.84706,796.89338 522.43196,790.55021 524.75846,790.55021 C 525.64966,790.55021 527.25066,789.76271 528.31626,788.80021 C 529.73016,787.52315 531.77826,787.08854 535.89506,787.19203 C 538.99776,787.27004 541.76136,787.03258 542.03636,786.66436 C 542.31136,786.29614 543.65136,785.51627 545.01406,784.9313 C 546.65826,784.22556 547.49926,783.05734 547.51406,781.45897 C 547.53416,779.28016 547.91816,779.07221 551.53636,779.28067 C 557.32156,779.61398 563.81586,778.62487 565.27436,777.18831 C 566.94126,775.54652 574.55286,772.55021 577.05656,772.55021 C 578.14546,772.55021 579.03636,772.10021 579.03636,771.55021 C 579.03636,771.00021 579.93636,770.55021 581.03636,770.55021 C 582.99526,770.55021 583.03636,771.21688 583.03636,803.05021 L 583.03636,835.55021 L 580.57156,835.55021 C 579.17736,835.55021 577.66706,834.72866 577.09446,833.65891 z M 519.42416,788.73168 C 519.81796,788.09455 519.20456,785.45838 518.06116,782.87352 L 515.98226,778.17378 L 520.50926,773.57765 C 522.99916,771.04977 525.03636,768.44859 525.03636,767.79725 C 525.03636,765.76482 528.03736,767.65152 529.59466,770.66299 C 530.72656,772.85176 532.02376,773.68448 535.05766,774.16961 C 540.38336,775.02122 540.18026,777.15664 534.53636,779.65323 C 532.06136,780.74805 530.03636,782.228 530.03636,782.94202 C 530.03636,784.62516 526.83696,787.50543 524.42326,787.99516 C 523.38546,788.20574 521.67496,788.71824 520.62226,789.13406 C 519.28876,789.66078 518.92536,789.53874 519.42416,788.73168 z " />
    <path
       id="path8136"
       style="fill:#f91923;fill-opacity:1"
       d="M 514.53736,855.55185 C 513.63326,854.08908 514.09616,853.68024 517.88706,852.59303 C 519.84036,852.03283 521.23496,852.06257 521.61186,852.67244 C 521.99456,853.29162 522.63796,853.29991 523.37536,852.69514 C 524.01386,852.17144 527.23636,851.41818 530.53636,851.02123 C 533.83636,850.62429 537.32386,849.89009 538.28636,849.38968 C 539.40426,848.80844 540.03636,848.84851 540.03636,849.50063 C 540.03636,850.06206 537.29986,851.90276 533.95536,853.59107 C 529.17826,856.00253 527.57246,856.41016 526.46636,855.49212 C 525.17046,854.4166 520.27066,854.75558 516.56646,856.17702 C 515.83616,856.45727 514.92306,856.17594 514.53736,855.55185 z M 498.99176,842.30488 C 497.50562,840.35871 497.37926,840.35014 495.65101,842.07838 C 494.14479,843.58461 493.71052,843.6466 492.96089,842.46239 C 492.46923,841.68569 492.06006,840.34734 492.05164,839.48827 C 492.04322,838.6292 490.70136,836.93934 489.06973,835.73302 C 487.37985,834.48364 486.33059,832.94696 486.63166,832.16237 C 487.25656,830.53392 497.50266,827.10235 498.99186,828.02275 C 499.55766,828.37239 500.72746,828.2628 501.59156,827.77922 C 502.87176,827.06278 502.91956,826.70042 501.84956,825.82217 C 499.70336,824.06071 495.74493,824.05406 492.43458,825.80636 C 490.72861,826.7094 488.25361,827.3855 486.93458,827.30881 C 484.07764,827.14271 478.78906,823.55021 481.40147,823.55021 C 482.30064,823.55021 483.03633,823.10021 483.03633,822.55021 C 483.03633,821.49938 482.87819,821.43623 479.30435,821.05999 C 474.98908,820.60569 474.02091,818.8104 474.44616,812.05147 C 474.91323,804.62805 476.08788,802.09203 479.99511,800.07153 C 481.58982,799.24687 483.15369,797.75581 483.47036,796.75806 C 483.78703,795.76032 486.06892,793.96123 488.54123,792.76009 C 491.01353,791.55895 493.03633,790.12036 493.03633,789.56321 C 493.03633,789.00606 493.6768,788.55021 494.4596,788.55021 C 495.24241,788.55021 497.24225,787.40637 498.90366,786.00835 C 501.58226,783.7545 502.49536,783.54222 506.96286,784.13486 C 510.75926,784.63847 512.60056,784.41052 514.43256,783.21013 C 516.79656,781.66123 516.89416,781.70347 517.95016,784.73285 C 518.54756,786.44654 519.03636,788.00651 519.03636,788.19943 C 519.03636,788.39236 516.56136,788.55021 513.53636,788.55021 C 510.51136,788.55021 508.03636,789.00021 508.03636,789.55021 C 508.03636,790.10021 507.35696,790.55021 506.52656,790.55021 C 505.69616,790.55021 504.24616,791.45021 503.30426,792.55021 C 502.36246,793.65021 501.00106,794.55021 500.27886,794.55021 C 499.27586,794.55021 499.21856,795.02224 500.03636,796.55021 C 500.62506,797.65021 502.10336,798.56201 503.32156,798.57643 C 504.98216,798.5961 504.53556,799.06103 501.53636,800.43471 C 498.09116,802.01265 497.17247,802.0839 494.91311,800.94837 C 491.72975,799.34845 491.03633,799.91372 491.03633,804.10874 C 491.03633,810.34818 498.03006,816.42553 507.29856,818.24003 C 511.77876,819.11712 511.89616,820.9023 507.42276,820.12923 C 505.28526,819.75982 501.51136,819.26059 499.03636,819.01983 C 494.20641,818.54999 495.20287,819.06393 504.03636,821.59866 C 508.54656,822.89285 511.03636,824.86896 511.03636,827.15448 C 511.03636,828.08716 510.35146,828.11797 508.14366,827.28461 C 505.79716,826.39891 504.94756,826.49612 503.64426,827.7994 C 502.16876,829.27495 502.24436,829.56865 504.57046,831.39841 C 507.36766,833.59864 506.26236,835.27673 503.12276,833.59645 C 499.16956,831.48077 498.92206,833.07251 502.53636,837.36784 C 505.31566,840.67087 505.82466,843.06671 503.56276,842.19873 C 502.75236,841.88773 501.73986,842.23949 501.31276,842.98042 C 500.70236,844.03954 500.20606,843.89512 498.99176,842.30488 z M 538.50926,839.50641 C 537.72526,838.23795 539.79236,835.55021 541.55176,835.55021 C 543.32436,835.55021 544.11026,838.07632 542.75816,839.42835 C 541.35046,840.8361 539.35376,840.87278 538.50926,839.50641 z " />
    <path
       id="path2122"
       style="fill:#f91923;fill-opacity:1"
       d="M 231.372,701.62282 C 229.95911,701.3485 229.37382,700.68456 229.72899,699.759 C 230.03243,698.96827 229.75598,698.32131 229.11468,698.32131 C 228.47338,698.32131 228.25659,697.8231 228.63292,697.21418 C 229.09337,696.46915 228.62208,696.32766 227.19194,696.78156 C 226.02306,697.15255 225.06671,697.02454 225.06671,696.49711 C 225.06671,695.96967 226.30421,695.19974 227.81671,694.78615 L 230.56671,694.03417 L 228.06671,693.27742 C 226.61976,692.83943 226.26425,692.47868 227.22271,692.42099 C 228.26273,692.35839 229.47162,690.5812 230.47271,687.64317 C 232.35771,682.111 232.48874,679.62865 230.92331,679.10684 C 230.08216,678.82646 230.10946,678.10995 231.02656,676.39634 C 231.8118,674.92909 231.91147,673.83645 231.29585,673.44414 C 230.71245,673.07236 230.65784,671.91439 231.16038,670.57131 C 232.04925,668.19572 233.53426,667.65077 234.56671,669.32131 C 235.56569,670.93769 238.98957,670.47109 241.193,668.41828 C 243.00711,666.72818 243.05727,666.41541 241.64127,665.62297 C 239.34266,664.33661 241.64236,661.69974 245.81671,660.83537 C 249.89658,659.99056 250.10985,661.62307 246.42243,665.47191 C 243.87402,668.13187 243.8386,668.32422 245.44548,670.77663 C 247.33103,673.65435 248.85798,674.02884 249.70508,671.82131 C 250.59917,669.49136 251.55184,670.01841 253.3815,673.85524 C 255.5092,678.31708 255.59356,688.4088 253.53933,692.73776 C 252.1171,695.7349 251.70226,695.93821 247.51279,695.69142 C 244.96872,695.54155 243.2602,695.82536 243.58106,696.34453 C 243.89316,696.84951 242.93997,697.566 241.46287,697.93673 C 239.98578,698.30746 237.94237,699.44565 236.92198,700.46604 C 235.90158,701.48644 234.72921,702.26003 234.31671,702.18513 C 233.90421,702.11023 232.57909,701.85719 231.372,701.62282 z " />
  </g>
</svg>
